<?xml version="1.0" encoding="utf-8"?><svg xmlns="http://www.w3.org/2000/svg" xmlns:xlink="http://www.w3.org/1999/xlink"><symbol viewBox="0 0 51 64" id="adv-icon1" xmlns="http://www.w3.org/2000/svg"><path d="M34.316 7.974c-7.254-3.557-15.992-2.197-21.743 3.385-6.683 6.486-7.352 16.83-1.556 24.059.205.255.512.39.821.39.223 0 .448-.07.638-.214a.989.989 0 0 0 .182-1.415c-5.155-6.428-4.559-15.625 1.385-21.394C19.158 7.82 26.928 6.61 33.38 9.775a1.054 1.054 0 0 0 1.396-.446.995.995 0 0 0-.459-1.355zm8.299 8.056a1.055 1.055 0 0 0-1.397-.446.995.995 0 0 0-.459 1.355c3.257 6.26 2.01 13.8-3.103 18.762-5.944 5.769-15.421 6.347-22.044 1.345a1.06 1.06 0 0 0-1.459.176.989.989 0 0 0 .182 1.416c3.393 2.562 7.452 3.823 11.497 3.823 4.837 0 9.654-1.801 13.294-5.334 5.75-5.58 7.151-14.058 3.489-21.097zm-2.685-3.842a18.705 18.705 0 0 0-1.66-1.61 1.061 1.061 0 0 0-1.466.088.988.988 0 0 0 .09 1.424 16.89 16.89 0 0 1 1.478 1.434c.206.226.492.34.78.34.244 0 .49-.083.687-.252a.988.988 0 0 0 .09-1.424zm10.449 13.863a3.337 3.337 0 0 0 0-3.577l-1.368-2.176a1.385 1.385 0 0 1-.196-.959l.408-2.512c.207-1.281-.335-2.55-1.415-3.313l-2.119-1.496a1.419 1.419 0 0 1-.56-.813l-.617-2.475c-.314-1.257-1.313-2.227-2.608-2.53l-2.55-.6a1.465 1.465 0 0 1-.838-.544l-1.542-2.057a3.574 3.574 0 0 0-3.413-1.373l-2.59.396a1.5 1.5 0 0 1-.988-.19L27.741.504a3.618 3.618 0 0 0-3.686 0l-2.242 1.327a1.5 1.5 0 0 1-.988.19l-2.589-.395a3.575 3.575 0 0 0-3.413 1.373l-1.541 2.056a1.466 1.466 0 0 1-.838.544l-2.55.6c-1.295.303-2.295 1.273-2.608 2.53l-.618 2.475c-.081.327-.28.616-.56.813l-2.12 1.496c-1.08.763-1.622 2.032-1.414 3.312l.407 2.514c.054.332-.016.672-.196.959l-1.367 2.176a3.337 3.337 0 0 0 0 3.577l1.367 2.176c.18.287.25.627.196.959l-.407 2.513c-.208 1.28.334 2.55 1.414 3.312l2.119 1.496c.28.198.48.486.56.813l.618 2.475c.313 1.257 1.312 2.227 2.608 2.531l1.064.25-7.206 15.602a.984.984 0 0 0 .11 1.01c.223.293.59.447.961.404l5.8-.673 3.34 4.649a1.049 1.049 0 0 0 .95.427c.372-.034.697-.26.85-.591l7.36-15.935.933.552a3.615 3.615 0 0 0 3.686 0l.966-.572 7.37 15.955a1.038 1.038 0 0 0 .948.596c.338 0 .657-.16.852-.432l3.34-4.649 5.8.673c.371.043.738-.111.96-.404a.984.984 0 0 0 .111-1.01l-7.21-15.61 1.025-.24c1.295-.305 2.294-1.275 2.608-2.532l.617-2.475c.081-.326.28-.615.56-.813l2.12-1.496c1.08-.762 1.622-2.031 1.415-3.312l-.408-2.514a1.386 1.386 0 0 1 .196-.959l1.367-2.176zM14.617 60.953l-2.648-3.684a1.052 1.052 0 0 0-.976-.425l-4.595.534 6.566-14.216c.12.086.228.189.316.307l1.542 2.057c.146.195.311.373.49.53l-3.456 7.483a.997.997 0 0 0 .524 1.332c.138.06.282.089.424.089.397 0 .776-.222.949-.596l3.444-7.456c.338.045.687.044 1.038-.009l2.59-.395c.155-.024.312-.022.464.003l-6.673 14.446zm30.824-3.576l-4.595-.533a1.052 1.052 0 0 0-.976.425l-2.648 3.684-6.675-14.452a1.47 1.47 0 0 1 .424.003l2.59.395a3.67 3.67 0 0 0 1.079.003l3.446 7.462c.173.374.552.596.949.596.142 0 .286-.028.424-.088a.997.997 0 0 0 .523-1.333l-3.469-7.51a3.51 3.51 0 0 0 .46-.503l1.541-2.056c.097-.13.216-.24.35-.33l6.577 14.237zm3.163-32.376l-1.368 2.176a3.355 3.355 0 0 0-.474 2.322l.407 2.514a1.394 1.394 0 0 1-.584 1.367l-2.12 1.497a3.436 3.436 0 0 0-1.357 1.97l-.617 2.475c-.13.518-.542.919-1.077 1.044l-2.55.6a3.55 3.55 0 0 0-2.03 1.318l-1.542 2.056c-.324.433-.864.65-1.409.567l-2.589-.396a3.634 3.634 0 0 0-2.393.46L26.659 46.3a1.494 1.494 0 0 1-1.521 0l-2.243-1.328a3.624 3.624 0 0 0-2.393-.46l-2.59.395a1.475 1.475 0 0 1-1.41-.566l-1.54-2.057a3.55 3.55 0 0 0-2.03-1.318l-2.55-.6a1.435 1.435 0 0 1-1.077-1.044l-.617-2.475a3.436 3.436 0 0 0-1.359-1.97L5.21 33.38a1.393 1.393 0 0 1-.583-1.368l.407-2.513a3.355 3.355 0 0 0-.474-2.322L3.192 25a1.377 1.377 0 0 1 0-1.477l1.368-2.176a3.355 3.355 0 0 0 .474-2.322l-.407-2.514a1.394 1.394 0 0 1 .584-1.367l2.12-1.497a3.436 3.436 0 0 0 1.358-1.97l.617-2.475c.13-.518.542-.919 1.076-1.044l2.55-.6a3.55 3.55 0 0 0 2.03-1.318l1.542-2.056c.324-.433.864-.65 1.409-.567l2.59.396a3.632 3.632 0 0 0 2.392-.46l2.242-1.328a1.494 1.494 0 0 1 1.522 0L28.9 3.553a3.632 3.632 0 0 0 2.393.461l2.59-.395a1.476 1.476 0 0 1 1.41.566l1.54 2.057a3.551 3.551 0 0 0 2.03 1.318l2.55.6c.535.125.948.525 1.078 1.044l.617 2.475c.197.791.68 1.491 1.358 1.97l2.119 1.496c.446.315.67.839.584 1.368l-.408 2.513c-.13.803.038 1.628.475 2.322l1.367 2.176a1.377 1.377 0 0 1 0 1.477zm-10.545-3.877a1.847 1.847 0 0 0-1.565-1.246l-6.253-.72-2.638-5.55a1.864 1.864 0 0 0-1.705-1.059c-.741 0-1.395.406-1.705 1.06l-2.638 5.55-6.253.719a1.847 1.847 0 0 0-1.565 1.247 1.77 1.77 0 0 0 .51 1.9l4.624 4.15-1.227 5.994a1.78 1.78 0 0 0 .738 1.83 1.908 1.908 0 0 0 2.021.115l5.495-2.984 5.495 2.984a1.906 1.906 0 0 0 2.02-.115 1.78 1.78 0 0 0 .739-1.83l-1.227-5.994 4.623-4.15a1.77 1.77 0 0 0 .51-1.9zm-6.972 4.953a.99.99 0 0 0-.314.937l1.256 6.134-5.624-3.054a1.063 1.063 0 0 0-1.015 0l-5.623 3.054 1.256-6.134a.99.99 0 0 0-.314-.937l-4.73-4.246 6.399-.736c.358-.042.67-.26.821-.58l2.699-5.678 2.699 5.679c.151.318.462.537.821.579l6.4.736-4.731 4.246z"/></symbol><symbol viewBox="0 0 65 64" id="adv-icon2" xmlns="http://www.w3.org/2000/svg"><path d="M55.695 51.465c-1.837 0-3.331 1.484-3.331 3.31 0 1.824 1.494 3.308 3.331 3.308s3.331-1.484 3.331-3.309c0-1.825-1.494-3.31-3.33-3.31zm0 4.657a1.354 1.354 0 0 1-1.357-1.348c0-.743.609-1.348 1.357-1.348s1.357.605 1.357 1.348c0 .743-.609 1.348-1.357 1.348zm8.975-1.52a8.65 8.65 0 0 0-2.907-6.274L41.89 30.52l17.572-17.458a1.82 1.82 0 0 0 .34-.134l3.805-1.996c.526-.275.879-.768.967-1.352a1.816 1.816 0 0 0-.521-1.577l-4.285-4.256a1.843 1.843 0 0 0-1.587-.519 1.835 1.835 0 0 0-1.361.961L54.81 7.97a1.94 1.94 0 0 0-.138.34l-8.294 8.24a.976.976 0 0 0 0 1.388.992.992 0 0 0 1.396 0l7.611-7.562 1.995 1.982-19.465 19.337-1.995-1.981 8.497-8.44a.976.976 0 0 0 0-1.388.992.992 0 0 0-1.397 0l-6.164 6.124-6.71-6.011a14.978 14.978 0 0 0-3.6-15.591C22.318.208 15.977-1.13 10.391.998a.977.977 0 0 0-.345 1.61l7.75 7.699a1.197 1.197 0 0 1 0 1.705l-5.033 5a1.21 1.21 0 0 1-.858.354 1.21 1.21 0 0 1-.859-.354l-7.75-7.699a.992.992 0 0 0-1.619.342 15.009 15.009 0 0 0 3.431 16.048c4.025 3.999 9.999 5.407 15.388 3.677l5.187 5.635a5.267 5.267 0 0 1-.973 1.332A5.368 5.368 0 0 1 19 37.54a.991.991 0 0 0-1.055.22L5.86 49.768a8.308 8.308 0 0 0 0 11.79A8.364 8.364 0 0 0 11.794 64a8.365 8.365 0 0 0 5.934-2.442l12.086-12.007a.976.976 0 0 0 .222-1.049 5.283 5.283 0 0 1 1.2-5.672 5.37 5.37 0 0 1 5.71-1.193.992.992 0 0 0 1.056-.22l2.28-2.265a3.575 3.575 0 0 0 1.064-2.553c0-.965-.378-1.872-1.064-2.554l-.97-.964 1.18-1.173 19.95 17.876a6.712 6.712 0 0 1 2.255 4.869 6.707 6.707 0 0 1-2 4.978 6.811 6.811 0 0 1-4.988 1.987 6.796 6.796 0 0 1-4.893-2.206L35.983 43.297a.992.992 0 0 0-1.394-.062.976.976 0 0 0-.062 1.386l14.832 16.114a8.76 8.76 0 0 0 6.51 2.846 8.76 8.76 0 0 0 6.223-2.564 8.645 8.645 0 0 0 2.578-6.415zM56.598 8.806l1.89-3.557 4.051 4.025-3.58 1.878-2.36-2.346zM21.516 27.58a.992.992 0 0 0-1.074-.257c-4.827 1.789-10.298.608-13.937-3.007A13.06 13.06 0 0 1 3.05 11.84l6.6 6.56a3.178 3.178 0 0 0 2.255.927c.851 0 1.652-.33 2.254-.928l5.033-5a3.136 3.136 0 0 0 .934-2.24c0-.846-.332-1.64-.934-2.24L12.59 2.36c4.464-1.121 9.255.151 12.56 3.434a13.028 13.028 0 0 1 2.921 14.122.976.976 0 0 0 .256 1.092l7.131 6.39-.934.928-.97-.964a3.623 3.623 0 0 0-2.57-1.058c-.97 0-1.884.376-2.57 1.058l-2.28 2.265a.976.976 0 0 0-.222 1.048c.262.672.376 1.375.357 2.069l-4.753-5.164zm17.37 10.185L37.037 39.6a7.352 7.352 0 0 0-7.198 1.843 7.237 7.237 0 0 0-1.854 7.15L16.332 60.172a6.397 6.397 0 0 1-4.538 1.868 6.396 6.396 0 0 1-4.538-1.868 6.353 6.353 0 0 1 0-9.016L18.91 39.577a7.351 7.351 0 0 0 7.198-1.843 7.237 7.237 0 0 0 1.854-7.15l1.848-1.835a1.67 1.67 0 0 1 2.348 0l6.727 6.683c.648.643.648 1.69 0 2.333zm-18 5.516a.992.992 0 0 0-1.395 0l-9.351 9.29a.976.976 0 0 0 0 1.387.988.988 0 0 0 1.396 0l9.35-9.29a.976.976 0 0 0 0-1.387zm3.456 3.433a.992.992 0 0 0-1.396 0l-9.351 9.29a.976.976 0 0 0 0 1.386.988.988 0 0 0 1.396 0l9.35-9.29a.976.976 0 0 0 0-1.386z"/></symbol><symbol viewBox="0 0 53 64" id="adv-icon3" xmlns="http://www.w3.org/2000/svg"><path d="M26.5 5.001c-.699 0-1.26.558-1.26 1.249a1.25 1.25 0 0 0 1.134 1.242A1.254 1.254 0 0 0 27.76 6.25c0-.692-.563-1.249-1.261-1.249zM51.738 7.5c-3.479 0-6.31-2.804-6.31-6.25 0-.69-.564-1.25-1.261-1.25H8.833c-.696 0-1.262.56-1.262 1.25 0 3.446-2.83 6.25-6.31 6.25C.566 7.5 0 8.06 0 8.75v20.399C0 45.046 10.46 59.29 26.138 63.947a1.276 1.276 0 0 0 .724 0C42.2 59.39 53 45.394 53 29.15V8.75c0-.69-.565-1.25-1.262-1.25zm-1.262 21.649c0 14.93-9.618 27.861-23.976 32.294C12.257 57.046 2.524 43.998 2.524 29.149V9.91c3.863-.55 6.926-3.585 7.481-7.411h32.99c.555 3.826 3.618 6.861 7.481 7.411v19.238zm-3.28-17.588a11.314 11.314 0 0 1-5.867-5.813A1.262 1.262 0 0 0 40.173 5h-8.628c-.697 0-1.262.56-1.262 1.25s.565 1.25 1.262 1.25h7.83a13.807 13.807 0 0 0 6.054 5.997v15.652c0 12.233-7.414 22.788-18.929 27.013-11.515-4.225-18.929-14.78-18.929-27.013V13.497A13.809 13.809 0 0 0 13.625 7.5h7.83c.697 0 1.262-.56 1.262-1.25S22.152 5 21.455 5h-8.628c-.501 0-.954.294-1.156.748a11.314 11.314 0 0 1-5.868 5.813 1.25 1.25 0 0 0-.755 1.145V29.15c0 13.401 8.367 25.081 21.031 29.52a1.273 1.273 0 0 0 .842 0c12.653-4.435 21.031-16.108 21.031-29.52V12.706a1.25 1.25 0 0 0-.755-1.145zM26.5 18.25c-6.262 0-11.357 5.047-11.357 11.25S20.238 40.75 26.5 40.75s11.357-5.047 11.357-11.25S32.762 18.25 26.5 18.25zm0 20c-4.87 0-8.833-3.925-8.833-8.75s3.962-8.75 8.833-8.75c4.87 0 8.833 3.925 8.833 8.75s-3.962 8.75-8.833 8.75zm5.94-12.134a1.27 1.27 0 0 0-1.785 0l-5.417 5.366-1.631-1.616a1.27 1.27 0 0 0-1.785 0 1.242 1.242 0 0 0 0 1.768l2.524 2.5c.246.244.569.366.892.366.323 0 .646-.122.892-.366l6.31-6.25a1.242 1.242 0 0 0 0-1.768z"/></symbol><symbol viewBox="0 0 64 64" id="adv-icon4" xmlns="http://www.w3.org/2000/svg"><path d="M49.04 28.26a3.678 3.678 0 0 0-3.674-3.675h-6.752c1.64-1.844 2.712-3.944 2.92-5.828a4.052 4.052 0 0 0-.976-3.133 3.522 3.522 0 0 0-2.628-1.207h-.035c-.979 0-1.897.377-2.59 1.064a3.629 3.629 0 0 0-1.083 2.58c-.035.213-.411.95-1.332 1.826-.754.717-2.056 1.703-3.978 2.327-.754.245-1.443.695-2.047 1.34-.318.337-.793.804-1.381 1.272a2.056 2.056 0 0 0-.967-.24h-6.413a2.073 2.073 0 0 0-2.07 2.07V43.76c0 1.142.928 2.07 2.07 2.07h6.413c.779 0 1.458-.432 1.812-1.068h16.365a3.143 3.143 0 0 0 3.14-3.14c0-.582-.16-1.128-.436-1.596a3.141 3.141 0 0 0 1.068-4.275 3.141 3.141 0 0 0 .96-4.449 3.674 3.674 0 0 0 1.615-3.042zm-3.674 1.67h-.534a1.002 1.002 0 0 0 0 2.004c.626 0 1.136.51 1.136 1.135 0 .627-.51 1.136-1.136 1.136h-1.07a1.002 1.002 0 0 0 0 2.004 1.137 1.137 0 0 1 0 2.271h-1.068a1.002 1.002 0 0 0 0 2.005 1.137 1.137 0 0 1 0 2.272H26.589V33.07a1.002 1.002 0 1 0-2.005 0v10.689c0 .037-.03.066-.067.066h-6.413a.067.067 0 0 1-.067-.066V26.656c0-.037.03-.067.067-.067h6.413c.037 0 .067.03.067.067v2.138a1.002 1.002 0 1 0 2.005 0v-2.138c0-.049-.005-.096-.008-.144a15.224 15.224 0 0 0 1.744-1.587c.371-.395.777-.666 1.206-.805 2.358-.766 3.946-1.999 4.862-2.898 1.148-1.128 1.834-2.303 1.834-3.144 0-.445.173-.861.488-1.173a1.68 1.68 0 0 1 1.197-.484c.562.006.934.293 1.147.533.366.412.546 1.004.482 1.584-.219 1.991-1.811 4.453-4.057 6.27a1.002 1.002 0 0 0 .63 1.781h9.252c.921 0 1.67.75 1.67 1.67 0 .921-.749 1.67-1.67 1.67zm-24.055 9.609c-.553 0-1.008.454-1.008 1.007 0 .553.454 1.007 1.008 1.007.553 0 1.007-.454 1.007-1.007 0-.553-.454-1.007-1.007-1.007zM62.214 32l1.721-4.555a1.002 1.002 0 0 0-.155-.98l-3.045-3.801.23-4.865a1.002 1.002 0 0 0-.452-.884l-4.07-2.674-1.285-4.697a1.002 1.002 0 0 0-.702-.702L49.76 7.557l-2.673-4.07a1.004 1.004 0 0 0-.885-.451l-4.865.23-3.8-3.045a1.002 1.002 0 0 0-.981-.156L32 1.787 27.445.065a1.001 1.001 0 0 0-.981.156l-3.8 3.045-4.865-.23a1 1 0 0 0-.885.45L14.24 7.558 9.544 8.842c-.341.093-.608.36-.702.702L7.556 14.24l-4.07 2.674a1.002 1.002 0 0 0-.45.884l.229 4.865-3.045 3.8c-.221.277-.28.65-.155.981L1.786 32 .065 36.556a.997.997 0 0 0 .155.98l3.045 3.801-.23 4.864c-.016.354.155.69.451.885l4.07 2.674 1.285 4.697a1 1 0 0 0 .702.702l4.697 1.285 2.674 4.07c.194.296.531.467.885.451l4.864-.23 3.8 3.045c.277.222.65.281.981.156L32 62.214l4.555 1.722a1.002 1.002 0 0 0 .98-.156l3.801-3.044 4.865.229c.355.016.69-.155.885-.45l2.673-4.071 4.697-1.285a.997.997 0 0 0 .702-.702l1.285-4.697 4.07-2.674a.998.998 0 0 0 .451-.885l-.23-4.864 3.046-3.8c.221-.277.28-.65.155-.981L62.214 32zm-2.01.355l1.654 4.375-2.924 3.65c-.153.19-.23.43-.22.673l.221 4.672-3.909 2.567a1.003 1.003 0 0 0-.416.574l-1.234 4.51-4.511 1.235a.997.997 0 0 0-.573.416l-2.568 3.91-4.671-.221a1.002 1.002 0 0 0-.674.219l-3.65 2.924-4.375-1.653a1 1 0 0 0-.709 0l-4.374 1.653-3.65-2.924c-.19-.153-.43-.23-.674-.22l-4.672.221-2.567-3.909a1.002 1.002 0 0 0-.574-.416l-4.51-1.234-1.234-4.511a1.003 1.003 0 0 0-.417-.574l-3.909-2.567.22-4.672a1.002 1.002 0 0 0-.218-.674L2.14 36.73l1.654-4.374c.086-.229.086-.48 0-.709L2.14 27.271l2.925-3.65c.152-.19.23-.43.219-.673l-.22-4.672 3.908-2.568a1 1 0 0 0 .417-.573l1.233-4.51 4.511-1.235a1 1 0 0 0 .574-.416l2.567-3.91 4.672.221a.999.999 0 0 0 .674-.219l3.65-2.924 4.374 1.653c.229.087.48.087.709 0l4.375-1.653 3.65 2.924c.19.153.43.23.674.22l4.671-.221 2.568 3.909a.997.997 0 0 0 .573.416l4.511 1.234 1.234 4.511c.064.236.212.44.416.573l3.91 2.568-.221 4.672a.994.994 0 0 0 .219.673l2.924 3.65-1.653 4.375c-.086.229-.086.48 0 .709zM50.83 14.697a26.218 26.218 0 0 0-1.572-1.571 1.002 1.002 0 1 0-1.355 1.476 24.288 24.288 0 0 1 1.45 1.45 1 1 0 0 0 1.416.06 1.002 1.002 0 0 0 .061-1.415zm-5.13-4.306c-4.833-3.079-10.651-4.447-16.383-3.854a25.643 25.643 0 0 0-15.441 7.358 25.51 25.51 0 0 0-7.473 17.05A25.502 25.502 0 0 0 12.37 48.44a1 1 0 0 0 1.412.121 1 1 0 0 0 .122-1.411 23.504 23.504 0 0 1-5.5-16.123 23.511 23.511 0 0 1 6.888-15.715 23.632 23.632 0 0 1 14.23-6.781c5.285-.548 10.647.714 15.1 3.55a1.002 1.002 0 1 0 1.077-1.69zm7.865 7.865a1.002 1.002 0 0 0-1.69 1.077c2.836 4.452 4.097 9.815 3.55 15.099a23.633 23.633 0 0 1-6.781 14.23 23.512 23.512 0 0 1-15.715 6.888 23.5 23.5 0 0 1-16.123-5.5 1.002 1.002 0 0 0-1.29 1.534 25.487 25.487 0 0 0 17.494 5.969 25.51 25.51 0 0 0 17.05-7.473 25.642 25.642 0 0 0 7.358-15.442c.593-5.732-.776-11.55-3.854-16.382z"/></symbol><symbol viewBox="0 0 64 49" id="adv-icon5" xmlns="http://www.w3.org/2000/svg"><path d="M56.465 21.673c-2.178-1.112-6.26-1.125-6.434-1.125a.948.948 0 0 0-.937.957c0 .53.42.958.937.958 1.054 0 4.113.166 5.596.923a.917.917 0 0 0 .418.102.936.936 0 0 0 .84-.53.968.968 0 0 0-.42-1.285zm4.674 13.636l-3.872-1.13a.4.4 0 0 1-.284-.385v-1.32a7.121 7.121 0 0 0 3.007-5.848v-1.822l.375-.765c.41-.84.628-1.78.628-2.718v-4.936a.948.948 0 0 0-.938-.958h-9.021c-3.28 0-5.95 2.727-5.95 6.078v.058c0 .78.18 1.562.522 2.26l.48.98v1.565c0 2.48 1.197 4.704 3.008 6.043v1.383c0 .214 0 .302-.774.528l-1.89.551-5.464-2.03a.969.969 0 0 0-.256-.733l-1.746-1.875V27.09c.184-.155.366-.315.543-.484 2.203-2.11 3.466-5.088 3.466-8.172V15.92a11.274 11.274 0 0 0 1.003-4.656V1.024a.948.948 0 0 0-.938-.958H29.005c-4.94 0-8.957 4.105-8.957 9.15v2.049c0 1.611.337 3.176 1.002 4.655v2.162c0 3.58 1.559 6.806 4.01 8.933v3.22l-1.746 1.875a.97.97 0 0 0-.256.733l-5.768 2.143a4.883 4.883 0 0 0-1.159.62l-.906-.462c2.697-1.2 3.55-2.886 3.592-2.97a.976.976 0 0 0 0-.856c-.676-1.38-.758-3.912-.824-5.946a52.809 52.809 0 0 0-.082-1.886c-.32-4.594-3.738-8.059-7.952-8.059s-7.632 3.465-7.952 8.059c-.04.57-.06 1.21-.082 1.886-.066 2.034-.148 4.565-.824 5.946a.976.976 0 0 0 0 .857c.041.083.894 1.766 3.595 2.967l-2.515 1.285C.835 37.114 0 38.496 0 40.032v7.076c0 .529.42.957.938.957a.948.948 0 0 0 .937-.957v-7.076a2.11 2.11 0 0 1 1.144-1.892l3.133-1.6 1.09 1.058a3.89 3.89 0 0 0 2.717 1.11 3.89 3.89 0 0 0 2.717-1.11l1.09-1.058 1.021.522a5.124 5.124 0 0 0-.754 2.674v7.372c0 .529.42.958.938.958a.948.948 0 0 0 .938-.958v-7.372c0-1.315.812-2.5 2.022-2.95l6.081-2.259 2.532 3.88a1.927 1.927 0 0 0 1.616.883c.512 0 1.003-.206 1.37-.58l1.544-1.579v9.977c0 .529.42.958.938.958a.948.948 0 0 0 .937-.958v-9.977l1.545 1.578a1.91 1.91 0 0 0 1.563.571 1.93 1.93 0 0 0 1.423-.873l2.531-3.88 6.082 2.26c1.21.45 2.022 1.635 2.022 2.95v7.371c0 .53.42.958.938.958a.948.948 0 0 0 .937-.958v-7.372c0-1.331-.518-2.58-1.387-3.504l.232-.068c.234-.068.552-.161.872-.321l2.394 2.445v8.82c0 .53.42.958.938.958a.948.948 0 0 0 .937-.958v-8.82l2.377-2.428c.126.065.26.12.399.161l3.872 1.13c.884.259 1.501 1.095 1.501 2.034v7.923c0 .53.42.958.938.958a.948.948 0 0 0 .937-.958v-7.923c0-1.79-1.176-3.384-2.861-3.876zM6.014 33.618c-1.753-.645-2.633-1.505-3.008-1.974.256-.684.422-1.467.534-2.293a7.114 7.114 0 0 0 2.474 3.119v1.148zm5.371 2.592c-.8.776-2.052.776-2.852 0l-.871-.847c.147-.282.228-.6.228-.935v-1.021a6.839 6.839 0 0 0 4.14 0l-.001 1.02c0 .335.08.655.228.936l-.872.847zM9.96 31.813c-2.8 0-5.077-2.327-5.077-5.187a.948.948 0 0 0-.938-.958.918.918 0 0 0-.154.014l.008-.246c.021-.659.041-1.28.079-1.814.12-1.721.792-3.307 1.895-4.466a5.735 5.735 0 0 1 4.186-1.813c1.588 0 3.074.644 4.187 1.813 1.102 1.159 1.775 2.745 1.895 4.466a51.95 51.95 0 0 1 .084 1.984c-1.02-1.605-2.595-2.788-4.63-3.457-1.88-.617-3.498-.579-3.566-.577a.928.928 0 0 0-.65.293l-1.69 1.792a.972.972 0 0 0 .023 1.354.924.924 0 0 0 1.326-.024l1.407-1.491c1.213.06 5.112.523 6.629 3.935-.382 2.514-2.497 4.382-5.014 4.382zm3.944 1.808v-1.143a7.057 7.057 0 0 0 2.475-3.122c.112.825.278 1.606.534 2.288-.374.465-1.258 1.332-3.01 1.977zm9.021-15.539v-2.376a.975.975 0 0 0-.093-.416 9.353 9.353 0 0 1-.909-4.025V9.216c0-3.989 3.177-7.234 7.082-7.234H42.1v9.283a9.35 9.35 0 0 1-.91 4.025.975.975 0 0 0-.093.416v2.727c0 2.594-1.02 5-2.873 6.775a9.393 9.393 0 0 1-.72.622l-.016.012a8.88 8.88 0 0 1-6.084 1.854c-4.755-.314-8.48-4.537-8.48-9.614zm5.279 19.272a.058.058 0 0 1-.052.02.06.06 0 0 1-.048-.03l-2.915-4.468.938-1.007 4.423 3.089-2.346 2.396zm3.808-3.696l-5.077-3.545v-1.788a10.388 10.388 0 0 0 5.087 1.307c1.792 0 3.517-.438 5.067-1.269v1.75l-5.077 3.545zm3.908 3.686a.06.06 0 0 1-.048.03.055.055 0 0 1-.052-.02l-2.346-2.396 4.423-3.089.938 1.007-2.915 4.468zm17.118-.808l-2.127-2.173c.037-.172.058-.361.058-.569v-.404a6.444 6.444 0 0 0 2.072.338 6.83 6.83 0 0 0 2.067-.32v.386c0 .192.024.379.068.559l-2.138 2.183zm3.536-6.188a4.98 4.98 0 0 1-3.692 1.462c-2.713-.083-4.92-2.524-4.92-5.442v-1.79a.972.972 0 0 0-.1-.428l-.579-1.184a3.211 3.211 0 0 1-.324-1.403v-.057c0-2.296 1.828-4.163 4.075-4.163h8.084v3.978a4.26 4.26 0 0 1-.43 1.861l-.474.968a.974.974 0 0 0-.099.428v2.048a5.2 5.2 0 0 1-1.541 3.723zm2.479 9.657a.948.948 0 0 0-.938.958v6.145c0 .529.42.957.938.957a.948.948 0 0 0 .937-.957v-6.145a.948.948 0 0 0-.937-.958zM4.947 41.271a.948.948 0 0 0-.937.958v4.879c0 .529.42.957.937.957a.948.948 0 0 0 .938-.957v-4.879a.948.948 0 0 0-.938-.958zm34.744-29.66c-3.545-3.622-10.964-2.93-13.99-2.463-.952.146-1.643.97-1.643 1.958v2.207c0 .529.42.958.937.958a.948.948 0 0 0 .938-.958v-2.207c0-.032.02-.06.049-.065 1.208-.186 3.606-.473 6.09-.303 2.924.198 5.041.948 6.294 2.228a.923.923 0 0 0 1.325 0 .972.972 0 0 0 0-1.354zM20.985 42.055a.948.948 0 0 0-.937.957v4.097c0 .529.42.958.938.958a.948.948 0 0 0 .937-.958V43.01a.948.948 0 0 0-.938-.957zm22.053 0a.948.948 0 0 0-.937.957v4.097c0 .529.42.958.937.958a.948.948 0 0 0 .938-.958V43.01a.948.948 0 0 0-.938-.957z"/></symbol><symbol viewBox="0 0 64 65" id="adv-icon6" xmlns="http://www.w3.org/2000/svg"><path d="M60.423 33.783h-.047V14.285c0-.812-.639-1.47-1.426-1.47h-7.507l-5.61-11.43a1.439 1.439 0 0 0-.827-.732 1.387 1.387 0 0 0-1.088.085L20.746 12.815H5.774c-3.118 0-5.648 2.51-5.768 5.718v.014l-.001.01a6.06 6.06 0 0 0-.005.209V58.63c0 3.28 2.59 5.95 5.774 5.95H58.95c.787 0 1.426-.658 1.426-1.47V51.794h.047c1.972 0 3.577-1.654 3.577-3.687V37.47c0-2.033-1.605-3.687-3.577-3.687zm-2.898-18.03v5.698h-1.843l-2.797-5.697h4.64zm-35.796-.157h.001L43.932 4.022l5.362 10.924 3.192 6.505h-2.763a1.513 1.513 0 0 0-.063-.15l-3.669-7.477a1.414 1.414 0 0 0-1.54-.78l-.437.086c-1.672.332-3.39-.451-4.28-1.946l-.283-.478a1.403 1.403 0 0 0-1.86-.543L15.937 21.451h-5.442l11.235-5.855zm24.81 5.855H22.253l15.492-8.074c1.46 1.927 3.806 2.97 6.173 2.734l2.621 5.34zM5.774 15.755h9.334L4.635 21.212a3.012 3.012 0 0 1-1.666-1.936l-.007-.025a3.031 3.031 0 0 1-.104-.66c.087-1.596 1.356-2.837 2.916-2.837zm51.75 45.887H5.775c-1.612 0-2.923-1.35-2.923-3.011v-.684h43.562c.788 0 1.426-.658 1.426-1.47 0-.81-.639-1.468-1.426-1.468H2.851V23.58c.568.342 1.2.584 1.87.71l.012.002h.005l.04.008h.001l.033.005c.084.015.168.028.253.039l.05.006h.001c.04.005.08.008.12.011.058.006.116.013.175.016l.044.003c.111.007.216.01.319.01h51.75v3.241h-43.94c-.788 0-1.426.658-1.426 1.47 0 .81.638 1.468 1.426 1.468h43.94v3.214H36.903c-.787 0-1.426.658-1.426 1.47v15.072c0 .81.639 1.469 1.426 1.469h20.623v9.847zm2.899-12.786H38.328V36.722h22.095c.4 0 .726.335.726.748v10.637a.738.738 0 0 1-.726.748zM45.41 37.242c-2.968 0-5.383 2.488-5.383 5.547 0 3.058 2.415 5.546 5.383 5.546s5.382-2.488 5.382-5.547c0-3.058-2.414-5.546-5.382-5.546zm0 8.155c-1.396 0-2.531-1.17-2.531-2.608 0-1.439 1.135-2.609 2.53-2.609 1.396 0 2.532 1.17 2.532 2.608 0 1.439-1.136 2.609-2.531 2.609zm6.735 10.793a1.512 1.512 0 0 0-.389-.752 1.412 1.412 0 0 0-1.287-.401 1.32 1.32 0 0 0-.267.083 1.509 1.509 0 0 0-.246.136 1.392 1.392 0 0 0-.394.406 1.478 1.478 0 0 0-.212.528 1.475 1.475 0 0 0 0 .574 1.524 1.524 0 0 0 .389.75c.067.069.14.13.217.185a1.414 1.414 0 0 0 .792.247 1.387 1.387 0 0 0 1.008-.43 1.506 1.506 0 0 0 .389-1.325zM10.647 28.813a1.508 1.508 0 0 0-.39-.752 1.425 1.425 0 0 0-.729-.401 1.37 1.37 0 0 0-.824.084 1.396 1.396 0 0 0-.464.317 1.458 1.458 0 0 0-.307.477 1.523 1.523 0 0 0-.082.85 1.517 1.517 0 0 0 .39.75 1.386 1.386 0 0 0 .463.319 1.4 1.4 0 0 0 .824.084 1.47 1.47 0 0 0 .512-.22 1.555 1.555 0 0 0 .395-.405 1.584 1.584 0 0 0 .212-.529 1.506 1.506 0 0 0 0-.574z"/></symbol><symbol viewBox="0 0 20 24" id="contacts-address" xmlns="http://www.w3.org/2000/svg"><path d="M9.995 0C4.485 0 0 4.317 0 9.62c0 .604.058 1.213.178 1.806a9.233 9.233 0 0 0 .737 2.219c1.077 2.44 3.445 6.189 8.64 10.204a.727.727 0 0 0 .89 0c5.19-4.015 7.563-7.764 8.64-10.204a9.132 9.132 0 0 0 .737-2.219A9.534 9.534 0 0 0 20 9.62C19.99 4.317 15.504 0 9.995 0zm8.426 11.19c0 .01-.005.02-.005.03-.005.025-.02.1-.047.216v.01a7.781 7.781 0 0 1-.58 1.64c-.005.006-.005.016-.01.02-.978 2.23-3.121 5.631-7.784 9.34-4.663-3.709-6.806-7.11-7.784-9.34-.005-.004-.005-.014-.01-.02a8.304 8.304 0 0 1-.58-1.64v-.01c-.032-.115-.042-.19-.048-.216 0-.01-.005-.02-.005-.035a7.918 7.918 0 0 1-.157-1.57c0-4.553 3.853-8.262 8.584-8.262 4.73 0 8.583 3.709 8.583 8.262a7.89 7.89 0 0 1-.157 1.575zM9.995 3.618c-3.497 0-6.346 2.742-6.346 6.108 0 3.366 2.849 6.108 6.346 6.108s6.346-2.742 6.346-6.108c0-3.366-2.85-6.108-6.346-6.108zm0 10.858c-2.724 0-4.935-2.134-4.935-4.75 0-2.617 2.217-4.75 4.935-4.75 2.718 0 4.934 2.133 4.934 4.75 0 2.616-2.21 4.75-4.934 4.75z"/></symbol><symbol viewBox="0 0 26 22" id="contacts-email" xmlns="http://www.w3.org/2000/svg"><path d="M23.8 1H2.2C1.537 1 1 1.584 1 2.304v17.392C1 20.416 1.537 21 2.2 21h21.6c.663 0 1.2-.584 1.2-1.304V2.304C25 1.584 24.463 1 23.8 1zm.4 18.696c0 .24-.18.434-.4.434H2.2c-.22 0-.4-.194-.4-.434V2.304c0-.24.18-.434.4-.434h21.6c.22 0 .4.194.4.434v17.392zM23.035 2.74a.38.38 0 0 0-.292.1l-9.228 8.426a.752.752 0 0 1-1.03 0L3.257 2.841a.375.375 0 0 0-.394-.076.427.427 0 0 0-.257.333.456.456 0 0 0 .137.409l9.228 8.426a1.502 1.502 0 0 0 2.058 0l9.228-8.426a.46.46 0 0 0 .05-.613.39.39 0 0 0-.272-.153zM8.693 11.873a.381.381 0 0 0-.385.135l-5.6 6.522a.462.462 0 0 0-.098.427.416.416 0 0 0 .297.3.381.381 0 0 0 .385-.134l5.6-6.522a.462.462 0 0 0 .098-.428.416.416 0 0 0-.297-.3zm9 .135a.381.381 0 0 0-.386-.135.416.416 0 0 0-.297.3.462.462 0 0 0 .098.428l5.6 6.522c.152.169.4.175.559.014a.462.462 0 0 0 .025-.608l-5.6-6.521zm5.05-9.167l.168.185-.168-.185zm-9.228 8.426l-.169-.185.169.185zm-1.03 0l.169-.185-.169.185zM3.257 2.841l.169-.185-.169.185zm-.514.666l.168-.185-.168.185zm9.228 8.426l.169-.185-.17.185zm2.058 0l-.168-.185.168.185zm9.228-8.426l-.168-.185.168.185zm.05-.613l-.199.153.198-.153zm-15 9.114l.19.163.004-.005-.193-.158zm-5.6 6.522l.187.167.003-.005-.19-.162zm-.097.427l.241-.066-.24.066zm.297.3l-.06.244.06-.243zm.385-.134l-.19-.163-.003.004.193.159zm5.6-6.522l-.186-.167-.003.004.19.163zm8.8-.593l-.193.158.004.005.19-.163zm-.682.165l-.24-.066.24.066zm.098.428l.19-.163-.004-.004-.186.167zm5.6 6.522l-.19.162.004.005.186-.167zm.584-.594l.194-.158-.004-.004-.19.162zM23.8.75H2.2v.5h21.6v-.5zM2.2.75C1.38.75.75 1.466.75 2.304h.5c0-.602.445-1.054.95-1.054v-.5zM.75 2.304v17.392h.5V2.304h-.5zm0 17.392c0 .838.63 1.554 1.45 1.554v-.5c-.505 0-.95-.452-.95-1.054h-.5zM2.2 21.25h21.6v-.5H2.2v.5zm21.6 0c.82 0 1.45-.716 1.45-1.554h-.5c0 .602-.445 1.054-.95 1.054v.5zm1.45-1.554V2.304h-.5v17.392h.5zm0-17.392c0-.838-.63-1.554-1.45-1.554v.5c.505 0 .95.452.95 1.054h.5zm-1.3 17.392c0 .122-.086.184-.15.184v.5c.378 0 .65-.326.65-.684h-.5zm-.15.184H2.2v.5h21.6v-.5zm-21.6 0c-.064 0-.15-.062-.15-.184h-.5c0 .358.272.684.65.684v-.5zm-.15-.184V2.304h-.5v17.392h.5zm0-17.392c0-.122.086-.184.15-.184v-.5c-.378 0-.65.326-.65.684h.5zm.15-.184h21.6v-.5H2.2v.5zm21.6 0c.064 0 .15.062.15.184h.5c0-.358-.272-.684-.65-.684v.5zm.15.184v17.392h.5V2.304h-.5zm-.892.188a.63.63 0 0 0-.484.164l.337.37a.13.13 0 0 1 .1-.036l.047-.498zm-.484.164l-9.228 8.426.337.37 9.228-8.426-.337-.37zm-9.228 8.426a.502.502 0 0 1-.692 0l-.338.37c.394.359.974.359 1.367 0l-.337-.37zm-.692 0L3.426 2.656l-.337.37 9.228 8.426.337-.37zM3.426 2.656a.625.625 0 0 0-.655-.123l.184.465a.125.125 0 0 1 .134.028l.337-.37zm-.655-.123a.677.677 0 0 0-.412.525l.494.08a.178.178 0 0 1 .102-.14l-.184-.465zm-.412.525a.706.706 0 0 0 .215.634l.337-.37a.206.206 0 0 1-.058-.184l-.494-.08zm.215.634l9.228 8.425.337-.369-9.228-8.426-.337.37zm9.228 8.425a1.75 1.75 0 0 0 2.396 0l-.338-.369a1.25 1.25 0 0 1-1.72 0l-.338.369zm2.396 0l9.228-8.425-.337-.37-9.228 8.426.337.37zm9.228-8.425a.698.698 0 0 0 .222-.46l-.499-.04a.198.198 0 0 1-.06.13l.337.37zm.222-.46a.71.71 0 0 0-.144-.49l-.395.305a.21.21 0 0 1 .04.145l.499.04zm-.144-.49a.64.64 0 0 0-.446-.25l-.047.498c.033.003.07.02.097.057l.396-.305zM8.752 11.63a.63.63 0 0 0-.638.22l.387.316a.132.132 0 0 1 .133-.05l.118-.486zm-.634.215l-5.6 6.522.38.325 5.6-6.521-.38-.326zm-5.596 6.518a.712.712 0 0 0-.153.66l.482-.132a.212.212 0 0 1 .043-.194l-.372-.334zm-.153.66c.063.23.24.42.479.478l.118-.486c-.046-.011-.095-.052-.115-.124l-.482.132zm.479.478a.631.631 0 0 0 .638-.22l-.387-.317c-.04.048-.09.061-.133.05l-.118.487zm.634-.216l5.6-6.521-.38-.326-5.6 6.522.38.325zm5.596-6.517a.712.712 0 0 0 .153-.66l-.483.131c.02.073 0 .148-.042.195l.372.334zm.153-.66a.665.665 0 0 0-.479-.478l-.118.486c.046.01.095.052.114.123l.483-.132zm8.655-.259a.63.63 0 0 0-.638-.22l.118.487a.132.132 0 0 1 .133.05l.387-.317zm-.638-.22a.665.665 0 0 0-.479.478l.483.132c.02-.071.068-.112.114-.123l-.118-.486zm-.479.478a.712.712 0 0 0 .153.66l.372-.333a.212.212 0 0 1-.043-.195l-.482-.132zm.149.657l5.6 6.521.38-.325-5.6-6.522-.38.326zm5.604 6.526a.627.627 0 0 0 .923.022l-.356-.35a.129.129 0 0 1-.195-.006l-.372.334zm.923.022a.712.712 0 0 0 .04-.941l-.386.317a.212.212 0 0 1-.01.273l.356.351zm.037-.945l-5.6-6.522-.38.326 5.6 6.521.38-.325z"/></symbol><symbol viewBox="0 0 24 24" id="contacts-tel" xmlns="http://www.w3.org/2000/svg"><path d="M18.978 14.867c-.492-.512-1.086-.785-1.715-.785-.624 0-1.222.268-1.735.78l-1.603 1.596c-.132-.071-.264-.137-.39-.203a6.571 6.571 0 0 1-.503-.268c-1.501-.953-2.866-2.194-4.174-3.8-.635-.8-1.06-1.473-1.37-2.157.416-.38.801-.775 1.177-1.155.142-.142.284-.289.426-.43 1.065-1.064 1.065-2.442 0-3.506L7.706 3.556c-.157-.157-.32-.319-.472-.481a23.945 23.945 0 0 0-.953-.942c-.492-.486-1.08-.745-1.7-.745-.619 0-1.217.259-1.724.745l-.01.01L1.121 3.88A3.704 3.704 0 0 0 .02 6.236c-.122 1.479.314 2.857.65 3.758.821 2.214 2.049 4.265 3.88 6.464 2.222 2.649 4.895 4.74 7.949 6.215 1.166.552 2.724 1.205 4.464 1.317.106.005.218.01.32.01 1.171 0 2.155-.42 2.926-1.256.005-.01.016-.015.02-.026.264-.319.569-.607.888-.916a19.3 19.3 0 0 0 .66-.654c.502-.521.766-1.13.766-1.752 0-.629-.269-1.231-.781-1.738l-2.785-2.79zm1.816 5.334c-.005.005-.005 0 0 0-.198.213-.401.405-.62.618-.329.314-.664.643-.978 1.013-.513.547-1.116.805-1.908.805-.076 0-.157 0-.233-.005-1.506-.096-2.907-.684-3.957-1.185-2.87-1.388-5.392-3.358-7.487-5.855-1.73-2.082-2.886-4.007-3.652-6.074-.472-1.261-.645-2.244-.568-3.17a2.32 2.32 0 0 1 .7-1.505l1.73-1.728c.248-.233.512-.36.77-.36.32 0 .579.193.741.355l.015.016c.31.288.604.587.913.906.158.162.32.325.482.492l1.385 1.383c.538.536.538 1.033 0 1.57-.147.147-.289.294-.436.435a26.33 26.33 0 0 1-1.273 1.236c-.01.01-.02.016-.026.026-.436.435-.355.86-.264 1.15l.016.045c.36.871.867 1.692 1.638 2.67l.005.005c1.4 1.722 2.877 3.064 4.505 4.092.208.132.42.239.624.34.182.091.355.177.502.268.02.01.04.026.06.036.173.086.336.126.503.126.421 0 .685-.263.771-.35l1.735-1.732c.173-.172.446-.38.766-.38.314 0 .573.198.73.37a.967.967 0 0 1 .01.01l2.796 2.792c.522.516.522 1.048.005 1.585zM12.972 5.709a6.436 6.436 0 0 1 3.5 1.813 6.454 6.454 0 0 1 1.816 3.495.68.68 0 0 0 .674.568c.041 0 .077-.005.117-.01a.685.685 0 0 0 .563-.79 7.808 7.808 0 0 0-2.196-4.23 7.827 7.827 0 0 0-4.236-2.193.688.688 0 0 0-.791.557c-.066.37.177.73.553.79zm11.018 4.878a12.847 12.847 0 0 0-3.617-6.965A12.878 12.878 0 0 0 13.398.01a.682.682 0 1 0-.223 1.348c2.363.4 4.52 1.52 6.234 3.226a11.47 11.47 0 0 1 3.231 6.226.68.68 0 0 0 .675.567c.04 0 .076-.005.117-.01a.671.671 0 0 0 .558-.78z"/></symbol><symbol viewBox="0 0 29 32" id="icon-calc" xmlns="http://www.w3.org/2000/svg"><path d="M26.401 0H2.195C1.149 0 .298.85.298 1.894v28.212c0 1.044.85 1.894 1.897 1.894H26.4c1.046 0 1.897-.85 1.897-1.894V1.894A1.896 1.896 0 0 0 26.401 0zM1.815 1.894a.38.38 0 0 1 .38-.379H26.4c.21 0 .38.17.38.38v6.568H1.814V1.894zm7.31 28.59h-6.93a.38.38 0 0 1-.38-.378v-9.119h7.31v9.498zm0-11.012h-7.31V9.979h7.31v9.493zm8.828 11.013h-7.31v-9.498h7.31v9.498zm0-11.013h-7.31V9.979h7.31v9.493zm8.828 10.634a.38.38 0 0 1-.38.379h-6.93V9.979h7.31v20.127zM7.346 13.967H6.23v-1.115a.758.758 0 0 0-1.517 0v1.115H3.595a.758.758 0 1 0 0 1.516h1.117v1.116a.758.758 0 0 0 1.517 0v-1.116h1.117a.758.758 0 1 0 0-1.516zm8.865 0h-3.826a.758.758 0 1 0 0 1.516h3.826a.758.758 0 1 0 0-1.516zm-9.668 11.77l.916-.914a.757.757 0 1 0-1.073-1.072l-.916.915-.916-.915a.757.757 0 1 0-1.073 1.072l.916.915-.916.915a.757.757 0 1 0 1.073 1.071l.916-.915.916.915a.757.757 0 0 0 1.073 0 .757.757 0 0 0 0-1.071l-.916-.915zm9.744-1.985a.76.76 0 0 0-1.073 0l-2.905 2.9a.757.757 0 1 0 1.073 1.072l2.905-2.9a.757.757 0 0 0 0-1.072zm-3.442 1.182a.647.647 0 1 0 .001-1.294.647.647 0 0 0 0 1.294zm2.905 2.9a.647.647 0 1 0 .001-1.293.647.647 0 0 0 0 1.293zm9.293-9.683h-3.879a.758.758 0 1 0 0 1.516h3.878a.758.758 0 1 0 0-1.516zm0 2.645h-3.879a.758.758 0 1 0 0 1.516h3.878a.758.758 0 1 0 0-1.516z"/></symbol><symbol viewBox="0 0 32 32" id="icon-next" xmlns="http://www.w3.org/2000/svg"><path d="M25.457 14.751L10.307.511A1.91 1.91 0 0 0 8.991 0a1.91 1.91 0 0 0-1.317.511L6.558 1.56a1.68 1.68 0 0 0 0 2.475l12.721 11.958L6.544 27.965A1.69 1.69 0 0 0 6 29.202c0 .47.193.909.544 1.239l1.116 1.048c.35.33.818.511 1.316.511a1.91 1.91 0 0 0 1.317-.511l15.164-14.253a1.688 1.688 0 0 0 0-2.485z"/></symbol><symbol viewBox="0 0 32 32" id="icon-prev" xmlns="http://www.w3.org/2000/svg"><path d="M12.72 16.007L25.457 4.035c.351-.329.544-.768.544-1.237 0-.47-.193-.909-.544-1.238L24.34.51A1.909 1.909 0 0 0 23.023 0c-.498 0-.966.182-1.316.511L6.543 14.765c-.352.33-.544.772-.543 1.241-.001.471.191.912.543 1.243l15.15 14.24c.35.33.818.511 1.317.511a1.91 1.91 0 0 0 1.317-.512l1.115-1.048a1.68 1.68 0 0 0 0-2.475L12.721 16.007z"/></symbol><symbol viewBox="0 0 27 44" id="icon-scroll" xmlns="http://www.w3.org/2000/svg"><path fill-rule="evenodd" clip-rule="evenodd" d="M13.5 0C8.814 0 5.17 1.423 2.76 4.306.353 7.187 0 10.55 0 12.283v19.435c0 1.732.352 5.095 2.76 7.976C5.17 42.577 8.815 44 13.5 44s8.33-1.423 10.74-4.306C26.648 36.813 27 33.45 27 31.718V12.282c0-1.731-.352-5.095-2.76-7.976C21.83 1.423 18.185 0 13.5 0zM2.36 12.283c0-.813.131-3.212 1.498-5.437 1.298-2.113 3.75-4.133 8.462-4.422v4.094a3.645 3.645 0 0 0-2.402 3.44v3.766a3.645 3.645 0 0 0 2.402 3.44v5.325c0 .65.519 1.193 1.18 1.193.661 0 1.18-.543 1.18-1.193v-5.325a3.645 3.645 0 0 0 2.402-3.44V9.959a3.645 3.645 0 0 0-2.402-3.44V2.423c4.713.29 7.163 2.309 8.462 4.422 1.367 2.225 1.498 4.624 1.498 5.437v19.435c0 .83-.137 3.315-1.586 5.579-1.425 2.225-4.17 4.316-9.554 4.316-5.385 0-8.129-2.091-9.554-4.316-1.45-2.264-1.586-4.749-1.586-5.58V12.284zm9.918-2.324c0-.703.558-1.257 1.222-1.257.664 0 1.222.554 1.222 1.257v3.765c0 .702-.558 1.257-1.222 1.257-.664 0-1.222-.555-1.222-1.257V9.959z"/></symbol><symbol viewBox="0 0 16 17" id="icon-search" xmlns="http://www.w3.org/2000/svg"><path d="M15.757 15.484l-3.944-4.208a6.949 6.949 0 0 0 1.57-4.412C13.382 3.079 10.38 0 6.69 0 3.001 0 0 3.08 0 6.864s3.002 6.863 6.691 6.863a6.505 6.505 0 0 0 3.834-1.242l3.974 4.24a.856.856 0 0 0 1.234.025.913.913 0 0 0 .024-1.266zM6.69 1.791c2.727 0 4.946 2.275 4.946 5.073 0 2.797-2.219 5.073-4.946 5.073S1.746 9.66 1.746 6.864c0-2.798 2.218-5.073 4.945-5.073z"/></symbol><symbol viewBox="0 0 135 44" id="logotip" xmlns="http://www.w3.org/2000/svg"><path fill-rule="evenodd" clip-rule="evenodd" d="M4.247 15.83c.652-1.029 1.27-2.839 2.127-4.074 2.66-3.844 6.855-6.358 12.089-6.478-.078.927-.206 1.836-.292 2.746-.137 1.518.043 1.364-.49 2.076-1.192 1.604-1.62.703-2.298 3.68 2.453-.797 4.075-.858 6.529.018-.627-5.148-3.115-.747-2.977-8.443 4.718-.549 9.917 3.158 12.25 6.718.867 1.33 1.433 3.123 2.017 4.375.12-3.946-3.947-9.342-8.597-11.29-1.14-.48-4.993-1.467-6.022-1.433-2.574.086-7.07 1.63-9.137 3.415-2.154 1.862-4.702 4.556-5.19 8.674l-.01.017zm125.257-9.24c-1.621-.308-.609-1.183-1.939-1.603-.566.737.764 3.165 1.167 3.672 1.913.274 3.397-1.133 3.492-2.875-1.098-.051-1.115 1.107-2.711.815l-.009-.008zm-19.295 20.428c2.36.961 4.204 5.225 2.9 8.348-1.844.317-2.908-.738-3.483-2.78-.635-2.248.009-3.843.583-5.568zm-.489 8.245c.326.24.172.137.472.429.069.06.301.309.421.42.935.867 1.999 1.184 3.311.704 4.822-1.768.455-17.502-5.019-9.798-.892 1.261-1.364 2.745-1.407 4.59-.017.798.695 11.11.721 11.187 1.716.07 1.75-1.33 1.776-2.968a28.954 28.954 0 0 0-.283-4.564h.008zm-41.377-22.1c.085-3.45 1.467-3.45-.3-3.655-1.57-.18-2.703 1.158-3.158 2.325-.455 1.167-.832 2.848-1.132 4.135l-.455 3.483c-.309.79.197.3-.575.66-.643-.523-.274.112-.506-1.175l-1.519-9.12-2.9-.016c-.411 1.26.73 3.774 1.047 5.284.455 2.197.49 3.75.79 5.877l3.44-.025c-.309 2.256-.712 4.1-.566 6.425 3.157.438 2.488-.471 2.093-2.908-.386-2.35-.257-7.996.592-10.2 1.09-2.832 2.625-1.28 3.157-1.073l-.008-.017zm33.287 1.252c0 7.112-.523 6.58 3.046 6.478l-.258-5.097c2.531.858 2.6 2.54 3.372 5.148l3.011.034c.369-2.436-1.673-4.023-3.354-4.993-.36-.206-.463-.24-.884-.437-.24-.112-.334-.138-.566-.258-.815-.437-.215-.085-.549-.343.6-.952 1.896-2.831 3.02-2.754l1.167.635c.042.026.111.094.18.129l.986-3.226c-3.303-1.124-4.804 3.637-6.383 5.062.112-1.527.549-3.81.189-4.993-3.646-.532-2.985 1.252-2.985 4.624l.008-.009zm-2.119 16.472c.163-1.587.163-5.928 2.291-4.52 1.896 1.243 1.201 2.667 4.813 1.089-.79-1.416.489.128-2.746-1.545-3.869-1.998-7.206.472-7.61 4.9-.446 4.907 3.235 7.48 7.353 6.494 1.862-.446 2.445-.884 2.479-1.956-1.595.051-2.668 1.904-4.701.712-1.15-.67-2.033-2.462-1.707-3.99 1.535-1.527 2.23-.103 3.629.3 1.535.447 3.912-1.707 2.333-1.904-3.5-.446-1.338-1.862-6.134.42zm-16.42-.858c2.35-.3.3-.54 1.14-2.539.412-.978 1.639-1.124 2.952-1.184.017 1.75-.018 3.543-.018 5.302 0 3.98-.695 5.122 1.467 5.225.438.017 1.047-.06 1.399-.103l-.009-10.39c3.758-.077 2.806 1.373 3.02 3.518 1.622.292 1.09-.395 1.87-1.81.206-.378 1.914-2.385-.137-2.711-.231-.035-.626.025-.858.051-2.428.309-3.045.189-5.525.189-1.484 0-6.057-.378-6.863-.069-.275 1.502 1.02 2.763 1.57 4.521h-.009zm-29.942-6.563c.746.172.463.19.652 1.133l2.247 10.621c-.549.695-.883.214-.978 1.484l5.302.086c1.425-.197.712.189.97-.678-.446-.832-.395-.206-1.665-.592l-3.054-14.559 1.467-.188c.06-1.313.103-.352-.386-.85l-7.472-.043.008-14.73c2.042 0 2.934-.12 3.51 1.57.48 1.415.325 2.814 1.578 3.157.626-.978.343-1.828.806-3.115 1.484-4.083.592-2.633-3.449-2.633h-8.75c-3.355-.017-2.609-.987-3.604.085-.703.687.069 1.708.412 2.789.352 1.098.206 2.153.824 2.814 1.295-.31.96-1.913 1.612-3.312.721-1.536 1.57-1.373 3.44-1.347l-.102 14.705c-.678.009-3.492-.077-3.93.034-1.029.258-1.5 1.013 1.116 1.056.008 1.844-.635 2.925-1.493 4.178-1.295 1.896-3.569 4.744-4.187 6.949-.343 1.227-1.14 4.315.42 4.77l3.287-.034c.677-1.896-.43-5.174.077-7.653.454-2.256 1.252-3.792 2.48-5.43l2.479 11.538c-.841.996.97-.72-.506.318-.524.369-.49-.232-.644.79.592.617.3.377 1.484.411h3.75c1.209-.026 1.209-.094 1.535-.412-.206-1.107-.103-.291-1.167-1.055.438-1.93 2.18-10.518 1.94-11.848l-.01-.009zm-.55-1.647L50.18 34.68l-2.96-13.744 5.62-.008-.249.9.008-.008zm62.475-7.481l.403-4.581-2.762.051c-.781 1.622-.438 7.172-.352 9.206.068 1.578.008 2.016 1.673 1.973 2.985-.077.197-3.75 1.055-5.508.729-.67 2.943-2.007 3.801-2.325-.009 1.364-.155 6.366.308 7.224.438.832.773.652 2.857.506.043-1.707-.223-3.638-.274-5.396-.06-1.862.403-3.784.231-5.56-5.756-.635-.042 1.725-6.94 4.427v-.017zm9.428-4.504c-.592 4.298-.257 6.614-.008 11.05l2.848.009-.386-5.405c.858-.618 1.21-.704 1.982-1.236.781-.54 1.107-.84 2.033-1.175-.086 1.553-.523 7.112.712 7.738.241.12 2.651 1.047 2.325-1.655-.489-4.059.163-8.605-.128-9.36l-2.737.008-.172 2.265c-1.244.515-2.642 1.707-3.955 2.29 0-2.453 1.707-5.687-2.514-4.52v-.01zM64.988 33.779c-1.012-2.754.472-4.101 1.87-5.749.961 2.995 2.334 6.152-1.87 5.749zm4.264-8.21l-2.951.102c.06 3.56.797.37-1.382 3.106-.3.369-.377.575-.652.952-.858 1.133-2.153 2.325-2.144 4.255.008 2.068 1.304 3.415 3.423 2.849 1.57-.412 2.153-2.205 2.857-3.57l.857 3.476 3.089-.01c-.429-1.792-1.27-3.628-1.742-5.593-.411-1.716-.858-3.912-1.347-5.568h-.008zm14.121-9.695c2.171.266 3.423 1.81 3.055 4.23l-2.952-.044-.103-4.186zm.18-1.167c-.291-1.502.515-3.715.078-4.968l-2.823.035c-.386 2.977-.249 5.594-.292 8.605l.447 2.42c.84.334 7.97.377 8.905-.138.575-.712.249-5.662-6.323-5.954h.009zM72.4 20.91c.112-2.411-2.419-1.193 1.159-9.026.995 1.553 1.15 6.65 2.754 9.034l2.788.026c.18-1.261-1.193-3.912-1.639-5.396-.352-1.159-1.235-5.13-1.527-5.8l-3.114-.034c.6 3.423-1.742 3.843-3.337 8.047-.18.472-.37.944-.438 1.45-.06.472-.069.515.009.96.102.567.042.327.257.765l3.071-.018.017-.008zm25.232-2.197c-1.2-.471-2.213-1.613-2.754-2.865-.806-1.862-.755-2.677-.377-4.693 2.205.223 2.127 1.373 3.5 2.145.643-.9 1.287-1.313 1.51-2.35-5.757-5.706-8.227 2.993-7.19 6.108.567 1.69 2.257 5.027 4.05 4.538.395-.103 1.235-.67 1.459-.918.343-.386.48-.755.849-1.287.935-1.347 1.69-1.784.111-2.376-.463 1.064-.36.866-1.158 1.698zm-18.78 15.752c-2.17-.678-4.204-4.127-3.08-7.541 2.016.334 1.93 1.304 3.329 2.102l1.587-2.197c-.592-.84-1.416-1.338-2.677-1.835-3.037-1.202-5.447 4.504-4.684 7.335.266 1.004.755 2.084 1.278 2.96 3.243 5.43 6.049-1.468 6.066-1.613.008-.052-.017-.163-.009-.206l-.094-.42c-.052-.018-.146-.01-.172-.01l-.875.507c-.231.266-.36.532-.66.9l-.009.018zm-62.697-1.124c-2.463-1.004 2.316-6.1 4.847-2.617.412.567 1.33 2.154.18 2.609-.043-.043-.094-.172-.103-.138l-.248-.738c-.146-.703-.104-1.973-2.034-2.067-2.737-.137-1.724 1.784-2.642 2.96v-.009zM33.519 19.64c-.918 2.385-.557 4.53-2.462 7.035l-1.235-.498c.197 1.253.437 2.017-.447 2.703l-.051-2.677c-1.913.524-.086.6-2.248 0l.189 2.849c-1.304-.018-1.158.034-1.175-1.382-.009-.823.034-2.145.283-2.66-2.094-.05.403.919-2.892-.137l.19 3.595c-.764-.652-.524-1.424-.49-2.943a3.633 3.633 0 0 0-.729-.454c1.004-.378.703-.223.738-1.596-1.742-.506-6.812-.094-9.051-.215.085 1.399-.129 2.06 1.364 1.93 1.115-.094 1.45-.626 2.299.67-2.076-1.278-1.416-.052-3.655-.738.06 1.081.189 2.531-.111 3.38-.772-.497-.446-2.479-.232-3.603-1.604.343-.935.695-2.102.335-.18-.06.026-.163-.78-.25.205.67.394 3.39-.06 4.067l-.739.018c-.291-.901-.188-1.888 0-2.832-1.853.42-.368.627-2.247-.008l.137 2.642c-.866-.883-.764-1.158-.532-2.65-1.501.42-1.02.934-1.767-.275-1.09-1.768-1.673-4.727-1.888-6.726-.849 8.605 6.16 15.871 14.448 16.017 8.716.146 15.563-6.863 15.245-15.58v-.017zM.24 20.3C.19 31.12 8.88 39.45 19.346 39.02c4.53-.18 7.027-1.458 10.381-3.637 1.004-.652 1.622-1.57 2.437-2.342 3.028-2.874 5.173-8.116 4.761-13.847-1.553 6.469-.85 7.49-5.302 12.251-5.91 6.323-15.082 7.284-22.752 2.677-5.5-3.303-6.88-7.584-8.193-12.706-.026-.095-.095-.36-.129-.446-.335-.944-.069-.283-.309-.66v-.01zm18.532-.454c-1.03-.55-.755-.558-.755-2.008 0-.789-.146-1.827.6-1.999 1.192-.266 1.192 3.115.146 4.007h.008zm-3.38-5.645c.05 1.27.471.48.54 2.29.034 1.021-.026 1.965.043 3.02-1.15.043-.884.412-1.905-.085l-.043 3.5 9.412-.077-.138-3.157-1.947-.163c.06-2.094-.275-3.27.454-4.78l.19-.35c-1.63-1.262-4.78-1.056-6.607-.198zm20.504.351c.583 0 .394.13.42-.531C33.46 2.104 18.214-4.931 6.615 4.849 4.35 6.754 1.287 10.623.798 15.3c.935-1.416 1.561-5.49 6.1-9.103 3.011-2.402 6.1-4.066 11.11-4.29 4.607-.205 8.7 1.57 11.608 3.552L31.563 7.2c1.519 1.501 4.187 5.062 4.341 7.353h-.008z"/><path fill-rule="evenodd" clip-rule="evenodd" d="M4.247 15.83c.652-1.029 1.27-2.839 2.127-4.074 2.66-3.844 6.855-6.358 12.089-6.478-.078.927-.206 1.836-.292 2.746-.137 1.518.043 1.364-.49 2.076-1.192 1.604-1.62.703-2.298 3.68 2.453-.797 4.075-.857 6.529.018-.627-5.148-3.115-.747-2.977-8.442 4.718-.55 9.917 3.157 12.25 6.717.867 1.33 1.433 3.123 2.017 4.376.12-3.947-3.947-9.343-8.597-11.29-1.14-.481-4.993-1.468-6.022-1.434-2.574.086-7.07 1.63-9.137 3.415-2.154 1.862-4.702 4.556-5.19 8.674l-.01.017zm125.257-9.239c-1.621-.309-.609-1.184-1.939-1.604-.566.737.764 3.165 1.167 3.672 1.913.274 3.397-1.133 3.492-2.874-1.098-.052-1.115 1.106-2.711.815l-.009-.009zm-19.295 20.427c2.36.961 4.204 5.225 2.9 8.348-1.844.317-2.908-.738-3.483-2.78-.635-2.248.009-3.843.583-5.568zm-.489 8.245c.326.24.172.137.472.429.069.06.3.309.421.42.935.867 1.999 1.184 3.311.704 4.822-1.768.455-17.502-5.019-9.798-.892 1.261-1.364 2.746-1.407 4.59-.017.798.695 11.11.721 11.187 1.716.07 1.75-1.33 1.776-2.968a28.953 28.953 0 0 0-.283-4.564h.008zm-41.377-22.1c.085-3.45 1.467-3.45-.3-3.655-1.57-.18-2.703 1.158-3.158 2.325-.455 1.167-.832 2.848-1.132 4.135l-.455 3.483c-.309.79.197.3-.575.66-.643-.522-.274.112-.506-1.175l-1.519-9.12-2.9-.016c-.411 1.26.73 3.774 1.047 5.284.455 2.197.49 3.75.79 5.877l3.44-.025c-.309 2.256-.712 4.1-.566 6.425 3.157.438 2.488-.471 2.093-2.908-.386-2.35-.257-7.996.592-10.2 1.09-2.832 2.625-1.28 3.157-1.073l-.008-.017zm33.287 1.252c0 7.113-.523 6.58 3.046 6.478l-.258-5.097c2.531.858 2.6 2.54 3.372 5.148l3.011.034c.369-2.436-1.673-4.023-3.354-4.993-.36-.206-.463-.24-.884-.437-.24-.112-.334-.137-.566-.258-.815-.437-.215-.085-.549-.343.6-.952 1.896-2.831 3.02-2.754l1.167.635c.042.026.111.095.18.129l.986-3.226c-3.303-1.124-4.804 3.638-6.383 5.062.112-1.527.549-3.81.189-4.993-3.646-.532-2.985 1.252-2.985 4.624l.008-.009zm-2.119 16.473c.163-1.588.163-5.929 2.291-4.522 1.896 1.244 1.201 2.668 4.813 1.09-.79-1.416.489.128-2.746-1.544-3.869-2-7.206.471-7.61 4.898-.446 4.908 3.235 7.481 7.353 6.495 1.862-.446 2.445-.884 2.479-1.956-1.595.051-2.668 1.904-4.701.712-1.15-.67-2.033-2.462-1.707-3.99 1.535-1.527 2.23-.102 3.629.3 1.535.447 3.912-1.707 2.333-1.904-3.5-.446-1.338-1.862-6.134.42zm-16.42-.859c2.35-.3.3-.54 1.14-2.539.412-.978 1.639-1.124 2.952-1.184.017 1.75-.018 3.543-.018 5.302 0 3.98-.695 5.122 1.467 5.225.438.017 1.047-.06 1.399-.103l-.009-10.39c3.758-.077 2.806 1.373 3.02 3.518 1.622.292 1.09-.395 1.87-1.81.206-.378 1.914-2.385-.137-2.711-.231-.035-.626.025-.858.051-2.428.309-3.045.189-5.525.189-1.484 0-6.057-.378-6.863-.069-.275 1.502 1.02 2.763 1.57 4.521h-.009zm-29.942-6.563c.746.172.463.19.652 1.133l2.247 10.621c-.549.695-.883.215-.978 1.484l5.302.086c1.425-.197.712.189.97-.678-.446-.832-.395-.206-1.665-.592l-3.054-14.559 1.467-.188c.06-1.313.103-.352-.386-.85l-7.472-.043.008-14.73c2.042 0 2.934-.12 3.51 1.57.48 1.415.325 2.814 1.578 3.157.626-.978.343-1.828.806-3.114 1.484-4.084.592-2.634-3.449-2.634h-8.75c-3.355-.017-2.609-.987-3.604.086-.703.686.069 1.707.412 2.788.352 1.098.206 2.153.824 2.814 1.295-.31.96-1.913 1.612-3.312.721-1.536 1.57-1.373 3.44-1.347l-.102 14.705c-.678.009-3.492-.077-3.93.034-1.029.258-1.5 1.013 1.116 1.056.008 1.844-.635 2.925-1.493 4.178-1.295 1.896-3.569 4.744-4.187 6.949-.343 1.227-1.14 4.315.42 4.77l3.287-.034c.677-1.896-.43-5.174.077-7.653.454-2.256 1.252-3.792 2.48-5.43l2.479 11.539c-.841.995.97-.721-.506.317-.524.369-.49-.232-.644.79.592.617.3.377 1.484.411h3.75c1.209-.026 1.209-.094 1.535-.412-.206-1.106-.103-.291-1.167-1.055.438-1.93 2.18-10.518 1.94-11.848l-.01-.009zm-.54-1.638l-2.42 12.86-2.96-13.744 5.62-.008-.25.9.01-.008zm62.465-7.473l.403-4.581-2.762.051c-.781 1.622-.438 7.173-.352 9.206.068 1.579.008 2.016 1.673 1.973 2.985-.077.197-3.749 1.055-5.508.729-.669 2.943-2.007 3.801-2.325-.009 1.364-.155 6.366.308 7.224.438.832.773.652 2.857.506.043-1.707-.223-3.637-.274-5.396-.06-1.862.403-3.784.231-5.56-5.756-.634-.042 1.725-6.94 4.427v-.017zm9.428-4.504c-.592 4.298-.257 6.615-.008 11.05l2.848.009-.386-5.405c.858-.618 1.21-.704 1.982-1.236.781-.54 1.107-.84 2.033-1.175-.086 1.553-.523 7.112.712 7.739.241.12 2.651 1.046 2.325-1.656-.489-4.058.163-8.605-.128-9.36l-2.737.008-.172 2.265c-1.244.515-2.642 1.708-3.955 2.29 0-2.453 1.707-5.687-2.514-4.52v-.01zM64.988 33.796c-1.012-2.754.472-4.101 1.87-5.748.961 2.994 2.334 6.151-1.87 5.748zm4.264-8.21l-2.951.102c.06 3.56.797.37-1.382 3.106-.3.369-.377.575-.652.952-.858 1.133-2.153 2.325-2.144 4.256.008 2.067 1.304 3.414 3.423 2.848 1.57-.412 2.153-2.205 2.857-3.569l.857 3.475 3.089-.009c-.429-1.793-1.27-3.629-1.742-5.594-.411-1.715-.858-3.912-1.347-5.567h-.008zm14.121-9.695c2.171.266 3.423 1.81 3.055 4.23l-2.952-.043-.103-4.187zm.18-1.167c-.291-1.501.515-3.715.078-4.967l-2.823.034c-.386 2.977-.249 5.594-.292 8.605l.447 2.42c.84.334 7.97.377 8.905-.138.575-.712.249-5.662-6.323-5.954h.009zM72.4 20.927c.112-2.41-2.419-1.193 1.159-9.025.995 1.552 1.15 6.649 2.754 9.034l2.788.025c.18-1.26-1.193-3.912-1.639-5.396-.352-1.158-1.235-5.13-1.527-5.8l-3.114-.034c.6 3.423-1.742 3.844-3.337 8.047-.18.472-.37.944-.438 1.45-.06.472-.069.515.009.961.102.566.042.326.257.764l3.071-.017.017-.01zm25.232-2.196c-1.2-.472-2.213-1.613-2.754-2.866-.806-1.861-.755-2.677-.377-4.693 2.205.223 2.127 1.373 3.5 2.145.643-.9 1.287-1.313 1.51-2.35-5.757-5.706-8.227 2.994-7.19 6.108.567 1.69 2.257 5.027 4.05 4.538.395-.103 1.235-.669 1.459-.918.343-.386.48-.755.849-1.287.935-1.347 1.69-1.784.111-2.376-.463 1.064-.36.866-1.158 1.699zm-18.78 15.751c-2.17-.678-4.204-4.126-3.08-7.541 2.016.335 1.93 1.304 3.329 2.102l1.587-2.196c-.592-.841-1.416-1.339-2.677-1.836-3.037-1.201-5.447 4.504-4.684 7.335.266 1.004.755 2.085 1.278 2.96 3.243 5.43 6.049-1.467 6.066-1.613.008-.052-.017-.163-.009-.206l-.094-.42c-.052-.018-.146-.009-.172-.009l-.875.506c-.231.266-.36.532-.66.901l-.009.017zm-62.697-1.124c-2.463-1.003 2.316-6.1 4.847-2.616.412.566 1.33 2.153.18 2.608-.043-.043-.094-.172-.103-.138l-.248-.737c-.146-.704-.104-1.974-2.034-2.068-2.737-.137-1.724 1.784-2.642 2.96v-.009zm17.364-13.7c-.918 2.384-.557 4.53-2.462 7.034l-1.235-.497c.197 1.252.437 2.016-.447 2.702l-.051-2.677c-1.913.524-.086.6-2.248 0l.189 2.849c-1.304-.017-1.158.034-1.175-1.382-.009-.823.034-2.144.283-2.66-2.094-.05.403.919-2.892-.136l.19 3.594c-.764-.652-.524-1.424-.49-2.942a3.633 3.633 0 0 0-.729-.455c1.004-.378.703-.223.738-1.596-1.742-.506-6.812-.094-9.051-.214.085 1.398-.129 2.059 1.364 1.93 1.115-.094 1.45-.626 2.299.67-2.076-1.28-1.416-.052-3.655-.739.06 1.081.189 2.531-.111 3.38-.772-.497-.446-2.479-.232-3.603-1.604.343-.935.695-2.102.335-.18-.06.026-.163-.78-.249.205.67.394 3.389-.06 4.067l-.739.017c-.291-.901-.188-1.888 0-2.831-1.853.42-.368.626-2.247-.009l.137 2.643c-.866-.884-.764-1.159-.532-2.651-1.501.42-1.02.935-1.767-.275-1.09-1.767-1.673-4.727-1.888-6.726-.849 8.605 6.16 15.872 14.448 16.017 8.716.146 15.563-6.863 15.245-15.58v-.017zm-33.279.66c-.05 10.818 8.64 19.149 19.106 18.72 4.53-.18 7.027-1.459 10.381-3.638 1.004-.652 1.622-1.57 2.437-2.342 3.028-2.874 5.173-8.116 4.761-13.847-1.553 6.469-.85 7.49-5.302 12.251-5.91 6.323-15.082 7.284-22.752 2.677-5.5-3.303-6.88-7.584-8.193-12.706-.026-.094-.095-.36-.129-.446-.335-.944-.069-.283-.309-.66v-.01zm18.532-.455c-1.03-.549-.755-.558-.755-2.007 0-.79-.146-1.828.6-2 1.192-.265 1.192 3.115.146 4.007h.008zm-3.38-5.645c.05 1.27.471.48.54 2.29.034 1.021-.026 1.965.043 3.02-1.15.043-.884.412-1.905-.085l-.043 3.5 9.412-.077-.138-3.157-1.947-.163c.06-2.094-.275-3.269.454-4.779l.19-.352c-1.63-1.26-4.78-1.055-6.607-.197zm20.504.352c.583 0 .394.128.42-.532C33.46 2.12 18.214-4.914 6.615 4.867 4.35 6.77 1.287 10.64.798 15.317c.935-1.417 1.561-5.492 6.1-9.104 3.011-2.402 6.1-4.066 11.11-4.29 4.607-.205 8.7 1.57 11.608 3.553l1.947 1.741c1.519 1.502 4.187 5.062 4.341 7.353h-.008z" stroke="#fff" stroke-width=".5"/></symbol><symbol viewBox="0 0 12 12" id="modal-close" xmlns="http://www.w3.org/2000/svg"><path d="M11.414 2.414a1.414 1.414 0 1 0-2-2l-3.5 3.5-3.5-3.5a1.414 1.414 0 1 0-2 2l3.5 3.5-3.5 3.5a1.414 1.414 0 0 0 2 2l3.5-3.5 3.5 3.5a1.414 1.414 0 1 0 2-2l-3.5-3.5 3.5-3.5z"/></symbol><symbol viewBox="0 0 7 4" id="navbar-dropdown" xmlns="http://www.w3.org/2000/svg"><path d="M3.5 4a.488.488 0 0 1-.347-.144L.143.84a.492.492 0 0 1 0-.695.49.49 0 0 1 .694 0L3.5 2.814 6.163.144a.49.49 0 0 1 .693 0 .492.492 0 0 1 0 .695l-3.01 3.017A.488.488 0 0 1 3.5 4z"/></symbol><symbol viewBox="0 0 11 17" id="pagin-next" xmlns="http://www.w3.org/2000/svg"><path fill-rule="evenodd" clip-rule="evenodd" d="M.9.98A1.5 1.5 0 0 0 .98 3.1l5.816 5.4-5.817 5.4a1.5 1.5 0 0 0 2.042 2.2l7-6.5a1.5 1.5 0 0 0 0-2.2l-7-6.5A1.5 1.5 0 0 0 .9.98z"/></symbol><symbol viewBox="0 0 11 17" id="pagin-prev" xmlns="http://www.w3.org/2000/svg"><path fill-rule="evenodd" clip-rule="evenodd" d="M10.1.98a1.5 1.5 0 0 1-.08 2.12L4.205 8.5l5.817 5.4a1.5 1.5 0 0 1-2.042 2.2l-7-6.5a1.5 1.5 0 0 1 0-2.2l7-6.5a1.5 1.5 0 0 1 2.12.08z"/></symbol><symbol viewBox="0 0 59 58" id="soc-fb" xmlns="http://www.w3.org/2000/svg"><path d="M58.989 5a5 5 0 0 0-5-5H5.931a5 5 0 0 0-5 5v48a5 5 0 0 0 5 5h16.612V36.676h-4.536v-7.35h4.536v-4.424c0-3.14.765-5.517 2.294-7.13 1.53-1.613 4.047-2.42 7.551-2.42h6.057v7.35h-3.789c-.694 0-1.25.056-1.668.168-.417.113-.72.315-.907.608a2.44 2.44 0 0 0-.36.893c-.053.303-.08.73-.08 1.281v3.674h6.857l-.8 7.35H31.64V58h22.35a5 5 0 0 0 5-5V5z"/></symbol><symbol viewBox="0 0 59 58" id="soc-inst" xmlns="http://www.w3.org/2000/svg"><path d="M34.47 19.614c0-.676.552-1.228 1.229-1.228h3.088c.677 0 1.23.552 1.23 1.228v2.941c0 .676-.553 1.23-1.23 1.23h-3.088c-.677 0-1.23-.554-1.23-1.23v-2.94zm3.155 7.281h2.405v11.53c0 .597-.488 1.085-1.086 1.085H19.918a1.09 1.09 0 0 1-1.086-1.085v-11.53h2.51a7.964 7.964 0 0 0-.351 2.342c0 4.54 3.802 8.22 8.492 8.22 4.69 0 8.493-3.68 8.493-8.22 0-.813-.123-1.6-.35-2.342zm-13.63 2.046c0-2.934 2.457-5.312 5.488-5.312 3.03 0 5.487 2.378 5.487 5.312s-2.457 5.31-5.487 5.31c-3.03 0-5.487-2.376-5.487-5.31z"/><path fill-rule="evenodd" clip-rule="evenodd" d="M58.486 5a5 5 0 0 0-5-5H5.428a5 5 0 0 0-5 5v48a5 5 0 0 0 5 5h48.058a5 5 0 0 0 5-5V5zM39.611 15.353H19.303c-1.93 0-3.507 1.427-3.507 3.503v20.288c0 2.076 1.578 3.503 3.507 3.503H39.61c1.929 0 3.507-1.427 3.507-3.503V18.856c0-2.076-1.578-3.503-3.507-3.503z"/></symbol><symbol viewBox="0 0 59 58" id="soc-ok" xmlns="http://www.w3.org/2000/svg"><path d="M29.03 16.352a4.206 4.206 0 0 1 4.22 4.216 4.197 4.197 0 0 1-4.198 4.235 4.206 4.206 0 0 1-4.251-4.184 4.211 4.211 0 0 1 4.23-4.267z"/><path fill-rule="evenodd" clip-rule="evenodd" d="M0 5a5 5 0 0 1 5-5h48.059a5 5 0 0 1 5 5v48a5 5 0 0 1-5 5H5a5 5 0 0 1-5-5V5zm27.35 30.973c-2.646-.276-5.031-.927-7.074-2.525l-.148-.116a7.272 7.272 0 0 1-.598-.495c-.894-.86-.984-1.842-.276-2.855.605-.867 1.62-1.099 2.676-.601.205.096.4.217.586.346 3.806 2.615 9.034 2.687 12.855.118.378-.29.783-.527 1.252-.648.911-.234 1.762.101 2.25.898.56.912.553 1.8-.136 2.508-1.056 1.084-2.327 1.868-3.739 2.415-1.335.518-2.797.778-4.244.951l.146.16.026.028c.112.122.191.209.286.304l2.16 2.165a1203 1203 0 0 1 3.737 3.755c.667.674.807 1.51.44 2.295-.402.857-1.302 1.422-2.183 1.361-.559-.038-.995-.316-1.382-.706-.422-.426-.847-.848-1.273-1.271l-.188-.188-.048-.047c-.988-.982-1.975-1.963-2.937-2.97-.423-.442-.626-.359-1 .025a299.64 299.64 0 0 1-4.532 4.55c-.685.675-1.5.797-2.294.411-.844-.409-1.381-1.27-1.34-2.136.029-.586.317-1.033.719-1.434 1.508-1.506 3.012-3.014 4.517-4.523l1.306-1.309c.08-.08.156-.163.247-.262l.188-.204zM20.4 20.556c-.028 4.726 3.841 8.638 8.561 8.654 4.767.017 8.664-3.806 8.689-8.522.023-4.828-3.81-8.734-8.585-8.747-4.766-.013-8.639 3.838-8.666 8.615z"/></symbol><symbol viewBox="0 0 59 58" id="soc-vk" xmlns="http://www.w3.org/2000/svg"><path fill-rule="evenodd" clip-rule="evenodd" d="M58.059 5a5 5 0 0 0-5-5H5a5 5 0 0 0-5 5v48a5 5 0 0 0 5 5h48.059a5 5 0 0 0 5-5V5zM47.47 38.611c.043.069.086.15.136.246.043.103.093.273.136.526.05.246.05.464-.007.663-.05.198-.222.375-.509.54-.28.164-.688.245-1.204.245l-5.237.076c-.33.068-.71.034-1.146-.096-.437-.13-.796-.273-1.068-.43l-.408-.233c-.409-.273-.889-.69-1.433-1.25a30.38 30.38 0 0 1-1.404-1.51 6.566 6.566 0 0 0-1.247-1.134c-.444-.3-.824-.403-1.154-.3a.944.944 0 0 0-.164.068c-.072.026-.187.122-.351.28a2.712 2.712 0 0 0-.437.574c-.137.225-.251.56-.352 1.01a5.83 5.83 0 0 0-.136 1.51c0 .2-.021.377-.071.54a1.077 1.077 0 0 1-.15.363l-.08.095c-.243.247-.601.39-1.081.43h-2.35a9.656 9.656 0 0 1-2.988-.32c-1.017-.267-1.913-.608-2.687-1.032a25.604 25.604 0 0 1-2.106-1.291c-.63-.438-1.11-.806-1.44-1.121l-.51-.472a11.963 11.963 0 0 1-.565-.587c-.236-.26-.724-.854-1.462-1.777a48.382 48.382 0 0 1-2.17-2.944c-.71-1.039-1.548-2.406-2.508-4.113a56.894 56.894 0 0 1-2.658-5.33 1.544 1.544 0 0 1-.122-.526c0-.143.021-.246.065-.314l.078-.117c.208-.245.595-.369 1.168-.369l5.603-.04c.165.027.322.068.473.13.15.054.265.109.33.164l.1.061c.222.143.387.348.494.622.272.655.58 1.325.939 2.022.35.697.63 1.23.838 1.592l.33.567c.393.779.78 1.455 1.146 2.03.372.573.702 1.018.996 1.338.286.322.573.568.845.752.272.185.502.274.695.274.193 0 .372-.034.552-.096a.317.317 0 0 0 .1-.096c.036-.055.122-.198.244-.43.129-.233.215-.54.279-.916.057-.375.122-.902.194-1.578.027-.29.043-.43.047-.57.005-.185-.01-.371-.047-.913a9.076 9.076 0 0 0-.187-1.42c-.093-.425-.193-.726-.286-.896l-.122-.233c-.344-.444-.924-.724-1.741-.84-.18-.027-.143-.184.1-.472a2.61 2.61 0 0 1 .774-.587c.723-.341 2.35-.499 4.886-.471 1.118.013 2.035.096 2.759.253.272.068.501.157.687.266a1.1 1.1 0 0 1 .423.471c.093.198.165.41.215.622.05.219.072.513.072.888 0 .376-.008.738-.022 1.073-.006.145-.012.133-.02.122-.008-.017-.018-.034-.03.295a43.507 43.507 0 0 0-.029 1.612c0 .144-.007.418-.021.82l-.003.136c-.006.339-.01.607-.004.8a7.4 7.4 0 0 0 .071.793c.043.3.122.553.237.759.114.205.265.361.458.478.094.017.188.037.286.06l.065.015c.122.027.301-.04.53-.212a6.33 6.33 0 0 0 .782-.67c.286-.28.637-.71 1.06-1.305.423-.594.888-1.29 1.39-2.097a31.108 31.108 0 0 0 2.192-4.386c.05-.13.122-.247.2-.343a.881.881 0 0 1 .223-.204l.079-.062.1-.048.265-.061c.18-.034.315-.041.408-.007l5.89-.04c.53-.07.967-.05 1.31.047.338.096.553.205.631.321l.122.191c.316.827-.709 2.74-3.066 5.733-.33.417-.774.97-1.333 1.66-1.06 1.298-1.676 2.153-1.841 2.556-.23.533-.136 1.058.286 1.578.23.273.781.806 1.655 1.599h.022l.021.02.022.02.043.042c1.92 1.7 3.224 3.143 3.905 4.311z"/></symbol><symbol viewBox="0 0 44 44" id="view" xmlns="http://www.w3.org/2000/svg"><path fill-rule="evenodd" clip-rule="evenodd" d="M43 22c0 11.598-9.402 21-21 21S1 33.598 1 22 10.402 1 22 1s21 9.402 21 21zm1 0c0 12.15-9.85 22-22 22S0 34.15 0 22 9.85 0 22 0s22 9.85 22 22zm-4.968 0c0 9.407-7.625 17.032-17.032 17.032S4.968 31.407 4.968 22 12.593 4.968 22 4.968 39.032 12.593 39.032 22zm-11.443.798h-4.79v4.79a.798.798 0 1 1-1.597 0v-4.79h-4.79a.798.798 0 1 1 0-1.597h4.79v-4.79a.798.798 0 0 1 1.596 0v4.79h4.79a.799.799 0 0 1 0 1.597z"/></symbol></svg>