<svg version="1" xmlns="http://www.w3.org/2000/svg" width="1386.667" height="1386.667" viewBox="0 0 1040.000000 1040.000000"><path d="M493.8.5c-.2.2-4.3.6-9.3.9-4.9.4-10.6.8-12.5 1-1.9.3-6.6.7-10.4 1-3.8.4-7.1.8-7.5 1-.3.2-3.5.7-7 1-3.6.4-6.7.9-7.1 1.1-.3.2-2.4.6-4.6.9-3.5.4-9.1 1.5-16.4 3.1-1.4.3-3.6.7-5 1-1.4.3-3.5.7-4.7 1-1.3.3-3.2.7-4.4 1-1.1.2-2.8.6-3.7.9-.9.3-2.8.7-4.2 1-1.4.2-4.7 1.2-7.5 2.1-2.7.9-6.1 1.8-7.5 2.1-1.4.3-6.1 1.7-10.5 3.2-4.4 1.4-8.2 2.7-8.5 2.7-1.8.3-8.7 2.9-9.5 3.6-.5.5-1.5.9-2.3.9-1.2 0-9.3 3-17.7 6.5-1.6.7-6.6 2.8-11 4.6-4.4 1.9-8.1 3.7-8.3 4.1-.2.5-.9.8-1.5.8-1.6 0-28 13.2-28.9 14.5-.5.7-.8.7-.8 0s-.3-.7-.8 0c-.9 1.2-6.1 4.4-8.4 5.2-1 .3-1.8 1-1.8 1.5s-.4.7-.9.3c-.5-.3-1.6.1-2.3.8-1.1 1.2-8.4 5.8-17.3 11-1.1.7-2.2 1.4-2.5 1.7-.9 1-11 8-11.5 8-.9 0-31.1 23.1-32.5 24.9-.3.3-3.2 2.8-6.5 5.6-8 6.6-14.8 12.9-26.9 25.1-8.5 8.5-12.9 13.2-24.3 25.8-.6.7-3.5 4.2-6.4 7.7-2.9 3.5-5.7 6.5-6.1 6.7-.4.2-.8 1-.8 1.7s-.4 1.5-.8 1.7c-2.2.8-31.2 42-32.9 46.6-.4.9-.9 1.9-1.3 2.2-3.4 2.6-28.7 52.5-34.5 68-1 2.5-2.4 5.9-3.1 7.7-1.5 3.4-8.4 22.1-8.8 23.8-.5 2-5.7 19.1-6.7 21.5-.5 1.4-1.1 3.6-1.3 5-.3 1.4-.5 2.5-.6 2.5-.2 0-.5 1.4-1.4 5.3-.3 1.3-.7 3.1-1 4-.3.9-.7 2.8-1 4.2-.3 1.4-1.9 9.1-3.5 17.1-1.7 8-3.3 16.8-3.7 19.5-.3 2.7-1 5.4-1.4 5.9-.5.6-.5 1.7 0 2.5s.6 1.8.3 2.4c-.4.5-.7 2.1-.9 3.5-.1 1.4-.3 2.6-.4 2.6-.1 0-.5 3.7-1.4 16-.4 4.9-.9 10.1-1.2 11.5-.2 1.4-.6 5-.9 8.1-.3 3.1-.7 6.5-.9 7.5-.2 1.1-.7 4.4-1 7.4-.4 3-.9 7.3-1.1 9.5-1.4 11.8-2 26.7-2 50 0 22.6.3 30 2 48.5.3 3.7 1.2 11.4 2.2 19 .3 2.5.7 5.4.8 6.5 0 1.1.4 2.9.8 4s.9 4 1.2 6.5c.3 2.5 1 6.7 1.6 9.5.9 4.4 1.7 8.6 2.3 12 .1.5.5 1.6 1 2.3.4.7.6 1.6.3 1.8-.3.3-.1 2 .4 3.7 1 3.1 1.4 4.9 2.3 9.5.3 1.2.7 2.6 1 3 .3.5.7 1.9 1 3.3.3 1.3 1.3 5.4 2.4 9.1 1.1 3.7 1.7 7 1.4 7.3-.3.3.1.5.8.5.7 0 1 .3.7.6-.3.4-.2 1.5.4 2.6.6 1.1 1.2 2.7 1.4 3.7.4 2.2 5.3 16.7 7 20.6.7 1.6 1.8 4.6 2.6 6.5 5.5 14.9 19.3 44.5 27.9 59.5 2.5 4.4 5.2 9.3 6 11 .8 1.6 1.8 3.2 2.1 3.5.3.3 3.7 5.7 7.6 12 4 6.3 7.9 12.4 8.7 13.5.9 1.1 4.2 5.7 7.3 10.1 8.4 11.8 25.4 33 34.2 42.8 13.8 15.2 39.9 40.1 53.1 50.6 3.6 2.9 6.7 5.5 7 5.8 1.1 1.5 9 7.2 9.9 7.2.5 0 1.1.4 1.3.9.7 1.9 37.6 27.1 39.7 27.1.6 0 1.1.4 1.1 1 0 .5.4 1 .9 1s3.1 1.3 5.8 2.9c7.8 4.7 13.5 7.9 17.6 9.8 2 1 3.7 2.1 3.7 2.5 0 .5.5.8 1 .8 1.5 0 10.5 4.3 10.8 5.2.2.4.8.8 1.3.8.4 0 3.2 1.1 6.1 2.4 4.6 2.1 12.8 5.6 23.3 10.1 9.6 4.1 33.5 12.5 33.5 11.8 0-.3.7.1 1.7.8.9.8 1.9 1.3 2.2 1.3.7-.2.9-.1 6.6 1.7 2.2.7 4.5 1.4 5 1.5.6.1 3.7.9 7 1.8s6.9 1.9 8 2.1c1.1.3 2.9.7 4 1 7.3 1.7 16.3 3.7 18 4 3.3.6 7.8 1.5 10.5 2 5.2 1.1 7.5 1.5 11.4 2.1 2.2.3 4.3.7 4.6.9.3.1 3.7.6 7.5 1 3.9.3 8.5.8 10.3 1.1 1.7.2 4.7.6 6.5.8 14.5 2 69 2.8 85.7 1.3 4.7-.5 10.8-1 13.5-1.2 8.4-.6 33-4 36.5-5 .8-.2 3.3-.7 5.5-1 4.7-.6 6.2-.9 13-2.5 2.8-.6 5.9-1.3 7-1.6 1.1-.2 3.2-.6 4.7-1 1.5-.3 2.9-.5 3-.4.2.1 1.5-.3 3.1-.9 1.5-.6 3.8-1.3 5-1.5 12.4-2.6 46.7-14.2 66.2-22.6 15.9-6.8 16.5-7 16.8-6.8.2.2 1.1-.5 2.1-1.4 1-1 2.5-1.8 3.3-1.8.9 0 2.4-.7 3.4-1.6.9-.8 2.4-1.6 3.1-1.8 1.5-.2 27.6-14.2 33.8-18.1 42-26.5 65-44.6 95.5-75 14-14 22.9-23.5 28.5-30.4 1.9-2.4 5.2-6.4 7.3-8.9 2.2-2.5 5.7-7 8-10.1 2.2-3.1 4.4-5.8 4.9-5.9.4-.2.8-1 .8-1.8s.5-1.4 1-1.4c.6 0 1-.7 1-1.6 0-.8.5-1.2 1-.9.6.3 1 .2 1-.4 0-1.1 7.4-12.4 10.2-15.5.9-1 2.2-3.1 2.8-4.7.7-1.6 1.6-2.9 2.1-2.9s.9-.7.9-1.5.5-1.5 1.2-1.5c.6 0 .9-.3.6-.6-.5-.5 2.4-5.6 5-8.9.4-.6 2.7-4.6 5.1-9 2.5-4.4 5.3-9.5 6.3-11.4 4.5-7.9 13.2-25.8 13.5-27.5.2-1.1 1-2.7 1.8-3.6.8-.9 1.5-2.2 1.5-2.8 0-.7 1.3-4 2.9-7.4 3.2-6.7 4.6-10.4 12.3-32.3 2.8-7.7 5.1-14.9 5.2-16.1.1-1.1.5-2.4.8-3 .8-1.3 4-12.5 4.1-14.7.1-.9.6-1.7 1.1-1.7.5 0 .7-.3.4-.6-.3-.3 0-2.9.8-5.7.8-2.9 1.6-6.3 1.9-7.7.3-1.4.7-3.6 1-5 1.2-5.2 4.4-22.1 5-25.8.3-2.1.7-4.7.9-5.8.9-4.4 2.3-16.1 3-24.9.3-3.3.9-8.9 1.3-12.5 1.1-8.7 1-64-.1-76-.4-5.2-.9-10.9-1-12.5-.4-4.5-1.8-15.7-2.2-18-.9-4.6-1.4-9.4-1.8-15.5-.4-5.9-1-11.6-2.1-22-.3-3.2-.8-7-2-14.5-.3-1.7-.7-5-1-7.5-.6-5-1.2-8.2-2.1-12-.3-1.4-.7-3.6-.9-5-.6-3.2-3.1-14.8-3.5-16-.1-.3-.3-1-.4-1.5-.1-.6-.5-2.4-.9-4-1.9-7.6-3-13.6-3.1-16.2 0-1.2-.4-1.9-.8-1.7-.4.3-.9 0-.9-.5-.2-1.3-.4-2.1-1.1-4.1-.3-.8-2.9-8.7-5.8-17.5s-6-17.8-7-20c-1-2.2-2.7-6.5-3.8-9.5-1.1-3-2.7-6.9-3.5-8.5-2.1-4.1-6-13-5.9-13.2 0-.1-3.2-6.7-7.2-14.5-8.3-16.2-18.1-33.2-26.7-46.1-3.3-4.8-5.9-9.2-5.9-9.6 0-.5-.4-1.1-.8-1.3-.5-.2-2.8-3.2-5.3-6.7-4.3-6.4-5.7-8.2-9.9-13.1-1.2-1.4-2.9-3.7-3.8-5.3-.9-1.5-2-2.7-2.5-2.7-.4 0-.5-.5-.2-1 .3-.6.2-1-.3-1s-3.8-3.5-7.3-7.7c-9.4-11.4-12.9-15.2-28.5-30.7-14.4-14.4-16.8-16.7-28.9-27.1-3.8-3.3-7.2-6.2-7.5-6.5-.3-.3-2.3-1.8-4.5-3.4-2.2-1.6-4.7-3.7-5.6-4.5-.9-.9-2.7-2.3-3.9-3.1-1.3-.8-3.5-2.5-5-3.8-1.5-1.2-3-2.2-3.3-2.2-.3 0-1.8-1.1-3.3-2.5-1.5-1.4-3.3-2.5-4-2.5-.7 0-1.4-.4-1.6-.9-.4-1-22.3-15.5-28.8-19-2.5-1.3-7.3-4.1-10.8-6.2-5.6-3.4-42.4-21.9-43.5-21.9-.3 0-2.2-.8-4.3-1.7-2.2-.9-4.1-1.7-4.4-1.8-.3-.1-1.8-.7-3.5-1.4-10.4-4.5-41.2-15.2-47.5-16.6-.8-.2-4.2-1.1-7.5-2-7.1-2-21.1-5.5-24.2-6-1.1-.1-2.9-.6-4-.9-1-.3-3.4-.8-5.3-1.1-1.9-.3-8.4-1.5-14.5-2.5-6-1-13.4-2.2-16.4-2.5-3-.4-6.1-.8-7-1-.9-.1-4.7-.6-8.6-.9-3.8-.4-9.2-1-12-1.2-5.4-.6-63.2-1.3-63.7-.9zm7.6 11.3c.2.4-.5.9-1.7.9-1.7.2-1.9 0-.7-.7 1.8-1.2 1.8-1.2 2.4-.2zm23.6-.4c0 .3-.4.8-1 1.1-.5.3-1 .1-1-.4 0-.6.5-1.1 1-1.1.6 0 1 .2 1 .4zm16 .7c0 .4-.9.7-1.9.6-1.1 0-1.8-.4-1.6-.7.6-.9 3.5-.8 3.5.1zm-52 .3c0 .2-.9.6-2 .9-1.1.3-1.8.1-1.4-.4.5-.9 3.4-1.3 3.4-.5zm67.4.4c.3.5-.1.9-.9.9s-1.2-.4-.9-.9c.3-.4.7-.8.9-.8.2 0 .6.4.9.8zm-84 1c.3.5-.1.9-.9.9s-1.2-.4-.9-.9c.3-.4.7-.8.9-.8.2 0 .6.4.9.8zm-7.8 1.4c.3.4-.1.5-1 .4-.8-.1-1.8-.5-2.2-.8-.3-.4.1-.5 1-.4.8.1 1.8.5 2.2.8zm-7.2.6c.3.5-.1.9-.9.9s-1.2-.4-.9-.9c.3-.4.7-.8.9-.8.2 0 .6.4.9.8zm120.3-.2c-.3.3-1.2.4-1.9.1-.8-.3-.5-.6.6-.6 1.1-.1 1.7.2 1.3.5zm17.4 2.1c1.3 1.6 1.2 1.7-.3.4-1-.7-1.8-1.5-1.8-1.7 0-.8.8-.3 2.1 1.3zM441 17.4c0 .2-.7.9-1.5 1.6-1.3 1.1-1.4 1-.9-.4.5-1.4 2.4-2.3 2.4-1.2zm157.5.6c.3.5.1 1-.4 1-.6 0-1.1-.5-1.1-1 0-.6.2-1 .4-1 .3 0 .8.4 1.1 1zm4.9.8c.2.4-.4.8-1.4.8-1 0-1.6-.4-1.4-.8.3-.4.9-.8 1.4-.8.5 0 1.1.4 1.4.8zM423 21.4c0 .2-.7.7-1.6 1-.8.3-1.2.2-.9-.4.6-1 2.5-1.4 2.5-.6zm196 0c0 .3-.4.8-1 1.1-.5.3-1 .1-1-.4 0-.6.5-1.1 1-1.1.6 0 1 .2 1 .4zm-200 1c0 .3-.4.8-1 1.1-.5.3-1 .1-1-.4 0-.6.5-1.1 1-1.1.6 0 1 .2 1 .4zm-7.6 1.4c.3.5-.1.9-.9.9s-1.2-.4-.9-.9c.3-.4.7-.8.9-.8.2 0 .6.4.9.8zM627 24c0 .5-.2 1-.4 1-.3 0-.8-.5-1.1-1-.3-.6-.1-1 .4-1 .6 0 1.1.4 1.1 1zm-219 .4c0 .2-.7.7-1.6 1-.8.3-1.2.2-.9-.4.6-1 2.5-1.4 2.5-.6zm227.7 1.2c-.3.3-1.2.4-1.9.1-.8-.3-.5-.6.6-.6 1.1-.1 1.7.2 1.3.5zM400.5 27c-2.7 1.2-4.3 1.2-2.5 0 .8-.5 2.2-.9 3-.9 1 0 .8.3-.5.9zm239.9-.1c.4.5-.3.7-1.4.4-2.3-.6-2.6-1.3-.6-1.3.8 0 1.7.4 2 .9zM393.5 29c-1.1.5-2.7.9-3.5.9-.9 0-.8-.4.5-.9 1.1-.5 2.7-.9 3.5-.9.9 0 .8.4-.5.9zm254.9-.1c.4.5-.3.7-1.4.4-2.3-.6-2.6-1.3-.6-1.3.8 0 1.7.4 2 .9zm5.2 1.9c-1 .2-2.2 0-2.8-.6-.6-.6 0-.7 1.9-.4 2.1.5 2.3.7.9 1zm-268.1.2c-.3.5-1.4 1-2.3.9-1.4 0-1.3-.2.3-.9 2.7-1.1 2.7-1.1 2 0zM659 32c.8.5 1.1 1 .5 1-.5 0-1.7-.5-2.5-1s-1-1-.5-1c.6 0 1.7.5 2.5 1zm-278.3.6c-.3.3-1.2.4-1.9.1-.8-.3-.5-.6.6-.6 1.1-.1 1.7.2 1.3.5zm-3.9.9c-.3.3-2 1-3.8 1.5-1.9.5-2.9.6-2.4.1 1.2-1.2 7.4-2.7 6.2-1.6zm286.9.1c-.3.3-1.2.4-1.9.1-.8-.3-.5-.6.6-.6 1.1-.1 1.7.2 1.3.5zm4.8 1.4c1.3.6 1.5.9.5.9-.8 0-2.2-.4-3-.9-1.8-1.2-.2-1.2 2.5 0zM366 37.5c-1.9.7-4.2 1.3-5 1.3-.8 0 .1-.6 2-1.3 1.9-.7 4.2-1.3 5-1.3.8 0-.1.6-2 1.3zm310.1 0c1.9.8 2.9 1.4 2.3 1.5-.7 0-2.7-.7-4.5-1.5-1.9-.8-2.9-1.4-2.3-1.5.7 0 2.7.7 4.5 1.5zm-319.1 3c-1.4.8-2.9 1.4-3.5 1.4-.5 0 .1-.6 1.5-1.4 1.4-.8 3-1.4 3.5-1.4.6 0-.1.6-1.5 1.4zm326-.5c.8.5 1.1 1 .5 1-.5 0-1.7-.5-2.5-1s-1-1-.5-1c.6 0 1.7.5 2.5 1zm7.6 2.8c2.8 1.1 5.9 2.4 7 3.1 1.9 1.2 1.9 1.2-.1.6-8.5-3-14.2-5.5-12.4-5.5.2 0 2.7.8 5.5 1.8zm-340.1.2c-8 3.3-12.9 5-12.2 4.4 1.2-1.2 10.9-5.2 12.7-5.2.9-.1.7.3-.5.8zm356.8 6.7c1.5.7 2.7 1.1 2.7.8 0-.4.7.1 1.6.9.8.9 2.2 1.6 3.1 1.6 1.5 0 28.5 13.2 37.8 18.5 11 6.2 27.1 16 28.4 17.3.7.7 1.1 1.5.9 1.7-.2.3-1.4-.4-2.6-1.5-1.2-1.1-2.4-2-2.6-2-.3 0-3.2-1.7-6.3-3.7-3.2-2.1-6.7-4.3-7.8-4.9-1.1-.6-3.7-2.1-5.7-3.2-2.1-1.2-5.5-3.2-7.5-4.3-4.6-2.6-23.6-12.3-24.3-12.4-.3-.1-2.4-1.1-4.7-2.3-2.3-1.2-4.6-2.2-5.1-2.2s-4.3-1.6-8.3-3.5c-4.1-2-6.3-3.3-4.9-2.9 1.4.4 3.7 1.3 5.3 2.1zM335 49c0 .5-.4 1-1 1-.5 0-1-.5-1-1 0-.6.5-1 1-1 .6 0 1 .4 1 1zm-7.8 3.5c-3 1.4-5.9 2.5-6.5 2.5-1.7 0 8.5-4.8 10.3-4.9.8 0-.9 1-3.8 2.4zm-8.2 3.4c0 .5-1.7 1.5-3.7 2.2-2.1.6-4 1.5-4.3 1.9-.3.4-1.6 1.1-3 1.4-2.3.7-2.3.6.5-1.3 1.6-1.1 4.2-2.3 5.7-2.6 1.5-.4 3-1.1 3.3-1.6.8-1.2 1.5-1.2 1.5 0zm203.8.5c.6.4 1.2.4 1.2-.1 0-.4 1.9-.7 4.2-.5 2.4.1 9.3.4 15.3.7 6.1.3 13.5.7 16.5 1 3 .3 8.4.7 12 1 6 .5 10.5 1.1 10.5 1.5 0 .1 1.4.3 3 .5 18.7 1.8 53.2 9.3 75.4 16.4 5.2 1.7 9.8 2.8 10.3 2.5.4-.3.8-.1.8.5 0 .5 1.5 1.2 3.3 1.6 1.7.4 4.6 1.3 6.2 2 1.7.7 9.1 3.6 16.5 6.5 15.1 5.9 43.6 19.4 55 26.1 4.1 2.4 9.6 5.5 12.3 6.9 2.6 1.4 4.7 2.8 4.7 3.2 0 .5.7.8 1.5.8s1.5.5 1.5 1.1c0 .5.5.7 1 .4.6-.3 1-.2 1 .3s.8 1.2 1.8 1.6c2.1.7 4.9 2.5 7.6 4.8 1.1 1 2.4 1.8 2.8 1.8.5 0 2.6 1.3 4.6 2.8 2 1.6 8.9 6.7 15.2 11.4 6.4 4.7 12.3 9.2 13.2 10.1.9 1 2.1 1.7 2.6 1.7.6 0 1.2.3 1.4.7.2.5 3.5 3.5 7.3 6.8 19.8 16.9 40 37.2 56.6 57C898 239.2 915 261.7 915 263c0 .6.7 1.3 1.5 1.6.8.4 1.5 1 1.5 1.6 0 .5 1.1 2.4 2.5 4.2 1.4 1.8 2.5 3.8 2.5 4.4 0 .7.3 1.2.8 1.2.6 0 1.8 1.7 5.7 8.5.7 1.1 3.6 6 6.5 11 11.6 19.7 29 56.1 33 69 .7 2.2 1.7 4.9 2.3 6 .6 1.1 1.2 2.7 1.3 3.5.2.8.7 2.3 1.3 3.5 3 6 16.6 54.4 15.6 55.4-.3.2-.1.9.5 1.6.5.6 1.1 2.9 1.4 5 .2 2.2.5 4.2.6 4.5 0 .3.7-.3 1.4-1.3 1.7-2.3 2.7-1 3.1 4.1.2 2 .4 3.7.6 3.7.1 0 .3.9.4 2 .1 1.1.6 3.8.9 6 1.8 10.6 2.4 19.5 1.3 19.5-.4 0-.5.5-.1 1.1 1 1.6 1.2 10.9.2 10.9-.4 0-.8-1-.9-2.3-.2-5.2-1.8-16-2.5-16.6-.9-.9-1.1 12.8-.2 16.1.4 1.6.4 2.8 0 2.8-.8 0-.7 10.9.2 11.7.3.3.3 1-.1 1.6-.3.5-.7 5.3-.9 10.6-.4 9.2-1.2 22.6-1.4 22.6-.1 0-.3 2-.6 4.5-.9 10-2.2 19-3.9 28.5-.3 1.6-1 5.7-1.6 9-.6 3.3-1.3 7.1-1.5 8.5-.3 1.4-1 4.3-1.6 6.5-.5 2.2-1.2 5-1.4 6.2-.2 1.2-2 7.9-4 15-2 7-4.1 14.6-4.6 16.8-.6 2.2-1.5 4.4-1.9 4.9-.5.6-.9 1.8-.9 2.8 0 1-.4 2.6-.9 3.6-.8 1.6-7.9 20.4-8.5 22.7-.1.5-1 2.7-1.9 4.9-.9 2.1-1.7 4.4-1.7 5.1 0 .7-.7 1.8-1.5 2.5s-1.5 1.8-1.5 2.4c0 .7-.9 3.2-2.1 5.7-4.3 9.1-14.4 29.4-14.9 29.9-.3.3-1.4 2.3-2.6 4.5-4 7.6-6.6 12-7.6 12.6-.5.3-1 1-1 1.5-.1 1.7-2.1 5.4-3 5.4-.4 0-.8.6-.8 1.4 0 .8-.6 2.1-1.3 2.8-.7.7-2.6 3.5-4.3 6.3-3.4 5.4-18.2 26.2-23 32.1-17 21-25.1 30-40.9 45.8-6 6-15.5 14.8-21 19.5-5.5 4.7-10.2 8.9-10.5 9.2-1.6 1.8-24.1 18.9-25 18.9-.5 0-1 .4-1 1 0 .5-.7 1-1.5 1s-1.5.4-1.5 1c0 .5-.7 1-1.5 1s-1.5.3-1.5.7c0 .5-1.7 1.9-3.8 3.3-2 1.4-3.9 2.7-4.2 3-.3.3-1.6 1.2-3 2s-9.4 5.6-17.9 10.7c-8.5 5.1-16 9.3-16.8 9.3-.7 0-1.3.4-1.3.9 0 .7-3.6 2.2-4.9 2-.2 0-.7.3-1 .8-.5.8-17.7 9.6-19.1 9.8-.3.1-3.6 1.6-7.4 3.3-3.8 1.8-7.1 3.2-7.3 3.2-.3 0-1.9.7-3.6 1.5-8.3 3.7-40.2 15.1-44.7 15.8-.8.1-1.9.5-2.5.8-1.2.8-8.3 2.1-8.8 1.7-.2-.2-1.1.2-1.9.9-.8.7-3.1 1.4-5.1 1.7-2 .2-4 .7-4.5 1-.5.3-1.9.7-3.3 1-3.2.7-13.8 3-18.9 4.1-.3 0-2.7.4-5.3.9-2.7.4-5.9 1-7 1.2-1.2.3-3.5.7-5.2.9-5.8.8-12 1.6-16.5 2.2-2.5.2-5.8.6-7.5.8-3.3.4-16.4 1.5-26 2.1-8 .5-39.4.5-47.5-.1-16.4-1-23.4-1.6-35.5-3.1-7.1-.8-14.1-1.7-15.5-2-4.7-.9-9.5-1.6-12.5-1.8-1.6 0-3.2-.4-3.5-.8-.3-.3-2.3-.9-4.5-1.2-4.6-.7-5.5-.9-14.5-3.1-3.6-.9-7.6-1.9-9-2.1-2.2-.4-6.7-1.7-11-3.2-1.9-.6-3-.9-5.5-1.5-1.1-.2-2.7-.6-3.5-1-.8-.3-7.1-2.4-14-4.7-15.1-5-32.6-11.9-41.8-16.3-3.7-1.8-7-3.4-7.4-3.5-1.4-.5-14.2-6.7-18.8-9.2-2.5-1.3-4.7-2.4-5-2.5-.8-.1-19.9-11.3-25.7-15.1-2.9-1.9-5.7-3.4-6.2-3.4s-1.1-.3-1.3-.8c-.3-.8-9.6-7.2-10.4-7.2-.3 0-1.1-.6-1.9-1.2-2.7-2.6-5.5-4.8-6.3-4.8-.4 0-3.8-2.5-7.7-5.5-3.8-3-7.5-5.8-8-6.2-2.5-1.9-11-8.8-11.5-9.3-.3-.3-3.4-3-7-6-17.3-14.6-37.8-35.5-55.7-56.8-1.3-1.5-2.7-3.3-3.3-4-8.7-10.2-33.7-46.1-38.8-55.7-1.2-2.2-3.6-6.3-5.2-9-3.6-5.8-21.7-42.3-22.2-44.5-.2-.8-.5-1.7-.8-2-.3-.3-1.3-2.3-2.2-4.5-5.1-12.4-8-20-8.3-21.5-.2-1-1.1-3.2-1.9-4.9-.9-1.7-1.4-3.1-1.2-3.1.3 0-.7-3.3-2.1-7.3-1.4-3.9-2.6-7.9-2.8-8.7-.2-.8-.8-2.7-1.4-4.2-.6-1.6-.9-2.8-.6-2.8.2 0-.3-1.9-1.1-4.3-1.3-3.5-3.7-12.9-4.9-18.7-.2-.8-.8-3.4-1.4-5.6-.6-2.3-1.3-5.4-1.5-7-.3-1.6-.7-4-1-5.4-.4-1.4-.8-3.9-1.1-5.5-.2-1.7-.6-4.1-.9-5.5-.3-1.4-.7-4.3-1-6.5-.3-2.2-.8-5.3-1.1-6.8-.3-1.6-.8-5.2-1-8-.2-2.9-.6-6.3-.9-7.7-1.1-5.8-1.9-23.1-2.1-47.2-.1-14.2-.4-26-.7-26.3-.3-.3-.6.9-.6 2.7-.1 3.1-.9 10.3-1.2 10.3-.1 0-.2 2.6-.4 5.8-.2 3.1-.6 6-1 6.4-.5.5-1.1-8.6-.7-11 .1-.5.4-5 .6-10 .2-5.1.6-10.1.8-11.2.6-2.6 2-9.7 2.2-11 .1-.6.3-1.8.3-2.8.1-.9.6-1.7 1.1-1.7.9 0 .7 6.8-.3 11.8-.3 1.3-.1 2 .5 1.7.5-.4.7-1.1.4-1.6-.4-.5-.2-.9.3-.9.6 0 .9-.6.8-1.3-.2-2.5 2.7-17.8 3.5-18.3.5-.3.7-.9.5-1.3-.6-.9 4.3-20.6 8.5-34.6 11.3-37 25-69 42.9-100.1 2.8-4.8 5-9.1 5-9.5 0-.5.5-.9 1-.9.6 0 1-.4 1-1 0-.9 11.8-19.9 13-21 .3-.3 2.5-3.4 4.9-7 2.4-3.6 4.7-6.7 5.1-7 .4-.3 1.1-1.2 1.6-2.1 2-3.7 20.2-25.9 29.2-35.9 13.8-15.1 32.9-33.7 45.2-43.9 3.6-3 6.7-5.7 7-6 .3-.4 3.4-2.9 7-5.6 3.6-2.7 6.7-5.2 7-5.5.8-.9 21.6-15.6 24.8-17.5.9-.6 1.9-1.2 2.2-1.6.3-.3 2.3-1.6 4.5-2.9 2.2-1.3 4.2-2.7 4.5-3 .5-.6 13.1-7.9 23.5-13.7 8.8-4.9 44.5-22.3 45.8-22.3.2 0 2.2-.8 4.3-1.7 2.2-.9 4.1-1.7 4.4-1.8.3 0 3.9-1.4 8-3s7.7-3 8-3c.6-.1 16.9-5.4 19-6.2 6.8-2.6 42.4-11.6 50.9-12.8 1.4-.2 6.4-1.1 11.1-1.9 4.7-.9 10.3-1.8 12.5-2.1 2.2-.2 6.3-.8 9-1.2 2.8-.3 6.9-.7 9.2-.7 2.4-.1 4.3-.3 4.3-.6 0-.5 2.5-.7 20.8-1.3 6.7-.2 12.4-.6 12.6-.8.8-.7 14.1-.3 15.4.5zM305 63c0 .5-.6 1-1.2 1-.7 0-6.1 2.7-12.1 6.1-6 3.3-11 5.9-11.3 5.7-.5-.6 21-12.6 24.4-13.7.1-.1.2.3.2.9zm-26 13.7c-.1.9-17.5 11.6-19.7 12.1-.7.2-1.3.7-1.3 1.2 0 .4-.7 1-1.5 1.4-2.6 1-1.6-1 1.3-2.5 1.5-.8 2.9-1.7 3.2-2 .3-.3 3.9-2.5 8-4.9 4.1-2.4 7.7-4.7 7.8-5.2.4-1 2.2-1.1 2.2-.1zm515 20.7c5.8 4.1 11 7.8 11.5 8.3.6.5 4.2 3.3 8 6.2 3.9 3 7.2 5.7 7.3 6.2.2.5.8.9 1.3.9s1.7.8 2.7 1.7c1 1 4 3.6 6.7 5.8 14.2 11.6 39.8 37.2 52.5 52.4 2.5 3 5.7 6.7 7.3 8.4 1.5 1.6 2.7 3.2 2.7 3.6 0 .3 1.3 1.9 2.8 3.6 1.5 1.6 4.2 5 5.9 7.5 1.7 2.5 4 5.6 5.2 7 1.1 1.4 2.4 2.9 2.8 3.5 3.1 3.9 20.3 30.6 20.3 31.4 0 .6.4 1.1.8 1.1s1.3 1.2 1.9 2.7c1.1 2.6 3.4 6.5 5.8 10.3.5.8 1 1.7 1 2 0 .3 1.7 3.4 3.7 7 3.3 5.8 15.1 29.8 15.3 31 .1.3.9 2.2 1.8 4.4.9 2.1 1.7 4 1.7 4.1 0 .2 1 2.5 2.2 5.2 1.2 2.6 2.2 5 2.2 5.3.2.8 3.6 10.2 4.6 12.5.5 1.1 1.4 3.8 2.1 6 .6 2.2 1.6 4.8 2.1 5.8.5 1.1.7 2.1.4 2.4-.3.3-1.4-1.4-2.5-3.8-1-2.4-3.1-7.1-4.5-10.4-1.5-3.3-4.3-10-6.2-14.8-1.9-4.9-4-10.3-4.8-12-.7-1.8-2.2-5-3.1-7.2-1.9-4.2-13.6-27.9-17.6-35.5-1.3-2.5-2.8-4.8-3.4-5.2-.7-.5-.7-.8 0-.8s.7-.3 0-.8c-.5-.4-1.6-1.8-2.3-3.1-.8-1.3-2.3-4-3.4-6s-3.2-5.4-4.7-7.6c-1.4-2.2-3-4.8-3.6-5.7-4.2-7.3-24.9-35.7-27.3-37.6-.9-.6-1.3-1.2-.9-1.2s-.1-.8-1-1.8c-1-1-3.6-4.1-5.8-6.7-10.3-12.5-9.7-11.8-27.1-29.7-10.8-11-25.5-24.8-29.5-27.6-1.1-.8-3.9-3.2-6.2-5.3-2.3-2.1-4.5-3.9-4.9-3.9-.4 0-1.5-.8-2.5-1.8-1-1.1-6.3-5.2-11.8-9.3-5.5-4.1-10.1-7.7-10.3-8.2-.2-.4-.9-.7-1.5-.7-.7 0-2.5-1.1-4.1-2.5-1.6-1.4-3.3-2.5-3.8-2.5-.4 0-.8-.5-.8-1 0-.6.1-1 .3-1 .1 0 5 3.3 10.7 7.4zm-540.5-4.1c-.3.7-1.9 1.8-3.5 2.6-1.7.7-3.6 1.8-4.3 2.5-.6.6-5.5 4.3-10.7 8.1-23.2 17.1-55.8 47.1-73.5 67.7-3.8 4.4-7.5 8.6-8 9.2-.6.6-2.6 3.1-4.5 5.6-1.9 2.5-3.7 4.7-4 5-3.6 3.3-29 40.1-29 41.9 0 .6-.4 1.1-.9 1.1s-1.6 1.2-2.4 2.7c-1.5 3.1-5.6 10.3-9.6 17.2-7.2 12.2-24.6 49.2-26.6 56.3-.2.5-.4 1.1-.5 1.5-.1.5-.2 1.1-.1 1.5 0 .5-.3.8-.8.8s-1.2 1.2-1.6 2.7c-.3 1.5-1.6 4.8-2.7 7.3s-3.4 7.3-4.9 10.8c-1.6 3.4-2.9 6.7-2.9 7.2s-.5 1.2-1.1 1.5c-.5.4-.3-.9.5-2.9s1.3-3.6 1-3.6c-.2 0 .2-1.4 1.1-3 .9-1.7 1.3-3 .9-3s-.2-.6.3-1.3c.5-.6 1.7-3.5 2.7-6.2 1-2.8 2-5.7 2.3-6.5.8-2 .8-2.1 1.7-5.3.5-1.5 1.2-2.7 1.8-2.7.5 0 .7-.4.3-.9-.3-.5-.1-1.2.5-1.6.5-.3 1-1.2 1-2 0-2.7 15.9-35.7 24-49.8 2.7-4.8 5-9.1 5-9.6s.4-1.1.8-1.3c.5-.2 2.4-2.9 4.3-6.2 7.6-12.9 26.4-39.6 36-51.1 23.7-28.3 47.7-52.2 70.5-70.4 4.3-3.5 8.8-7 9.9-7.9 1.1-1 3.1-2.5 4.5-3.4 1.4-1 6.8-4.9 12-8.7 9.7-7.2 11.3-8.1 10.5-5.8zM995 438.5c0 .8-.2 1.5-.4 1.5s-.6-.7-1-1.5c-.3-.8-.1-1.5.4-1.5.6 0 1 .7 1 1.5zm-949.4 2.2c-.2.9-.8 1.9-1.4 2.1-.6.2-.8-.5-.5-1.7.6-2.5 2.2-2.8 1.9-.4zM1001 492c0 .5-.4 1-1 1-.5 0-1-.5-1-1 0-.6.5-1 1-1 .6 0 1 .4 1 1zm-961.3 3.2c.2 1.8 0 2-.7.8-1.2-1.8-1.3-3-.2-3 .4 0 .9 1 .9 2.2zm960.9.7c0 1.1-.4 1.7-.8 1.5-.4-.3-.8-1.2-.8-2s.4-1.4.8-1.4.8.9.8 1.9zM36.7 587.3c.3 2.3 3.1 15.9 3.9 19.2.3 1.1.7 3.1.9 4.5.2 1.4.7 4.1 1 6 .3 1.9.8 4.8.9 6.5.2 1.6.6 4.3 1 6 1.2 6.1 1.4 7.1 2.2 12.5.8 5.8 1 6.8 1.4 7.2.3.4.8 2.7 3.5 15.3.2 1.1 1.1 4.7 2 8 .9 3.3 1.8 6.5 1.9 7.2.1.7.5 1.6.9 1.9.4.4.7 1.5.7 2.5 0 2.4 7.3 24.2 12.1 36.4.7 1.6 1.3 3.5 1.5 4.2.1.7.9 2.7 1.8 4.4.9 1.8 1.6 3.5 1.6 3.9 0 .4 1 2.9 2.2 5.6 1.2 2.7 2.1 5.2 2 5.6-.1.5.3.8.8.8.6 0 .9.3.8.7-.2 1.2 1.9 6 6.8 15.5 2.4 4.9 4.1 8.8 3.7 8.7-.7 0-10.6-19.2-10.9-20.8 0-.3-1-2.8-2.2-5.4-1.2-2.7-2.2-5.3-2.2-5.8s-.4-.9-1-.9c-.5 0-1-.8-1-1.7 0-.9-.9-3.6-2.1-6-1.1-2.4-2.2-4.9-2.3-5.5-.1-.7-.8-2.4-1.6-3.8-.7-1.4-1.3-2.6-1.2-2.8.1-.1-.4-1.7-1.2-3.5-1.9-4.8-13.3-39.8-14.1-43.4-.2-1-.8-3-1.3-4.4-.6-1.5-.8-3-.5-3.3.3-.3 0-1.2-.7-2.1-.7-.8-1-1.5-.7-1.5.3 0 .1-1.5-.4-3.3-1.5-4.6-1.5-4.7-2.4-10.2-1-5.7-1.2-6.3-1.5-7-.1-.3-.3-1.3-.4-2.3-.1-.9-.6-3.7-1.1-6.2-.4-2.5-.9-5.2-1.1-6-.1-.8-.5-2.6-.8-4-.3-1.4-.8-5-1.1-8-.5-5.1-1.2-9.5-1.5-9.5 0 0-.3-2.5-.5-5.5-.3-3-.6-7.2-.8-9.3-.4-3.9.5-4.3 1-.4zm966.7 1.9c-1.4 14.1-2.9 25.9-3.4 26.5-.2.2-.4 1.6-.5 3.3-.1 1.6-.4 3.1-.5 3.2-.2.3-.5 2.5-1.1 8-.2 1.6-.6 2.8-.9 2.8-.3 0-.6.8-.6 1.7-.2 3-1.6 11.8-2.1 12.6-.2.4-.7 1.9-.9 3.4-.3 1.4-1.2 5.3-2 8.7-.8 3.4-1.6 6.8-1.8 7.6-.2.8-1 3.5-1.7 6s-1.3 4.9-1.5 5.5c-.7 3.1-11.5 34.7-13.3 38.7-1.1 2.7-1.7 4.8-1.3 4.8.4 0 .2.4-.4.8-.5.4-1.8 2.9-2.9 5.7-1 2.7-3 7.6-4.5 10.7-1.5 3.1-2.6 5.9-2.3 6.1.2.3-.3.7-1.1 1-1.3.5-1.2.1.1-3.1.8-2 1.9-4.2 2.3-4.7.4-.6 1.4-2.9 2.1-5.3.6-2.3 1.6-4.2 2.1-4.2.4 0 .7-.3.6-.8-.3-1.1 2.3-8.5 3.6-10.1.6-.8 1-1.6.9-1.7-.1-.2 0-1.1.2-1.9.3-.8.7-2.2 1-3 .2-.8.5-1.9.6-2.3.1-.4 1-2.8 2-5.5 3.2-8.2 11.2-36.3 13.5-47.2.2-1.1.7-3.4 1-5 .4-1.7.8-4 1-5.2.1-1.1.5-2.9.8-4 .3-1 .8-3.4 1-5.3.3-1.9.8-4.6 1-6 1.2-5.7 1.6-7.7 2.2-12.5.3-2.8.7-5.9.9-7 .9-4.9 1.6-8.1 2.1-9.7.6-2.1 1.3-5.4 2-9.8 1.1-7.5 2.4-9.5 1.8-2.8zM959 750.5c-1.4 3.6-13.1 25.8-14.3 27-.5.5 2.3-5.3 6.2-13 3.9-7.7 7.1-14.5 7.1-15.2 0-.7.4-1.3 1-1.3s.6.9 0 2.5zM93.4 774.7c.9 1.8 1.4 3.3 1.2 3.3-.6 0-3.6-5.5-3.6-6.6 0-1.1.5-.3 2.4 3.3zm9.1 15.3c.3.5.1 1-.4 1-.6 0-1.1-.5-1.1-1 0-.6.2-1 .4-1 .3 0 .8.4 1.1 1z"/><path d="M512 74.1c-9.3 2.9-18 13.4-18 21.8 0 3.3-.9 3.7-11.5 4.6-3.3.2-7.6.7-9.5 1-1.9.2-5.7.7-8.5 1.1-2.7.3-5.9.8-7 1-1.1.1-3.5.5-5.2.8-8 1.1-38.2 8-41.3 9.3-.8.3-1.9.5-2.4.4-.4-.1-1.4.4-2.2 1-.8.6-1.4.9-1.4.6 0-.3-1.6.1-3.5.9s-3.5 1.1-3.5.8c0-.4-.6-.2-1.2.3-.7.6-3.7 1.6-6.5 2.4-2.9.7-5.3 1.6-5.3 1.9 0 .4-.6.7-1.2.7-.7 0-6 1.9-11.8 4.3-5.8 2.4-12 4.8-13.8 5.5-1.8.6-3.8 1.7-4.4 2.3-.7.7-1.7 1.2-2.4 1.2-.6 0-6.5 2.8-13 6.1-6.6 3.4-12.9 6.7-14.1 7.3-1.3.6-2.3 1.5-2.3 1.9 0 .5-.4.6-.9.2-.5-.3-1.6.2-2.4 1-.9.8-2 1.5-2.6 1.5-.6 0-1.1.4-1.1 1 0 .5-.4 1-1 1-1.5 0-16 9.2-16 10.2 0 .5-.4.7-.9.4-.5-.4-1.1-.3-1.3.1-.1.5-3.2 2.8-6.8 5.2-3.6 2.5-6.6 4.8-6.8 5.3-.2.4-1 .8-1.7.8s-1.5.3-1.7.7c-.1.5-3 2.8-6.3 5.2-3.3 2.5-6.4 5-7 5.6-.5.6-3.7 3.4-7 6.1-6.4 5.2-38.4 36.5-38.5 37.5 0 .4-1.7 2.5-3.7 4.7-4.4 4.7-4.4 4.7-10.9 13.2-2.7 3.6-5.2 6.7-5.5 7-1.2 1-13.7 18.8-18.5 26.5-12.8 20.1-26 45.9-33.7 65.5-2.4 6.3-4.8 12.4-5.2 13.5-.5 1.1-.9 2.3-1 2.7-.2.5-.4 1-.5 1.3-.1.3-.3.8-.5 1.2-.1.5-.4 1.5-.8 2.3-1.1 2.9-3.9 12.3-5.2 17.3-.8 2.9-2.1 7.9-3 11.2-.9 3.3-1.8 6.7-2 7.5-.2.8-.8 3.5-1.4 6-1.8 8.2-5 25.5-5.6 30.5-.2 1.6-.6 4.8-.9 7-.3 2.2-.8 6.9-1.2 10.5-.8 8.7-1.1 11.1-2.9 23.2-.3 2.1-.7 5.3-.9 7-1.2 8.5-2 26.1-1.9 44.3.1 17.2.7 36 1.2 36 .1 0 .4 2.7.6 6 .2 3.3.6 7.3.9 9 .3 1.6.8 5.2 1.2 8 .3 2.7.8 5.9 1 7 .3 1.1.7 3.6.9 5.5.6 3.4 1.6 7.9 2.5 10.7.1.5.2 1.2.1 1.6-.1.4.6 3.6 1.4 7 .9 3.4 1.8 7.5 2.1 9 .3 1.6 1.9 7.2 3.5 12.5s3.1 10.4 3.3 11.2c.8 3 6.5 18.9 7.5 20.9.7 1.2 1 2.1.7 2.1-.3 0 .8 2.8 2.3 6.2 2.7 6.2 4.3 9.8 4.6 10.8.1.3 1.8 4 3.8 8.2 2 4.2 3.7 8.1 3.7 8.7 0 .5.3 1.1.8 1.3.4.1 2.9 4.6 5.6 9.8 2.7 5.2 6.7 12.3 8.8 15.8 2.1 3.4 3.8 6.7 3.8 7.2 0 .6.5 1 1.1 1 .5 0 .8.4.5.9-.3.5.1 1.1.9 1.5.8.3 1.5 1.2 1.5 2.1 0 .8.4 1.5.9 1.5s1.4 1.3 2 2.8c.7 1.5 2.3 4 3.6 5.5 1.4 1.4 2.5 2.9 2.5 3.2 0 .8 12.3 17.3 16.5 22 4.6 5.2 6.5 7.5 6.5 7.9 0 1.6 30.9 33 41.8 42.5 10.8 9.4 28.2 22.8 38.6 29.8 5.6 3.7 10.3 7.1 10.4 7.5.2.5.8.8 1.3.8.6 0 3.5 1.6 6.5 3.5s5.6 3.5 5.8 3.5c.3 0 3.7 1.9 7.8 4.3 6.8 4 25.8 13.5 33.8 16.9 10.5 4.5 12.5 5.3 13.2 5 .5-.1.8.2.8.8 0 .6.3.9.8.8.4 0 1.4.1 2.2.5 7 2.6 11.6 4.1 12.3 3.9.4-.1.7.2.7.6 0 .5.6.9 1.3.9.6 0 5 1.3 9.7 2.8 4.7 1.5 10.8 3.3 13.5 4 14.7 3.8 21.9 5.5 24.8 6 1.7.4 5 1 7.2 1.5s6 1.2 8.5 1.5c2.4.4 4.7.8 5 1 .3.2 3.2.6 6.4.9 3.3.4 7.3.9 9 1.2 3 .4 10.5 1 24.6 1.9 7.8.5 38.5.6 45.5.1 12-.8 23-1.8 23.5-2.1.3-.1 3.7-.6 7.5-1 3.9-.3 8.8-1 11-1.5 2.2-.5 5.6-1.1 7.5-1.4 6.2-.9 23.4-4.6 26.6-5.6 1.7-.6 4-1.3 5-1.5 1-.2 4.4-1.1 7.4-2 3-.9 6.3-1.8 7.3-2 1-.2 5.6-1.7 10.2-3.4 4.6-1.6 8.6-2.7 8.9-2.4.3.4.6.1.6-.5 0-.7.3-1.1.8-1.1.4.1 1 0 1.5-.1.4-.1 1-.3 1.5-.5.8-.2 1.2-.3 13.2-5.2 4.7-1.9 9.2-3.9 10-4.4.8-.5 2.2-1.2 3-1.5 7-2.8 25.3-12.4 41.5-21.8 7.9-4.6 22.9-14.7 23.3-15.8.2-.4.8-.8 1.4-.8.8 0 12.2-8.3 13.8-10.1.3-.3 2.7-2.2 5.3-4.2 9.1-6.8 17.2-14.1 32.2-29.2 15.9-16 22.5-23 22.5-23.9 0-.3 1-1.5 2.3-2.8 1.2-1.3 3.6-4.1 5.2-6.2 1.7-2.2 3.8-4.8 4.8-5.8.9-1 1.7-2.1 1.7-2.4 0-.3 1.5-2.4 3.4-4.7 1.8-2.3 5.9-8 9-12.7 3.1-4.7 6-9 6.4-9.5 1.2-1.7 4.1-6.2 6.1-9.7 1-1.8 3.5-6.2 5.6-9.8 3.8-6.6 16.5-31.5 16.5-32.4 0-.3 1.3-3.3 2.9-6.8 1.6-3.5 3.7-8.6 4.7-11.3 1-2.8 2.4-6.1 3.1-7.5.7-1.4 1.3-3.2 1.3-4.1 0-.8.5-2 1.2-2.7.7-.7.9-1.2.6-1.2-.4 0 .6-3.5 2.1-7.8 1.5-4.2 2.8-7.9 2.9-8.2 0-.3.3-1.2.5-2 1-3.2 3.8-13.6 4.2-15.5.3-1.1 1.6-7 2.9-13 1.4-6.1 2.7-12.6 3-14.5.3-1.9.8-4.6 1-5.9.3-1.2.8-4.4 1.1-7 .4-2.5.8-5.7 1-7.1.5-4 1.5-13 2.1-19 .8-7.3 1.3-57.3.6-58.4-.2-.4-.6-4-.8-8-.2-3.9-.7-8.2-1-9.6-.4-1.4-.8-3.6-1-5-.1-1.4-.5-4.3-.8-6.5-.2-2.2-.7-6.9-1-10.5-1.2-12.5-1.7-18.5-2.1-21-.2-1.4-.6-4.7-.9-7.3-.3-2.7-.8-5.2-1-5.5-.2-.4-.7-2.9-1-5.5-1.6-11.9-6.9-34.2-12.1-50.7-1.9-6.1-3.5-11.8-3.5-12.6 0-.8-.4-1.4-1-1.4-.5 0-.9-.3-.9-.8.1-.4 0-1-.1-1.5-.1-.4-.3-1-.5-1.5-.1-.4-.5-1.6-1-2.7-.4-1.1-2.1-5.6-3.8-10-1.6-4.4-3.3-8.2-3.6-8.5-.3-.3-.7-1.2-.9-2-.5-2.5-13.7-29-19.1-38.3-2.8-4.9-5.1-9.1-5.1-9.3 0-.3-.5-1-1-1.7-1-1.1-14.1-20.8-16.5-24.6-.5-.9-1.6-2.3-2.3-3.1-.6-.8-3.5-4.4-6.3-8-9.8-12.7-15-18.9-23.4-27.8-8.9-9.5-23.7-23.9-27.3-26.6-1.7-1.2-2.9-2.6-2.5-2.9.3-.4.1-.7-.6-.7-.6 0-2.3-1.1-3.6-2.4-1.4-1.4-4.2-3.7-6.2-5.3-2.1-1.5-4-3-4.3-3.4-2.9-3.2-35-25.6-40.3-28-1.5-.7-2.7-1.6-2.7-2.1 0-.4-.4-.8-.9-.8-.4 0-4.6-2.2-9.2-4.8-7.3-4.2-30.7-15.9-36.4-18.2-1.1-.4-3.7-1.5-5.7-2.4-2.1-.9-6.8-2.8-10.5-4.2-3.8-1.3-7.7-2.9-8.8-3.4-1.9-.9-24.5-8-26.9-8.4-.6-.2-3.1-.8-5.6-1.5-2.5-.7-5.2-1.4-6-1.6-.8-.2-4.5-1-8.1-1.9-3.7-.8-7.8-1.7-9-2-1.3-.2-4.2-.7-6.4-1.1-2.2-.4-4.9-.9-6-1.2-3.3-.6-7.8-1.3-12-1.8-2.2-.2-5.8-.7-8-1-2.2-.2-6.7-.7-10-1.1-6-.6-9.4-1-10.7-1.3-.4 0-.5-1.1-.3-2.3.5-2.6-3.7-12.3-6.8-15.6-4.3-4.6-10.4-7.4-17-7.8-3.4-.2-7.8.1-9.7.7zm-17.4 75.6c-.3 1.5-.8 6.2-1.1 10.3-.4 4.1-.8 9.1-1 11-.2 1.9-.6 6.4-1 10-.3 3.6-.8 8.3-1 10.5-.4 3.9-.7 6.8-2 21-.3 3.8-.8 8.1-1 9.5-.2 1.4-.6 5.6-1 9.5-1.3 15.7-1.7 18-3.3 19.2-4.2 3.1-6.9 5.9-9.2 9.4-1.4 2-5.4 5.6-8.8 7.9-13.6 9.1-28.2 26.3-35.3 41.5-1.3 2.7-2.7 5.1-3.1 5.3-.4.2-.8 1.1-.8 2.1 0 .9-.5 2.2-1.2 2.9-.7.7-.9 1.2-.6 1.2.3 0-.1 2.1-.9 4.7-1.8 5.6-3 10.4-3.8 15.3-.3 1.9-1 5.3-1.5 7.5s-1.2 6.2-1.5 9c-.4 2.7-.8 6.1-1.1 7.5-.6 3.2-.6 16.6 0 20.6.5 3.5 5.7 19.7 6.6 20.4.3.3 2.1 3.6 4 7.5 1.9 3.8 3.8 7.2 4.3 7.3.4.2.4.8.1 1.4-.9 1.4-.9 9.2 0 10.6.4.7.4 1.2-.1 1.2-1 0-.9 21.3.1 22.9.4.6.4 1.1-.1 1.1-.4 0-.7 7.6-.6 16.9l.3 17-3.3.6c-1.7.4-4.4 1.3-5.8 2.1-2.4 1.2-3.4 1.1-8.8-1.1-3.4-1.3-6.1-2.2-6.1-2 0 .2-1.4 0-3-.5-3.7-1.1-13.9-2.3-19.7-2.4-2.4-.1-4.4-.6-4.4-1.1-.1-.6-.4.3-.8 1.9-.3 1.6-.5 12.5-.3 24.3.2 18.3.5 21.3 1.8 21.3.9 0 1.4.8 1.3 1.7-.5 5.4.2 15.3 1.1 14.8 1-.6 1.2.6 1.2 7 0 5.9-.1 6.2-2.4 6.1-2.2-.1-2.3.2-2.6 10.1-.3 11.1.1 10.4-6.2 10.7-3.1.1-3 .8 2.1 11.4 3.6 7.7 3.9 8.8 3.9 17.2 0 7.7.6 10 2.3 8.8.1-.1 1.1.3 2.2.9 1.8 1 2 2 1.9 7.5-.1 3.4-.3 6.6-.3 7-.1.5-1 .8-2.1.8-3.7 0-16.9 4.7-22.1 8l-5.2 3.2-3.8-1.9c-2.2-1-3.9-2.1-3.9-2.5 0-.7-15.9-6.6-19.8-7.2-1.5-.3-4.7-.8-7.2-1.1-2.5-.4-5.8-.8-7.5-1.1-1.6-.2-5.5-.6-8.7-1l-5.6-.5v17.8c0 21.3.1 20-1.4 20-6.5.1-19.9 3.7-25.8 6.9l-4.6 2.5-6.6-3.1c-3.7-1.6-8.1-3.3-9.8-3.7-2.1-.4-3.5-1.4-4.1-3-.7-2-1.3-2.2-3.6-1.6-2.5.7-13.8.7-21.8 0-1.6-.1-3 .2-3 .8-.1 2-1.5 3.3-4.7 3.9-1.7.3-6 2-9.6 3.7l-6.4 3-6.1-3c-6.7-3.1-10.7-4.6-12-4.3-.4.1-1.5-1.5-2.5-3.5-.9-2.1-2.1-4.1-2.5-4.4-.5-.3-.8-1-.8-1.5.1-1.7-1-4.4-2-4.4-.5 0-.9-.5-.9-1.1 0-.5-.8-2.9-1.9-5.2-7-15.6-13.2-31.1-14.6-36.7-.2-.8-1.3-3.8-2.3-6.7-1.1-2.8-1.7-5.4-1.4-5.7.3-.3 0-.6-.6-.6-.7 0-1.1-.3-1-.8.4-1.4-1.4-8.7-2.4-10-.6-.6-.8-1.2-.4-1.2.3 0 .1-1.1-.4-2.5-1-2.6-1.5-4.9-2.6-11.5-.3-1.9-.8-3.8-1-4.1-.2-.3-.6-2.1-.9-4-.3-1.9-1.1-5.4-1.6-7.9-.6-2.5-1.2-6.1-1.4-8-.4-3.3-.9-6.9-2-13-.2-1.4-.7-5.9-1.1-10-.3-4.1-.8-8.9-1-10.5-.2-1.7-.5-12.1-.5-23.3-.1-11.2-.6-19.8-1-19.1-.4.7-.5 1.7-.3 2.1.3.4 0 .8-.6.8-1.4 0-.2-7.6 2.1-12 1-1.9 2-5.7 2.4-8.4.3-2.7.8-5.2 1-5.5.1-.3.6-2.2.9-4.1.3-1.9 1.7-7.7 3.1-12.7 1.3-5.1 2.7-10.3 2.9-11.5.2-1.3 1.2-4.6 2.1-7.3 1-2.8 1.8-5.5 1.9-6.2.1-.7.5-1.6.9-1.9.4-.4.7-1.3.7-2s.5-2.5 1.2-4.1c.6-1.5 1.2-3 1.2-3.3.3-1.4 5-13.6 5.6-14.5.4-.6 1.7-3.7 3-7 2.9-7.4 18.9-39 22.4-44.2 1.4-2.1 2.6-4.3 2.6-5 0-.7.4-1.3.9-1.3s1.4-1.4 2.1-3c.7-1.7 1.6-3 2-3 .4 0 1-.8 1.3-1.8.4-1.6 17.8-25.8 22.4-31.2 1.1-1.4 5-5.9 8.4-10 19.2-22.6 47.3-47.6 74.4-66.4 6.1-4.1 11.6-8 12.3-8.6.6-.6 1.2-.8 1.2-.5 0 .3 1.5-.5 3.3-1.8 1.7-1.3 5.2-3.5 7.7-4.8 2.5-1.3 4.7-2.7 5-3 .5-.5 1.4-1 18.5-9.6 12.1-6.1 24.6-11.6 26.3-11.6.6 0 1.2-.3 1.2-.7 0-.4 1.5-1.1 3.3-1.7 1.7-.6 8.4-3 14.7-5.2 6.3-2.3 11.6-4.1 11.7-4.1.2 0 .8-.2 1.5-.5 2.5-.8 23.3-6.4 25.8-6.9 1.4-.3 3.6-.7 5-1.1 1.4-.3 3.4-.7 4.5-1 1.1-.2 3-.6 4.1-.9 1.2-.2 3.7-.7 5.5-1 1.9-.3 4.5-.8 5.9-1 1.4-.2 4.7-.7 7.3-1.1 2.7-.4 5.8-.8 6.9-1 1.1-.3 5.5-.7 9.7-1.1 4.2-.3 7.7-.7 7.8-.8.2-.1 2.3-.3 4.8-.5 4.5-.2 4.5-.1 4.1 2.6zm67.9-1.2c3.7.4 8.4 1 16 2.2 1.7.2 4.1.6 5.5.8 1.4.2 4.3.7 6.5 1.1 2.2.3 4.9.7 6 .8 1.1 0 2.2.4 2.5.8.3.3 2.5.9 5 1.2 2.5.2 4.5.5 4.5.6 0 .2 17.9 5.1 20 5.4 1.1.2 2 .4 2 .5 0 .2.8.4 1.8.7 2.7.6 4.1 1.1 5.7 1.7.8.3 4.4 1.5 8 2.7 3.6 1.2 7.2 2.4 8 2.7.8.4 1.7.7 2 .7.9.2 17.3 6.8 22 8.9 8.6 3.8 31.3 15.3 36.5 18.5.6.4 1.2.7 1.5.7 1.1.1 29.6 18.6 33.4 21.6.6.5 6.1 4.7 12.1 9.4 15 11.6 18.6 14.8 34.9 31 15.6 15.4 23.4 24 30.1 33 1.7 2.2 3.3 4.2 3.6 4.5 3.4 2.7 28.9 41.4 28.9 43.8 0 .7.5 1.2 1 1.2.6 0 1 .7 1 1.5s.5 1.5 1 1.5c.6 0 1 .7 1 1.5s1.3 3.6 2.8 6.2c4.3 7.4 18.3 37.9 19.6 42.8.2.5.6 1.7.9 2.5 2.1 5.1 8.5 25 8.1 25-.3 0-.2.6.3 1.2.4.7.8 1.5.9 1.8.3 1.9 1.7 6.9 2.4 9 .5 1.4 1.1 3.9 1.4 5.7.2 1.7.7 3.7 1.1 4.4.5.6.9 1.9 1 2.8.7 6.6 1.9 12.2 2.6 12.7.5.3.7 1 .4 1.5-.9 1.3.5 5 1.6 4.4.5-.4.9.1.9 1s-.4 1.3-1 1c-.5-.3-1-.1-1 .4 0 .6.7 1.1 1.5 1.1s1.5.5 1.5 1.1c0 .5-.4.8-.8.5-.5-.3-.9.1-.9.9s.4 1.2.9.9c.4-.3.9.1.9.8.1.7.3 2.5.5 4 .1 1.6-.1 2.8-.6 2.8s-.7-1-.5-2.1c.3-1.2.1-1.9-.3-1.5-.4.4-.7 8.7-.8 18.4-.2 18.8-1 31.5-3 46.7-.4 3.3-.8 7-.8 8.2-.1 1.3-.3 2.3-.6 2.3s-.7 1.2-.8 2.7c-.1 1.6-.5 3.9-.8 5.3-.3 1.4-.7 4.1-1 6-.2 1.9-.8 4.4-1.1 5.5-.8 2.2-.8 2.6-1.8 7.5-1 5-1.3 6.5-1.5 6.5-.1 0-.3.7-.5 1.5-1.8 7.3-2 7.9-2.8 10-.3.8-1.1 3.5-1.7 6-2.7 10.9-11.8 34.3-20.3 52.5-7.8 16.6-8.2 17.1-12 18-1.8.4-3.4.8-3.7.9-.3.1-3 1.4-6.1 3l-5.6 2.8-5.9-3c-3.2-1.7-7.6-3.4-9.7-3.7-3.6-.7-5.1-1.9-5.2-4 0-.6-1.4-.9-3-.7-5.8.5-17 .6-21 .2-3.3-.4-4-.1-3.9 1.3.1 1.2-1 2-4 2.8-2.2.6-6.9 2.4-10.3 4.1l-6.1 2.9-4.9-2.4c-4.5-2.3-11.6-5-13.8-5.2-.5-.1-3.5-.5-6.5-1s-5.8-.8-6.2-.7c-.5.1-.8-8.4-.8-18.9v-19.1l-5.2.6c-2.9.3-7.3.8-9.8 1.1-5.9.6-11.1 1.4-13 2-.8.2-2.6.6-4 .9-4.5.8-13.5 4.5-18.5 7.7l-4.9 3.1-6.5-3.5c-3.7-2-9.7-4.5-13.6-5.8-3.8-1.2-7.2-2.6-7.5-3-.3-.5-.5-3.9-.5-7.6l.1-6.8h5.9l.5-10.5c.5-9.8.9-11 4.7-18.8 2.3-4.5 3.9-8.3 3.5-8.3-.4-.1-2.3-.3-4.2-.3l-3.5-.2-.3-10.2c-.3-9.7-.6-10.6-3.3-10.4-.3 0-.6-3.1-.7-6.9-.1-4.4.2-6.8.8-6.4.6.4 1-2.5 1-7.9 0-4.7.4-8.7.9-9 .5-.3 1-8.1 1.1-17.3 0-9.3.2-18.8.2-21.3.1-5.1-.9-9.3-2.1-8.5-.5.2-3 .7-5.7 1-2.7.3-6 .7-7.3 1-1.3.2-4.9.7-8 1.1-3.1.3-6 .9-6.6 1.2-.5.4-1.2.7-1.5.8-.3.1-2 .5-3.7.9-1.8.4-3.3 1.1-3.3 1.5 0 1.3-4.1.5-7.7-1.4-1.8-.9-3.3-1.4-3.3-1.2 0 .3-1-.5-2.3-1.7l-2.3-2.2.3-35.5c.1-19.5.4-36.5.6-37.7.8-4.9 5.5-13.3 12.4-22 4-5.1 7.3-9.8 7.3-10.5 0-.7-.9-2.4-2-3.8s-2-2.9-2-3.3c0-.5-1.3-2.7-2.9-5.1-2.8-4-2.9-4.8-3-15.1-.2-18.6-2.3-34.2-5.3-38.1-.5-.7-1-2.1-1.3-3.2-.2-1.1-1.5-3.8-2.9-6.1-1.4-2.2-2.6-4.3-2.6-4.6 0-.4-1.9-3.4-4.2-6.8-5.1-7.6-18.2-20.8-27.2-27.6-3.7-2.7-7.8-6.7-9.2-8.8-3.2-4.6-7.6-8.8-11.5-10.8-2.3-1.2-2.9-2.3-3-4.8 0-1.7-.2-3.9-.3-4.7-.2-.8-.6-5.1-1-9.5s-.9-9.6-1.2-11.5c-.2-1.9-.6-6-.9-9-.2-3-.6-7.5-.9-10-.9-8.5-1.6-15.5-2.1-22-.3-3.6-.8-8.1-1.1-10-.3-1.9-.7-5.8-1-8.5-.2-2.8-.6-6.7-.8-8.8l-.3-3.9 7.1.7c3.9.3 8.9.8 11.1 1zM167.1 335.7c-1.2 2-1.4 1.4-.5-1.2.4-.9.9-1.4 1.1-1.1.3.2 0 1.3-.6 2.3zm707.9 4.8c0 .5-.5.3-1-.5s-1-2-1-2.5c0-.6.5-.3 1 .5s1 1.9 1 2.5zm-711.2 3c-.6 1.4-1.3 2.3-1.5 2.1-.5-.5 1.5-4.6 2.2-4.6.3 0-.1 1.1-.7 2.5zm713 1c-.3.3-.9-.2-1.2-1.2-.6-1.4-.5-1.5.5-.6.7.7 1 1.5.7 1.8zm2.2 3.6c0 .5-.4.9-1 .9-.5 0-1-.7-1-1.6 0-.8.5-1.2 1-.9.6.3 1 1 1 1.6zm-717.7.9c-.3 1.1-1 2.3-1.6 2.7-.5.3-.8.2-.5-.3.3-.5.8-1.7 1.1-2.7.9-2.4 1.6-2.2 1 .3zm-1.3 4.4c0 .3-.4.8-1 1.1-.5.3-1 .1-1-.4 0-.6.5-1.1 1-1.1.6 0 1 .2 1 .4zm722.9 5c-.3.3-1.1-.5-1.8-1.7-1.3-2.1-1.2-2.1.5-.5 1 1 1.6 2 1.3 2.2zM133.3 466.5c-.3.9-.8 1.4-1 1.1-.3-.3-.2-.9.2-1.5.9-1.6 1.5-1.3.8.4zm-2.6 19.7c-.3.7-.5.2-.5-1.2s.2-1.9.5-1.3c.2.7.2 1.9 0 2.5zm1.2 112c.6 2.9 1.4 6.4 1.7 7.8.3 1.4 1.2 5.4 1.9 9 1.7 8.5 5.5 25.1 6.1 27 .3.8.6 1.7.6 2 .1.3 1.6 5.1 3.4 10.7 1.7 5.7 2.8 10.3 2.4 10.3-.6 0-1.2-1.6-3.7-10-.2-.8-.4-1.5-.3-1.5 0 0-1-3-2.4-6.8-1.3-3.7-2.3-6.7-2.1-6.7.2 0-.5-2.9-1.5-6.5s-1.9-6.8-1.9-7c0-.3-.2-1.8-.5-3.3-.4-1.5-.9-3.8-1.1-5.2-.3-1.4-1-4.8-1.6-7.5-1.9-9.3-3.1-17.5-2.5-17.5.3 0 .9 2.4 1.5 5.2zm776.8-2c-.3.7-.5.2-.5-1.2s.2-1.9.5-1.3c.2.7.2 1.9 0 2.5zm-.9 8c-.6 2.9-1.2 6-1.5 6.8-.3.8-.7 2.4-.8 3.5-.1 1.1-.5 2.9-.8 4-.3 1.1-.9 3.3-1.1 5-.3 1.6-1.5 6.4-2.6 10.5-2.3 8.3-2.9 10.8-3.5 13-.2.8-.4 1.6-.5 1.7-.2.2-.4.7-.5 1.3-.1.5-.3 1.1-.4 1.2-.2.2-.5 1.4-.7 2.7-.5 2.8-1.1 3.7-1.9 2.9-.3-.3-.1-1.7.5-3.2.5-1.5 1.2-3.7 1.4-4.9.2-1.2 1.1-4.2 1.9-6.7 1.4-4.2 3.2-11.3 4.2-16.8.2-1.3.6-3.1.9-4 .3-.9.8-3.1 1-4.7 1.6-8.9 4-18.4 4.6-18 .4.2.3 2.8-.2 5.7zm-16.2 60.9c-1.4 3.5-2.5 5.7-2.5 4.8-.1-.9.5-3.2 1.3-5 .7-1.9 1.6-4.3 2-5.3.3-1 .9-1.7 1.2-1.4.2.3-.6 3.4-2 6.9zM993.3 444.1c-.7.7-.8 2.4-.2 5 .5 2.2.8 4.3.5 4.7-.2.4.3 1.3 1.1 2.1 1.3 1.2 1.4 1.1.8-.9-.4-1.2-.7-4.4-.8-7.1 0-2.7-.1-4.9-.2-4.9 0 0-.6.5-1.2 1.1zM995.5 469c-.3.5-.1 1 .4 1 .6 0 1.1-.5 1.1-1 0-.6-.2-1-.4-1-.3 0-.8.4-1.1 1z"/></svg>