<svg width="64" height="49" viewBox="0 0 64 49" xmlns="http://www.w3.org/2000/svg">
<path d="M56.465 21.6728C54.2873 20.5605 50.2041 20.5476 50.0314 20.5476C49.5136 20.5476 49.0939 20.9764 49.0939 21.5054C49.0939 22.0343 49.5136 22.4632 50.0314 22.4632C51.085 22.4633 54.1441 22.629 55.6265 23.3862C55.7611 23.455 55.9041 23.4875 56.045 23.4875C56.3889 23.4875 56.72 23.2934 56.8843 22.9579C57.1159 22.4847 56.9281 21.9094 56.465 21.6728Z M61.139 35.3092L57.2671 34.179C57.1 34.1303 56.9832 33.9722 56.9832 33.7945V32.4742C57.2982 32.2512 57.5987 32.0017 57.8796 31.7232C59.2409 30.3736 59.9905 28.5634 59.9905 26.6258V24.8039L60.3649 24.039C60.7758 23.1994 60.9929 22.2593 60.9929 21.3207V16.3849C60.9929 15.856 60.5731 15.4271 60.0554 15.4271H51.0337C47.7532 15.4271 45.0843 18.1539 45.0843 21.5054V21.5625C45.0843 22.343 45.2649 23.1247 45.6065 23.8227L46.0866 24.8037V26.3681C46.0866 28.8474 47.2825 31.0719 49.0939 32.4105L49.0941 33.7943C49.0941 34.0077 49.0941 34.096 48.32 34.3221L46.4308 34.8735L40.9656 32.8433C40.9853 32.5798 40.8982 32.3119 40.7101 32.11L38.9637 30.2355V27.0889C39.1484 26.9335 39.3304 26.7738 39.5067 26.605C41.7099 24.4953 42.9734 21.5167 42.9734 18.4331V15.9201C43.6386 14.4411 43.9757 12.8761 43.9757 11.2643V1.0237C43.9757 0.49475 43.556 0.065918 43.0382 0.065918H29.0046C24.0659 0.065918 20.048 4.17086 20.048 9.21634V11.2646C20.048 12.8764 20.3851 14.4414 21.0504 15.9203V18.0825C21.0504 21.6628 22.6086 24.8884 25.06 27.0149V30.2357L23.3136 32.1101C23.1255 32.312 23.0385 32.5799 23.0581 32.8434L17.29 34.9861C16.872 35.1414 16.4836 35.3518 16.131 35.6065L15.2253 35.1439C17.9215 33.9448 18.7756 32.2585 18.8166 32.1747C18.9486 31.9051 18.9486 31.5877 18.8166 31.3181C18.1408 29.9371 18.0589 27.4058 17.9931 25.372C17.9713 24.6949 17.9505 24.0553 17.9109 23.4857C17.5913 18.8916 14.1727 15.4271 9.959 15.4271C5.74525 15.4271 2.32662 18.8915 2.00712 23.4857C1.9675 24.0554 1.94675 24.6951 1.92488 25.3723C1.85913 27.406 1.77713 29.9369 1.10137 31.3179C0.969375 31.5875 0.969375 31.905 1.10137 32.1746C1.14237 32.2584 1.99475 33.9413 4.69637 35.1417L2.1805 36.4268C0.8355 37.1143 0 38.4955 0 40.0316V47.1076C0 47.6366 0.41975 48.0654 0.9375 48.0654C1.45525 48.0654 1.875 47.6366 1.875 47.1076V40.0316C1.875 39.2256 2.31338 38.5008 3.019 38.1403L6.15188 36.54L7.24162 37.5981C8.00362 38.3379 8.98112 38.7076 9.959 38.7076C10.9366 38.7076 11.9146 38.3376 12.6764 37.5981L13.766 36.5402L14.7875 37.062C14.3065 37.8483 14.0335 38.7703 14.0335 39.7361V47.1079C14.0335 47.6368 14.4532 48.0657 14.971 48.0657C15.4887 48.0657 15.9085 47.6368 15.9085 47.1079V39.7361C15.9085 38.4213 16.7211 37.2359 17.9307 36.7865L24.0123 34.5273L26.5439 38.4071C26.8675 38.9031 27.3861 39.2212 27.9667 39.28C28.0315 39.2865 28.0959 39.2897 28.1601 39.2897C28.6724 39.2897 29.163 39.0837 29.5298 38.7091L31.0742 37.1312V47.108C31.0742 47.637 31.494 48.0658 32.0117 48.0658C32.5295 48.0658 32.9492 47.637 32.9492 47.108V37.1312L34.4938 38.7091C34.8604 39.0838 35.351 39.2898 35.8634 39.2898C35.9275 39.2898 35.992 39.2866 36.0566 39.2801C36.6374 39.2213 37.156 38.9032 37.4796 38.4072L40.0114 34.5276L46.0928 36.7868C47.3023 37.2362 48.115 38.4215 48.115 39.7364V47.1081C48.115 47.6371 48.5348 48.0659 49.0525 48.0659C49.5703 48.0659 49.99 47.6371 49.99 47.1081V39.7364C49.99 38.4047 49.4721 37.1557 48.6034 36.232L48.835 36.1645C49.0686 36.0963 49.3874 36.0029 49.7074 35.8427L52.101 38.2881V47.1081C52.101 47.6371 52.5208 48.0659 53.0385 48.0659C53.5563 48.0659 53.976 47.6371 53.976 47.1081V38.2881L56.353 35.8596C56.4794 35.9253 56.6121 35.9807 56.7519 36.0214L60.6239 37.1516C61.5076 37.4096 62.125 38.2457 62.125 39.1848V47.1081C62.125 47.6371 62.5447 48.0659 63.0625 48.0659C63.5803 48.0659 64 47.6371 64 47.1081V39.1848C64 37.3947 62.8235 35.801 61.139 35.3092ZM6.01438 33.6175C4.26075 32.9729 3.38113 32.1134 3.00563 31.6441C3.26163 30.9604 3.42762 30.1773 3.54 29.3507C4.057 30.6171 4.92288 31.6983 6.01438 32.4696V33.6175ZM11.385 36.2097C10.5854 36.9859 9.33275 36.9857 8.53337 36.2096L7.6615 35.3631C7.80862 35.0815 7.8895 34.7623 7.8895 34.4278V33.4069C8.5435 33.6157 9.23875 33.7284 9.95925 33.7284C10.6789 33.7284 11.3738 33.6152 12.0289 33.4076L12.0288 34.4277C12.0288 34.7623 12.1095 35.0817 12.2568 35.3634L11.385 36.2097ZM9.9595 31.8128C7.16 31.8128 4.88263 29.486 4.88263 26.6261C4.88263 26.0971 4.46288 25.6683 3.94513 25.6683C3.89263 25.6683 3.84137 25.6738 3.79125 25.6823C3.794 25.6 3.79663 25.5175 3.79938 25.4359C3.82025 24.7773 3.84038 24.1552 3.8775 23.6217C3.99725 21.9007 4.67037 20.3149 5.77287 19.1561C6.88525 17.9869 8.372 17.343 9.95925 17.343C11.5465 17.343 13.0331 17.9869 14.1456 19.1561C15.2481 20.3149 15.9213 21.9007 16.041 23.6217C16.078 24.1551 16.0982 24.777 16.1195 25.4355C16.1214 25.4921 16.1233 25.5494 16.1251 25.6064C15.1051 24.0009 13.5299 22.8177 11.4945 22.1495C9.61413 21.5323 7.99688 21.5705 7.92863 21.5723C7.68313 21.5793 7.45012 21.6843 7.27975 21.8649L5.58825 23.6571C5.22888 24.0379 5.23962 24.6442 5.61237 25.0114C5.98512 25.3785 6.57863 25.3674 6.938 24.9867L8.3455 23.4955C9.55762 23.5561 13.4572 24.0194 14.9739 27.4313C14.5923 29.9455 12.477 31.8128 9.9595 31.8128ZM13.9036 33.6207L13.9038 32.4784C14.9944 31.7113 15.8615 30.6322 16.3789 29.3561C16.4913 30.1809 16.6571 30.9622 16.9126 31.6444C16.5392 32.1092 15.6555 32.9763 13.9036 33.6207ZM22.9254 18.0824V15.706C22.9254 15.5619 22.8935 15.4195 22.8321 15.2896C22.2289 14.0133 21.923 12.6591 21.923 11.2646V9.21647C21.923 5.2271 25.0999 1.98162 29.0046 1.98162H42.1007V11.2647C42.1007 12.6593 41.7949 14.0134 41.1916 15.2897C41.1302 15.4196 41.0984 15.562 41.0984 15.7062V18.4333C41.0984 21.0271 40.0777 23.4329 38.2245 25.2077C37.9931 25.4291 37.753 25.6367 37.5047 25.8302C37.4992 25.8341 37.494 25.8383 37.4886 25.8422C35.7525 27.1889 33.626 27.8434 31.4053 27.6964C26.6501 27.3818 22.9254 23.1589 22.9254 18.0824ZM28.204 37.3544C28.1975 37.3611 28.1824 37.3768 28.1518 37.3734C28.1213 37.3704 28.1092 37.3521 28.1041 37.3442L25.1885 32.8761L26.1268 31.8689L30.5499 34.9577L28.204 37.3544ZM32.0119 33.6583L26.935 30.1129V28.3251C28.2486 29.0506 29.7195 29.5043 31.2839 29.6077C31.531 29.6241 31.7766 29.6321 32.0215 29.6321C33.8141 29.6321 35.5394 29.1943 37.0887 28.3634V30.1129L32.0119 33.6583ZM35.9196 37.3445C35.9145 37.3524 35.9025 37.3706 35.872 37.3737C35.8414 37.3777 35.8264 37.3612 35.8198 37.3547L33.4739 34.958L37.897 31.8691L38.8354 32.8763L35.9196 37.3445ZM53.0385 36.5363L50.911 34.3629C50.9481 34.1907 50.9691 34.002 50.969 33.794L50.9689 33.3898C51.5593 33.5878 52.1815 33.7053 52.8254 33.7249C52.8976 33.7272 52.9692 33.7282 53.0412 33.7282C53.7527 33.7282 54.4472 33.6184 55.1082 33.4089V33.7945C55.1082 33.9856 55.1317 34.1728 55.176 34.3527L53.0385 36.5363ZM56.5739 30.3485C55.5803 31.3337 54.2676 31.8539 52.8817 31.8102C50.1687 31.7271 47.9616 29.2858 47.9616 26.3684V24.5778C47.9616 24.429 47.9278 24.2824 47.8626 24.1495L47.2835 22.9662C47.0714 22.5326 46.9593 22.0474 46.9593 21.5626V21.5055C46.9593 19.2101 48.7871 17.3428 51.0337 17.3428H59.1179V21.3208C59.1179 21.9637 58.9691 22.6075 58.6878 23.1825L58.2145 24.1495C58.1494 24.2826 58.1155 24.429 58.1155 24.5778V26.6259C58.1155 28.0409 57.568 29.3629 56.5739 30.3485Z M59.0529 40.0053C58.5351 40.0053 58.1154 40.4342 58.1154 40.9631V47.1076C58.1154 47.6366 58.5351 48.0654 59.0529 48.0654C59.5706 48.0654 59.9904 47.6366 59.9904 47.1076V40.9631C59.9904 40.4343 59.5706 40.0053 59.0529 40.0053Z M4.94712 41.2714C4.42937 41.2714 4.00962 41.7002 4.00962 42.2292V47.1076C4.00962 47.6366 4.42937 48.0654 4.94712 48.0654C5.46487 48.0654 5.88462 47.6366 5.88462 47.1076V42.2292C5.88462 41.7003 5.46487 41.2714 4.94712 41.2714Z M39.6915 11.6116C36.1458 7.9891 28.7271 8.68164 25.7019 9.14751C24.749 9.29424 24.0575 10.1181 24.0575 11.1064V13.3129C24.0575 13.8418 24.4773 14.2706 24.995 14.2706C25.5128 14.2706 25.9325 13.8418 25.9325 13.3129V11.1062C25.9325 11.0737 25.9535 11.0458 25.9815 11.0415C27.1899 10.8554 29.5877 10.5684 32.0721 10.7376C34.9956 10.9364 37.1131 11.6862 38.3657 12.966C38.7319 13.3401 39.3255 13.3401 39.6915 12.966C40.0576 12.592 40.0576 11.9855 39.6915 11.6116Z M20.9855 42.0536C20.4678 42.0536 20.048 42.4824 20.048 43.0114V47.1077C20.048 47.6367 20.4678 48.0655 20.9855 48.0655C21.5033 48.0655 21.923 47.6367 21.923 47.1077V43.0114C21.923 42.4825 21.5033 42.0536 20.9855 42.0536Z M43.0382 42.0536C42.5205 42.0536 42.1007 42.4824 42.1007 43.0114V47.1077C42.1007 47.6367 42.5205 48.0655 43.0382 48.0655C43.556 48.0655 43.9757 47.6367 43.9757 47.1077V43.0114C43.9757 42.4825 43.556 42.0536 43.0382 42.0536Z"/></svg>