<svg width="65" height="64" viewBox="0 0 65 64" xmlns="http://www.w3.org/2000/svg">
<path d="M55.6952 51.4647C53.8584 51.4647 52.364 52.9493 52.364 54.7741C52.364 56.5989 53.8583 58.0834 55.6952 58.0834C57.5319 58.0834 59.0262 56.5989 59.0262 54.7741C59.0262 52.9494 57.5319 51.4647 55.6952 51.4647ZM55.695 56.1221C54.9469 56.1221 54.3382 55.5174 54.3382 54.7741C54.3382 54.0309 54.9469 53.4261 55.695 53.4261C56.4432 53.4261 57.0519 54.0309 57.0519 54.7741C57.0519 55.5174 56.4432 56.1221 55.695 56.1221Z M64.6701 54.6025C64.6072 52.1796 63.5749 49.9511 61.7633 48.3278L41.8894 30.5196L59.4615 13.0624C59.577 13.0281 59.6912 12.9855 59.8013 12.9277L63.6065 10.9325C64.1322 10.6567 64.4847 10.1635 64.5734 9.57961C64.6623 8.99561 64.4722 8.42111 64.0518 8.00311L59.7673 3.74674C59.3468 3.32911 58.7689 3.14024 58.1805 3.22849C57.5928 3.31661 57.0965 3.66686 56.8188 4.18924L54.8103 7.96936C54.7516 8.07974 54.7066 8.19386 54.672 8.30974L46.3778 16.5497C45.9923 16.9329 45.9923 17.5536 46.3778 17.9367C46.7634 18.3195 47.3883 18.3195 47.7739 17.9367L55.3851 10.3751L57.3798 12.3567L37.9151 31.6942L35.9204 29.7126L44.4166 21.2721C44.8021 20.889 44.8021 20.2682 44.4166 19.8851C44.0309 19.5024 43.4061 19.5024 43.0205 19.8851L36.8559 26.0094L30.1468 19.9976C32.049 14.5581 30.6715 8.50624 26.5452 4.40699C22.3187 0.208112 15.9782 -1.13001 10.392 0.998362C10.0798 1.11736 9.84943 1.38511 9.77997 1.70999C9.71052 2.03486 9.81105 2.37261 10.0475 2.60749L17.7971 10.3066C18.0264 10.5344 18.1528 10.8372 18.1528 11.1594C18.1528 11.4815 18.0265 11.7844 17.7971 12.0122L12.7644 17.0121C12.5351 17.24 12.2302 17.3655 11.906 17.3655C11.5817 17.3655 11.2769 17.2401 11.0475 17.0121L3.29773 9.31299C3.06119 9.07811 2.72147 8.97824 2.39433 9.04724C2.06732 9.11636 1.7978 9.34511 1.67802 9.65524C-0.464355 15.2047 0.882573 21.5037 5.1092 25.7029C9.13438 29.7016 15.108 31.1095 20.4971 29.3796L25.6844 35.015C25.4352 35.4989 25.111 35.9501 24.7113 36.3472C23.216 37.8327 20.975 38.3007 19.0015 37.5397C18.6367 37.3987 18.2229 37.4855 17.9461 37.7604L5.85973 49.7678C2.58784 53.0184 2.58784 58.3074 5.85973 61.5578C7.44496 63.1329 9.55236 64 11.7939 64C14.0353 64 16.1428 63.1329 17.7278 61.5583L29.8142 49.551C30.0907 49.2761 30.1779 48.8649 30.0362 48.5025C29.2701 46.542 29.7412 44.3154 31.2363 42.8299C32.7318 41.3444 34.973 40.8764 36.9464 41.6374C37.3114 41.7784 37.725 41.6914 38.0018 41.4168L40.2817 39.1517C40.9682 38.4697 41.3461 37.5629 41.3461 36.5985C41.3461 35.6341 40.9682 34.7272 40.2817 34.0452L39.3112 33.0811L40.4918 31.9082L60.4412 49.7841C61.8469 51.0438 62.648 52.773 62.6967 54.653C62.7454 56.533 62.035 58.3009 60.6964 59.6306C59.3642 60.9544 57.5892 61.6589 55.7093 61.6185C53.8256 61.5768 52.088 60.793 50.8165 59.4116L35.9835 43.2972C35.6152 42.8974 34.9911 42.8699 34.5889 43.2354C34.1866 43.601 34.1587 44.2213 34.5266 44.6209L49.3595 60.7353C50.9982 62.5154 53.2376 63.5254 55.6651 63.5793C55.733 63.5808 55.8009 63.5815 55.8687 63.5815C58.22 63.5815 60.4233 62.6754 62.0924 61.0175C63.8174 59.3036 64.7327 57.0254 64.6701 54.6025ZM56.5981 8.80624L58.4878 5.24949L62.5392 9.27436L58.959 11.1517L56.5981 8.80624ZM21.5157 27.5799C21.2439 27.2849 20.8194 27.1831 20.4422 27.3229C15.6152 29.1116 10.1442 27.9314 6.50507 24.3164C3.20072 21.0335 1.92036 16.2742 3.0486 11.8395L9.65138 18.3991C10.2537 18.9974 11.0543 19.3267 11.9059 19.3267C12.7574 19.3267 13.558 18.9974 14.1602 18.3991L19.193 13.3992C19.7952 12.8009 20.1267 12.0055 20.1267 11.1595C20.1267 10.3135 19.7952 9.51811 19.193 8.91986L12.5903 2.35999C17.0539 1.23861 21.8449 2.51099 25.1492 5.79386C28.8809 9.50099 30.0277 15.0442 28.071 19.9161C27.9179 20.2972 28.0198 20.7329 28.3267 21.0077L35.4582 27.398L34.5243 28.3257L33.5538 27.3616C32.8674 26.6796 31.9545 26.3041 30.9838 26.3041C30.0131 26.3041 29.1002 26.6796 28.4138 27.3616L26.1339 29.6266C25.8573 29.9015 25.7701 30.3127 25.9118 30.6751C26.1744 31.347 26.2882 32.0497 26.2687 32.7436L21.5157 27.5799ZM38.8854 37.7649L37.0381 39.6002C34.4975 38.8726 31.7329 39.5629 29.8404 41.4429H29.8403C27.948 43.323 27.253 46.0691 27.9857 48.5936L16.3318 60.1711C15.1196 61.3754 13.5081 62.0386 11.794 62.0386C10.0799 62.0386 8.46815 61.3754 7.25623 60.1711C4.754 57.6854 4.754 53.6406 7.25623 51.1548L18.91 39.5771C21.4509 40.3051 24.2151 39.6144 26.1077 37.7344C28 35.8542 28.6951 33.1081 27.9624 30.5837L29.8099 28.7485C30.4571 28.1052 31.5106 28.1052 32.1578 28.7485L38.8854 35.4321C39.5329 36.0754 39.5329 37.1219 38.8854 37.7649Z M20.8868 43.2811C20.5012 42.8982 19.8763 42.8982 19.4907 43.2811L10.1398 52.5709C9.7543 52.954 9.7543 53.5748 10.1398 53.9579C10.3326 54.1493 10.5854 54.245 10.8379 54.245C11.0904 54.245 11.3432 54.1493 11.5359 53.9579L20.8868 44.6681C21.2722 44.285 21.2722 43.6641 20.8868 43.2811Z M24.3418 46.7135C23.9562 46.3306 23.3313 46.3306 22.9456 46.7135L13.5948 56.0031C13.2093 56.3863 13.2093 57.007 13.5948 57.3901C13.7875 57.5815 14.0402 57.6773 14.2928 57.6773C14.5454 57.6773 14.7981 57.5815 14.9909 57.3901L24.3418 48.1005C24.7273 47.7174 24.7273 47.0966 24.3418 46.7135Z"/></svg>