<svg width="53" height="64" viewBox="0 0 53 64" xmlns="http://www.w3.org/2000/svg">
<path d="M26.5 5.00125C25.8012 5.00125 25.2394 5.55875 25.2394 6.25C25.2394 6.89337 25.728 7.42875 26.3738 7.49225C27.1215 7.56575 27.7606 6.98887 27.7606 6.25C27.7606 5.55775 27.1978 5.00125 26.5 5.00125Z M51.7381 7.5C48.259 7.5 45.4286 4.69625 45.4286 1.25C45.4286 0.55975 44.8635 0 44.1667 0H8.83333C8.13651 0 7.57143 0.55975 7.57143 1.25C7.57143 4.69625 4.74098 7.5 1.2619 7.5C0.565081 7.5 0 8.05975 0 8.75V29.1488C0 45.0459 10.4606 59.2906 26.1376 63.9474C26.2558 63.9824 26.3778 64 26.5 64C26.6222 64 26.7444 63.9824 26.8625 63.9473C42.2 59.3899 53 45.3936 53 29.1488V8.75C53 8.05975 52.4349 7.5 51.7381 7.5ZM50.4762 29.1488C50.4762 44.0798 40.8578 57.0103 26.5 61.4429C12.2566 57.0456 2.52381 43.998 2.52381 29.1488V9.911C6.38663 9.36125 9.45041 6.32638 10.0054 2.5H42.9946C43.5496 6.32638 46.6134 9.36125 50.4762 9.911V29.1488Z M47.1968 11.5612C44.5652 10.4196 42.4811 8.35525 41.3286 5.7485C41.1275 5.29375 40.674 5 40.1727 5H31.5451C30.8483 5 30.2832 5.55975 30.2832 6.25C30.2832 6.94025 30.8483 7.5 31.5451 7.5H39.3748C40.708 10.0851 42.8188 12.1759 45.4286 13.4966V29.1488C45.4286 41.3816 38.015 51.9366 26.5 56.1618C14.985 51.9365 7.57143 41.3816 7.57143 29.1488V13.4966C10.1812 12.1759 12.2918 10.0851 13.6252 7.5H21.4549C22.1517 7.5 22.7168 6.94025 22.7168 6.25C22.7168 5.55975 22.1517 5 21.4549 5H12.8273C12.326 5 11.8725 5.29387 11.6714 5.7485C10.5189 8.35525 8.43482 10.4196 5.80325 11.5612C5.34429 11.7605 5.04762 12.2099 5.04762 12.7063V29.1488C5.04762 42.5504 13.4154 54.2304 26.079 58.6695C26.2152 58.7172 26.3575 58.7411 26.5 58.7411C26.6425 58.7411 26.7848 58.7172 26.921 58.6695C39.574 54.2341 47.9524 42.5613 47.9524 29.1488V12.7063C47.9524 12.2098 47.6557 11.7605 47.1968 11.5612Z M26.5 18.25C20.2377 18.25 15.1429 23.2968 15.1429 29.5C15.1429 35.7032 20.2377 40.75 26.5 40.75C32.7623 40.75 37.8571 35.7032 37.8571 29.5C37.8571 23.2968 32.7623 18.25 26.5 18.25ZM26.5 38.25C21.6293 38.25 17.6667 34.3247 17.6667 29.5C17.6667 24.6753 21.6293 20.75 26.5 20.75C31.3707 20.75 35.3333 24.6753 35.3333 29.5C35.3333 34.3247 31.3707 38.25 26.5 38.25Z M32.4399 26.116C31.947 25.628 31.1482 25.628 30.6552 26.116L25.2381 31.4821L23.6066 29.8661C23.1137 29.3781 22.3149 29.3781 21.8219 29.8661C21.3291 30.3543 21.3291 31.1458 21.8219 31.634L24.3457 34.134C24.5923 34.3779 24.915 34.5 25.2381 34.5C25.5611 34.5 25.8839 34.3779 26.1304 34.1339L32.4399 27.8839C32.9327 27.3957 32.9327 26.6042 32.4399 26.116Z"/></svg>