<svg width="64" height="64" viewBox="0 0 64 64" xmlns="http://www.w3.org/2000/svg">
<path d="M49.0407 28.2593C49.0407 26.2332 47.3924 24.5851 45.3663 24.5851H38.6135C40.2542 22.7409 41.3264 20.6411 41.5335 18.7572C41.66 17.6066 41.3045 16.4644 40.5579 15.6236C39.8755 14.8549 38.9424 14.4266 37.9304 14.4172C37.9187 14.4171 37.9069 14.4171 37.8953 14.4171C36.9164 14.4171 35.9977 14.7941 35.3043 15.4811C34.6108 16.1682 34.227 17.0836 34.2225 18.0604C34.1869 18.2743 33.8107 19.0117 32.89 19.8872C32.1363 20.6042 30.8343 21.5898 28.9119 22.2139C28.1582 22.4587 27.4693 22.9093 26.8645 23.5533C26.5472 23.8911 26.0719 24.3576 25.4835 24.8258C25.1948 24.6728 24.8664 24.5853 24.5175 24.5853H18.1042C16.9622 24.5853 16.0332 25.5143 16.0332 26.6563V43.7586C16.0332 44.9006 16.9622 45.8296 18.1042 45.8296H24.5175C25.296 45.8296 25.9749 45.3973 26.3287 44.7607H42.694C44.4254 44.7607 45.8339 43.3522 45.8339 41.6208C45.8339 41.0387 45.6748 40.4932 45.3976 40.0252C46.2997 39.4729 46.9028 38.4782 46.9028 37.3452C46.9028 36.7631 46.7437 36.2176 46.4664 35.7496C47.3685 35.1973 47.9717 34.2026 47.9717 33.0696C47.9717 32.4143 47.7699 31.8053 47.4253 31.3013C48.3994 30.6397 49.0407 29.5229 49.0407 28.2593ZM45.3663 29.9294H44.8318C44.2784 29.9294 43.8297 30.3781 43.8297 30.9316C43.8297 31.4849 44.2783 31.9337 44.8318 31.9337C45.4581 31.9337 45.9676 32.4432 45.9676 33.0694C45.9676 33.6957 45.4581 34.2052 44.8318 34.2052H43.7629C43.2096 34.2052 42.7608 34.6538 42.7608 35.2073C42.7608 35.7607 43.2094 36.2094 43.7629 36.2094C44.3892 36.2094 44.8987 36.7189 44.8987 37.3452C44.8987 37.9714 44.3892 38.4809 43.7629 38.4809H42.694C42.1407 38.4809 41.6919 38.9296 41.6919 39.4831C41.6919 40.0364 42.1405 40.4852 42.694 40.4852C43.3203 40.4852 43.8298 40.9947 43.8298 41.6209C43.8298 42.2472 43.3203 42.7567 42.694 42.7567H26.5885V33.0698C26.5885 32.5164 26.1399 32.0677 25.5864 32.0677C25.0329 32.0677 24.5843 32.5163 24.5843 33.0698V43.7587C24.5843 43.7956 24.5544 43.8254 24.5175 43.8254H18.1042C18.0673 43.8254 18.0374 43.7956 18.0374 43.7587V26.6559C18.0374 26.6191 18.0673 26.5892 18.1042 26.5892H24.5175C24.5544 26.5892 24.5843 26.6191 24.5843 26.6559V28.7938C24.5843 29.3472 25.0329 29.7959 25.5864 29.7959C26.1399 29.7959 26.5885 29.3473 26.5885 28.7938V26.6559C26.5885 26.6073 26.5845 26.5597 26.5812 26.5119C27.3325 25.9303 27.9334 25.3423 28.3254 24.9251C28.6963 24.5299 29.1018 24.2592 29.5307 24.1201C31.8894 23.3543 33.4768 22.1213 34.3929 21.2218C35.5412 20.0944 36.2265 18.9192 36.2265 18.0778C36.2265 17.6333 36.3999 17.2167 36.7148 16.9047C37.0335 16.5888 37.4557 16.4219 37.9118 16.4213C38.4735 16.4266 38.8455 16.7139 39.0589 16.9542C39.4247 17.3661 39.6047 17.9583 39.541 18.5382C39.3222 20.5293 37.7298 22.9906 35.4843 24.8083C35.1544 25.0754 35.0285 25.5214 35.1702 25.9216C35.3118 26.3217 35.6903 26.5892 36.1148 26.5892H45.366C46.287 26.5892 47.0362 27.3383 47.0362 28.2593C47.0362 29.1803 46.2872 29.9294 45.3663 29.9294Z M21.3109 39.5387C20.7575 39.5387 20.3035 39.9927 20.3035 40.5461C20.3035 41.0994 20.7575 41.5534 21.3109 41.5534C21.8643 41.5534 22.3183 41.0994 22.3183 40.5461C22.3184 39.9928 21.8644 39.5387 21.3109 39.5387Z M62.2136 32.0004L63.9351 27.4451C64.0604 27.1137 64.0013 26.7408 63.7797 26.4642L60.7348 22.6637L60.9643 17.7993C60.9811 17.4456 60.8095 17.1089 60.5135 16.9146L56.4433 14.2409L55.1585 9.54369C55.065 9.20194 54.7981 8.93494 54.4564 8.84157L49.7592 7.55682L47.0856 3.48669C46.8911 3.19057 46.5545 3.01982 46.2008 3.03594L41.3364 3.26544L37.5359 0.220567C37.2594 -0.000933469 36.8865 -0.0600585 36.555 0.0651915L31.9997 1.78669L27.4445 0.0653165C27.1129 -0.0600585 26.7402 -0.000933483 26.4637 0.220692L22.6632 3.26557L17.7988 3.03607C17.4433 3.01932 17.1084 3.19082 16.914 3.48682L14.2405 7.55707L9.5433 8.84182C9.20155 8.93532 8.93455 9.20232 8.84117 9.54394L7.55642 14.2412L3.48617 16.9147C3.19004 17.1092 3.01867 17.4457 3.03542 17.7994L3.26492 22.6638L0.220044 26.4643C-0.00145595 26.7408 -0.0605809 27.1137 0.0646691 27.4452L1.78604 32.0004L0.0645441 36.5557C-0.060831 36.8871 -0.00170594 37.2599 0.219919 37.5366L3.26479 41.3371L3.03529 46.2014C3.01854 46.5552 3.19004 46.8918 3.48604 47.0862L7.55629 49.7598L8.84105 54.4571C8.93455 54.7988 9.20155 55.0658 9.54317 55.1592L14.2404 56.4439L16.9139 60.5142C17.1084 60.8103 17.4455 60.9806 17.7987 60.965L22.663 60.7355L26.4635 63.7803C26.74 64.002 27.113 64.0611 27.4444 63.9357L31.9998 62.2142L36.5552 63.9357C36.6702 63.9791 36.79 64.0003 36.9093 64.0003C37.1338 64.0003 37.3554 63.925 37.5359 63.7803L41.3364 60.7355L46.2008 60.965C46.5557 60.9807 46.8911 60.8102 47.0856 60.5142L49.7592 56.4439L54.4564 55.1592C54.7982 55.0657 55.0652 54.7987 55.1585 54.4571L56.4433 49.7598L60.5135 47.0862C60.8097 46.8917 60.9811 46.5552 60.9643 46.2014L60.7348 41.3371L63.7797 37.5366C64.0012 37.2601 64.0603 36.8872 63.9351 36.5557L62.2136 32.0004ZM60.2049 32.3547L61.8582 36.7296L58.9339 40.3794C58.7813 40.5698 58.7034 40.8094 58.7149 41.0532L58.9354 45.7248L55.0265 48.2924C54.8227 48.4263 54.6744 48.6302 54.61 48.8657L53.3762 53.3768L48.865 54.6107C48.6297 54.6751 48.4259 54.8232 48.2918 55.0272L45.7242 58.9361L41.0525 58.7156C40.8087 58.7043 40.5692 58.7819 40.3788 58.9346L36.7289 61.8588L32.354 60.2056C32.2399 60.1624 32.1198 60.1409 31.9998 60.1409C31.8798 60.1409 31.7597 60.1626 31.6455 60.2056L27.2707 61.8588L23.6208 58.9346C23.4304 58.7819 23.1904 58.7043 22.947 58.7156L18.2754 58.9361L15.7078 55.0272C15.5739 54.8233 15.37 54.6751 15.1345 54.6107L10.6234 53.3768L9.38954 48.8657C9.32517 48.6303 9.17705 48.4266 8.97305 48.2924L5.06417 45.7248L5.28467 41.0532C5.29617 40.8093 5.21829 40.5698 5.06567 40.3794L2.14142 36.7296L3.79479 32.3547C3.88104 32.1264 3.88104 31.8744 3.79479 31.6462L2.14142 27.2713L5.06567 23.6214C5.21829 23.4311 5.29617 23.1914 5.28467 22.9477L5.06417 18.2761L8.97305 15.7084C9.17692 15.5746 9.32517 15.3707 9.38954 15.1352L10.6234 10.6241L15.1345 9.39019C15.3699 9.32582 15.5737 9.17769 15.7078 8.97369L18.2754 5.06482L22.947 5.28532C23.1905 5.29669 23.4304 5.21894 23.6208 5.06632L27.2707 2.14207L31.6455 3.79544C31.8739 3.88169 32.1258 3.88169 32.354 3.79544L36.7289 2.14207L40.3788 5.06632C40.5692 5.21907 40.8089 5.29682 41.0525 5.28532L45.7242 5.06482L48.2918 8.97369C48.4257 9.17757 48.6295 9.32582 48.865 9.39019L53.3762 10.6241L54.61 15.1352C54.6744 15.3706 54.8225 15.5743 55.0265 15.7084L58.9354 18.2761L58.7149 22.9477C58.7034 23.1916 58.7813 23.4311 58.9339 23.6214L61.8582 27.2713L60.2048 31.6462C60.1187 31.8746 60.1187 32.1264 60.2049 32.3547Z M50.8291 14.6972C50.5797 14.4257 50.321 14.1557 50.0599 13.8947C49.7988 13.6337 49.5289 13.3749 49.2574 13.1256C48.8498 12.7513 48.2159 12.7783 47.8416 13.1861C47.4673 13.5937 47.4943 14.2277 47.902 14.6019C48.1524 14.8319 48.4017 15.0707 48.6427 15.3117C48.8836 15.5526 49.1224 15.8019 49.3525 16.0524C49.5502 16.2677 49.8202 16.3768 50.0911 16.3768C50.3332 16.3768 50.576 16.2896 50.7684 16.1129C51.1762 15.7388 51.2033 15.1048 50.8291 14.6972Z M45.6988 10.3911C40.8663 7.31232 35.048 5.94407 29.3164 6.53744C23.5008 7.13994 18.017 9.75269 13.875 13.8946C9.31667 18.4529 6.66267 24.5084 6.40192 30.9456C6.14279 37.3448 8.26229 43.5578 12.3702 48.4398C12.5683 48.6753 12.8518 48.7967 13.1375 48.7967C13.3653 48.7967 13.5943 48.7194 13.7822 48.5614C14.2055 48.2051 14.26 47.5729 13.9038 47.1496C10.1187 42.6509 8.16567 36.9252 8.40442 31.0268C8.64467 25.0941 11.0907 19.5131 15.292 15.3118C19.1095 11.4942 24.1635 9.08607 29.5228 8.53094C34.8072 7.98344 40.1692 9.24457 44.6218 12.0813C45.0887 12.3787 45.7079 12.2414 46.0053 11.7747C46.3028 11.3078 46.1654 10.6884 45.6988 10.3911Z M53.5637 18.2558C53.2663 17.7889 52.6465 17.6517 52.18 17.9491C51.7132 18.2464 51.5761 18.8659 51.8734 19.3326C54.7102 23.7853 55.9711 29.1476 55.4238 34.4316C54.8687 39.7908 52.4605 44.8447 48.643 48.6624C44.4417 52.8637 38.8607 55.3098 32.928 55.5501C27.0307 55.7898 21.3038 53.8359 16.8053 50.0509C16.3819 49.6946 15.7498 49.7491 15.3934 50.1726C15.037 50.5959 15.0915 51.2281 15.515 51.5844C20.1302 55.4676 25.9339 57.5741 31.9608 57.5739C32.3094 57.5739 32.6594 57.5668 33.0094 57.5527C39.4465 57.2921 45.5019 54.6381 50.0604 50.0797C54.2024 45.9377 56.8153 40.4538 57.4176 34.6382C58.0111 28.9062 56.6424 23.0882 53.5637 18.2558Z"/></svg>