<svg width="64" height="65" viewBox="0 0 64 65" xmlns="http://www.w3.org/2000/svg">
<path d="M60.4229 33.7833H60.3759V14.2847C60.3759 13.4734 59.7375 12.8156 58.9502 12.8156H51.4434L45.8336 1.38563C45.663 1.03808 45.3652 0.774402 45.0058 0.65293C44.6466 0.53133 44.2552 0.561859 43.9178 0.73769L20.7455 12.8154H5.77376C2.65626 12.8154 0.12575 15.3253 0.00550001 18.5326C0.00537501 18.5372 0.00562501 18.5421 0.00550001 18.547C0.00537501 18.5505 0.00475001 18.5541 0.00462501 18.5577C0.00225 18.627 0 18.6961 0 18.7655V58.6297C0 61.9104 2.59013 64.5796 5.77376 64.5796H58.9501C59.7374 64.5796 60.3757 63.9217 60.3757 63.1105V51.7936H60.4227C62.3953 51.7936 64 50.1398 64 48.1072V37.4699C64.0001 35.4372 62.3953 33.7833 60.4229 33.7833ZM57.5245 15.7538V21.4514H55.6817L52.8854 15.7538H57.5245ZM21.729 15.5959C21.7294 15.5958 21.7299 15.5955 21.7303 15.5951L43.9323 4.02284L49.2939 14.9468C49.294 14.9471 49.2941 14.9476 49.2942 14.9478L52.4864 21.4515H49.7231C49.7047 21.4009 49.6846 21.3504 49.6605 21.3013L45.9911 13.825C45.704 13.2401 45.0756 12.9217 44.4506 13.0451L44.014 13.1313C42.3423 13.4625 40.6231 12.6795 39.7347 11.1852L39.4507 10.7075C39.0628 10.0552 38.2543 9.81884 37.5917 10.1641L15.936 21.4513H10.4944L21.729 15.5959ZM46.539 21.4515H22.2535L37.7452 13.3769C39.2041 15.304 41.5513 16.347 43.9178 16.111L46.539 21.4515ZM5.77376 15.7538H15.1082L4.63526 21.2125C3.82988 20.8589 3.21401 20.141 2.96888 19.2763C2.96663 19.2678 2.96401 19.2594 2.96176 19.251C2.94626 19.1942 2.93226 19.1366 2.92001 19.0785C2.90963 19.0284 2.90076 18.9775 2.89276 18.9265C2.88638 18.8865 2.88038 18.8461 2.87551 18.8056C2.86726 18.7348 2.86138 18.6635 2.85788 18.5913C2.94501 16.9953 4.21401 15.7538 5.77376 15.7538ZM57.5245 61.6413H5.77376C4.16226 61.6413 2.85126 60.2903 2.85126 58.6297V57.9459H46.4132C47.2005 57.9459 47.8388 57.2881 47.8388 56.4768C47.8388 55.6655 47.2005 55.0077 46.4132 55.0077H2.85126V23.5799C3.41926 23.9219 4.05038 24.1637 4.72176 24.2897C4.72551 24.2905 4.72913 24.2911 4.73288 24.2919C4.73451 24.2922 4.73601 24.2922 4.73763 24.2925C4.75088 24.295 4.76413 24.2974 4.77738 24.2999C4.77801 24.2999 4.77838 24.3001 4.77901 24.3001C4.78988 24.3021 4.80076 24.3034 4.81163 24.3053C4.89563 24.3197 4.97989 24.3332 5.06514 24.3438C5.08201 24.346 5.09864 24.3482 5.11564 24.3501C5.11576 24.3501 5.11601 24.3502 5.11626 24.3502C5.15576 24.3549 5.19576 24.3576 5.23539 24.3615C5.29389 24.367 5.35189 24.3737 5.41089 24.3773C5.42551 24.3782 5.44014 24.3792 5.45476 24.3801C5.56601 24.3866 5.67064 24.3898 5.77376 24.3898H57.5245V27.6311H13.5837C12.7964 27.6311 12.158 28.289 12.158 29.1003C12.158 29.9115 12.7964 30.5694 13.5837 30.5694H57.5246V33.7834H36.9021C36.1148 33.7834 35.4764 34.4413 35.4764 35.2526V50.3246C35.4764 51.1359 36.1148 51.7937 36.9021 51.7937H57.5245V61.6413ZM60.4229 48.8554H38.3277V36.7216H60.4227C60.8232 36.7216 61.1487 37.0571 61.1487 37.4699V48.1072C61.1489 48.5198 60.8232 48.8554 60.4229 48.8554Z M45.4097 37.242C42.4418 37.242 40.0273 39.7303 40.0273 42.7885C40.0273 45.8469 42.442 48.3351 45.4097 48.3351C48.3775 48.3351 50.792 45.8468 50.792 42.7885C50.792 39.7302 48.3776 37.242 45.4097 37.242ZM45.4097 45.397C44.0141 45.397 42.8785 44.2268 42.8785 42.7885C42.8785 41.3504 44.014 40.1802 45.4097 40.1802C46.8052 40.1802 47.9407 41.3504 47.9407 42.7885C47.9408 44.2268 46.8053 45.397 45.4097 45.397Z M52.1452 56.19C52.1267 56.0959 52.0997 56.0033 52.0641 55.9153C52.0285 55.8256 51.9841 55.7405 51.9329 55.6611C51.8817 55.5804 51.8219 55.5054 51.7562 55.4378C51.4241 55.0969 50.9322 54.9398 50.4689 55.0366C50.3776 55.0543 50.2879 55.0837 50.2022 55.1204C50.1167 55.1571 50.034 55.2028 49.9557 55.2555C49.8787 55.3084 49.8059 55.3701 49.7389 55.4376C49.6732 55.5053 49.6134 55.5801 49.5621 55.661C49.511 55.7404 49.4666 55.8255 49.431 55.9152C49.3953 56.0033 49.3684 56.0957 49.3499 56.1899C49.3312 56.2839 49.3227 56.3809 49.3227 56.4764C49.3227 56.5717 49.3312 56.6688 49.3499 56.7643C49.3684 56.8569 49.3953 56.9493 49.431 57.0391C49.4666 57.1272 49.511 57.2124 49.5621 57.2918C49.6135 57.3726 49.6734 57.4475 49.7389 57.5152C49.8059 57.5828 49.8786 57.6445 49.9557 57.6988C50.0341 57.7518 50.1169 57.7973 50.2022 57.834C50.2879 57.8707 50.3776 57.8986 50.4689 57.9177C50.5615 57.9368 50.6542 57.9457 50.7482 57.9457C50.8409 57.9457 50.9336 57.9366 51.0262 57.9177C51.1175 57.8986 51.2072 57.8707 51.2929 57.834C51.3784 57.7973 51.4611 57.7517 51.5394 57.6988C51.6164 57.6445 51.6906 57.5828 51.7562 57.5152C51.8219 57.4475 51.8817 57.3727 51.9329 57.2918C51.9842 57.2124 52.0285 57.1273 52.0641 57.0391C52.0997 56.9494 52.1267 56.8569 52.1452 56.7643C52.1637 56.6688 52.1737 56.5717 52.1737 56.4764C52.1737 56.3811 52.1637 56.2839 52.1452 56.19Z M10.647 28.8129C10.6286 28.7189 10.6014 28.6264 10.5658 28.5383C10.5301 28.45 10.4859 28.3647 10.4346 28.2841C10.3819 28.2048 10.322 28.1284 10.2564 28.0607C10.1908 27.9931 10.1181 27.9313 10.0396 27.8786C9.96265 27.8257 9.88002 27.7802 9.7944 27.7435C9.7074 27.7068 9.61764 27.6788 9.52777 27.6597C9.34389 27.6215 9.15427 27.6215 8.97039 27.6597C8.87902 27.6788 8.78914 27.7068 8.70377 27.7435C8.61677 27.7802 8.53414 27.8258 8.45714 27.8786C8.37877 27.9313 8.30602 27.9932 8.24039 28.0607C8.17477 28.1284 8.11489 28.2046 8.06364 28.2841C8.01252 28.3649 7.96814 28.4501 7.93252 28.5383C7.89689 28.6264 7.86989 28.7189 7.85127 28.8129C7.83277 28.9083 7.82289 29.004 7.82289 29.0994C7.82289 29.1964 7.83277 29.2919 7.85127 29.3873C7.86989 29.4814 7.89689 29.5741 7.93252 29.662C7.96814 29.7503 8.01252 29.8354 8.06364 29.9162C8.11502 29.9955 8.17489 30.0705 8.24039 30.138C8.30602 30.207 8.37864 30.2673 8.45714 30.3217C8.53414 30.3746 8.61677 30.4201 8.70377 30.4568C8.78927 30.4935 8.87902 30.5215 8.97039 30.5405C9.06164 30.5596 9.15577 30.5698 9.24839 30.5698C9.34089 30.5698 9.43514 30.5596 9.52777 30.5405C9.61764 30.5215 9.7074 30.4935 9.7944 30.4568C9.8799 30.4201 9.96265 30.3745 10.0396 30.3217C10.118 30.2673 10.1908 30.207 10.2564 30.138C10.322 30.0704 10.3819 29.9955 10.4346 29.9162C10.486 29.8353 10.5301 29.7501 10.5658 29.662C10.6014 29.5739 10.6285 29.4814 10.647 29.3873C10.6655 29.2919 10.6741 29.1962 10.6741 29.0994C10.674 29.004 10.6654 28.9083 10.647 28.8129Z"/></svg>