<svg width="51" height="64" viewBox="0 0 51 64" xmlns="http://www.w3.org/2000/svg">
<path d="M34.316 7.97429C27.0623 4.41703 18.3245 5.77716 12.5735 11.3587C5.88951 17.8454 5.22053 28.1887 11.0175 35.418C11.2224 35.6735 11.5287 35.8072 11.8383 35.8072C12.0614 35.8072 12.2862 35.7378 12.4759 35.5945C12.9289 35.2523 13.0103 34.6187 12.6579 34.1791C7.50349 27.7513 8.09918 18.5538 14.0434 12.7849C19.158 7.82091 26.9281 6.61116 33.3789 9.77454C33.891 10.026 34.5162 9.82629 34.7751 9.32916C35.0338 8.83204 34.8285 8.22541 34.316 7.97429Z M42.6147 16.0297C42.3558 15.5325 41.731 15.333 41.2184 15.584C40.7061 15.8352 40.5004 16.4417 40.7592 16.9391C44.0164 23.1986 42.7692 30.7386 37.6558 35.7011C31.7115 41.4698 22.2346 42.0478 15.6115 37.0457C15.1584 36.7037 14.5056 36.7827 14.1531 37.2222C13.8006 37.6618 13.8821 38.2955 14.3351 38.6376C17.7282 41.2003 21.7868 42.4608 25.8324 42.4608C30.6685 42.4608 35.4862 40.6595 39.1256 37.1273C44.8753 31.5473 46.2774 23.0688 42.6147 16.0297Z M39.9296 12.1883C39.6721 11.9055 39.4017 11.6263 39.1256 11.3585C38.8496 11.0907 38.562 10.8282 38.2707 10.5783C37.8406 10.2093 37.1837 10.2488 36.8039 10.6662C36.4236 11.0834 36.464 11.7208 36.8941 12.0897C37.1536 12.3122 37.4099 12.5462 37.6559 12.7848C37.9017 13.0235 38.1428 13.2722 38.3722 13.524C38.5775 13.7495 38.8637 13.8647 39.1513 13.8647C39.3959 13.8647 39.6413 13.7813 39.8391 13.6118C40.2692 13.243 40.3097 12.6057 39.9296 12.1883Z M50.3785 26.0511C51.0715 24.9477 51.0715 23.5772 50.3783 22.4741L49.0111 20.2982C48.831 20.0114 48.7613 19.6709 48.8152 19.3394L49.2227 16.8266C49.4304 15.5459 48.8883 14.2768 47.8082 13.5142L45.6893 12.0184C45.4092 11.8205 45.2101 11.5319 45.1286 11.2052L44.5115 8.73029C44.1982 7.47316 43.1989 6.50341 41.9037 6.19916L39.3535 5.60016C39.0168 5.52103 38.7191 5.32778 38.5155 5.05591L36.9741 2.99903C36.1884 1.95078 34.8806 1.4244 33.5614 1.62615L30.9713 2.02165C30.6297 2.07378 30.2787 2.00628 29.9835 1.83152L27.7411 0.504272C26.6043 -0.168479 25.1922 -0.168354 24.0554 0.504272L21.8133 1.83115C21.5181 2.00603 21.1674 2.07328 20.8254 2.02128L18.236 1.62577C16.9169 1.42427 15.6089 1.9504 14.8233 2.99865L13.282 5.05503C13.0782 5.32691 12.7806 5.52016 12.4438 5.59928L9.89374 6.19816C8.59867 6.50216 7.59919 7.47203 7.28569 8.72904L6.66849 11.204C6.58696 11.5308 6.38797 11.8197 6.1077 12.0173L3.98832 13.5133C2.90821 14.2757 2.36622 15.5447 2.57372 16.8253L2.98124 19.3392C3.03495 19.6708 2.9654 20.0113 2.78534 20.2978L1.41788 22.4742C0.724943 23.5774 0.724943 24.9479 1.41801 26.0511L2.78521 28.2271C2.96527 28.5138 3.03495 28.8543 2.98111 29.1858L2.57359 31.6988C2.36584 32.9793 2.90795 34.2486 3.98806 35.0111L6.10693 36.5068C6.38706 36.7045 6.58619 36.9933 6.66772 37.3201L7.28479 39.795C7.59803 41.0521 8.59738 42.0218 9.89258 42.3261L10.9575 42.5762L3.75068 58.178C3.59754 58.5096 3.63992 58.8954 3.86184 59.1881C4.08363 59.4809 4.45032 59.6353 4.82229 59.592L10.6211 58.9191L13.9616 63.568C14.1571 63.8399 14.4761 63.9996 14.8137 63.9996C14.846 63.9996 14.8788 63.9981 14.9112 63.9953C15.284 63.9613 15.6092 63.7351 15.7623 63.4038L23.1225 47.4689L24.0552 48.0207C24.6235 48.3571 25.2607 48.5252 25.898 48.5252C26.5353 48.5252 27.1725 48.357 27.7409 48.0207L28.7071 47.449L36.0766 63.4038C36.2297 63.7354 36.5548 63.9613 36.9277 63.9953C36.9603 63.9983 36.9929 63.9998 37.0252 63.9998C37.3628 63.9998 37.6819 63.84 37.8773 63.5681L41.2178 58.9193L47.0166 59.5921C47.3883 59.635 47.7553 59.481 47.9771 59.1883C48.1989 58.8955 48.2415 58.5098 48.0882 58.1781L40.8777 42.5677L41.9025 42.3271C43.1976 42.0231 44.1971 41.0532 44.5106 39.7962L45.1278 37.3212C45.2093 36.9945 45.4084 36.7056 45.6886 36.508L47.808 35.012C48.8881 34.2496 49.4301 32.9806 49.2226 31.7L48.815 29.1861C48.7613 28.8544 48.8309 28.5139 49.0109 28.2274L50.3785 26.0511ZM14.6165 60.9533L11.9692 57.269C11.7497 56.9635 11.3744 56.8 10.9934 56.8445L6.39801 57.3777L12.964 43.1623C13.0841 43.248 13.1918 43.3506 13.2805 43.4692L14.822 45.5261C14.9684 45.7215 15.133 45.8986 15.3124 46.0564L11.8564 53.5385C11.6217 54.0469 11.8559 54.6435 12.3796 54.8714C12.5176 54.9315 12.662 54.9599 12.8039 54.9599C13.2009 54.9599 13.5801 54.7379 13.7528 54.3636L17.1966 46.9081C17.5355 46.9532 17.8844 46.9525 18.2346 46.899L20.8248 46.5035C20.9798 46.4799 21.1366 46.482 21.2892 46.5065L14.6165 60.9533ZM45.4412 57.3775L40.8456 56.8445C40.4642 56.8001 40.0893 56.9635 39.8698 57.269L37.2225 60.9533L30.547 46.5009C30.687 46.4824 30.8298 46.4824 30.9711 46.5039L33.5604 46.8994C33.9247 46.955 34.2878 46.9532 34.6396 46.9024L38.086 54.3639C38.259 54.7382 38.6379 54.9601 39.0348 54.9601C39.1769 54.9601 39.3213 54.9317 39.4592 54.8716C39.9829 54.6439 40.2172 54.047 39.9824 53.5387L36.5132 46.0281C36.6805 45.8774 36.8352 45.7105 36.9732 45.5265L38.5144 43.4701C38.6115 43.3405 38.7305 43.2293 38.8642 43.1395L45.4412 57.3775ZM48.6038 25.0008L47.2364 27.1772C46.8004 27.8714 46.6316 28.6962 46.7619 29.4994L47.1694 32.0132C47.255 32.5418 47.0312 33.0657 46.5854 33.3805L44.4659 34.8766C43.7875 35.3556 43.305 36.0552 43.1077 36.8466L42.4905 39.3216C42.3611 39.8405 41.9486 40.2408 41.4139 40.3665L38.8637 40.9653C38.0481 41.1568 37.3271 41.6251 36.8335 42.2836L35.2923 44.34C34.968 44.7729 34.4283 44.9899 33.8834 44.9066L31.294 44.5111C30.4662 44.3847 29.6163 44.5482 28.9008 44.9716L26.6588 46.2985C26.1896 46.576 25.6064 46.576 25.1375 46.2985L22.8949 44.9715C22.3372 44.6414 21.6979 44.4694 21.0509 44.4694C20.868 44.4694 20.6842 44.4831 20.502 44.511L17.9117 44.9065C17.3669 44.9897 16.8272 44.7724 16.5029 44.3397L14.9613 42.2828C14.4678 41.6245 13.7469 41.1562 12.9315 40.9647L10.3812 40.3657C9.8466 40.2401 9.43406 39.8398 9.30461 39.3208L8.68754 36.846C8.49022 36.0545 8.00787 35.3546 7.32923 34.8756L5.21049 33.3797C4.76459 33.065 4.54086 32.541 4.62664 32.0123L5.03416 29.4993C5.16438 28.6959 4.99591 27.8712 4.55967 27.1768L3.19247 25.0007C2.90641 24.5453 2.90641 23.9794 3.19247 23.5242L4.55993 21.3478C4.99604 20.6536 5.16464 19.8288 5.03442 19.0256L4.6269 16.5118C4.54125 15.9832 4.7651 15.4593 5.21087 15.1445L7.33039 13.6484C8.00877 13.1694 8.49125 12.4698 8.68857 11.6784L9.30577 9.20341C9.43521 8.68454 9.84763 8.28416 10.3824 8.15854L12.9326 7.55966C13.7482 7.36816 14.4692 6.89991 14.9626 6.24141L16.5038 4.18503C16.8281 3.75228 17.3678 3.5349 17.9127 3.61828L20.5021 4.01378C21.33 4.1404 22.18 3.97665 22.8953 3.55328L25.1373 2.2264C25.6065 1.9489 26.1897 1.9489 26.6587 2.2264L28.9012 3.5534C29.6166 3.9769 30.4666 4.14053 31.2942 4.01403L33.8844 3.61853C34.429 3.53565 34.9689 3.75265 35.2932 4.18528L36.8348 6.24216C37.3284 6.90053 38.0493 7.36878 38.8647 7.56029L41.4149 8.15929C41.9495 8.28491 42.3621 8.68516 42.4915 9.20416L43.1086 11.679C43.3059 12.4705 43.7883 13.1704 44.4669 13.6494L46.5858 15.1452C47.0317 15.4599 47.2554 15.9839 47.1696 16.5126L46.7621 19.0256C46.6319 19.8289 46.8004 20.6537 47.2366 21.3481L48.6038 23.5242C48.89 23.9796 48.89 24.5454 48.6038 25.0008Z M38.0589 21.1244C37.8299 20.4402 37.2304 19.9624 36.4942 19.8777L30.2408 19.1581L27.6033 13.6087C27.2928 12.9554 26.6394 12.5495 25.898 12.5495C25.1568 12.5495 24.5032 12.9554 24.1927 13.6087L21.5552 19.1582L15.3019 19.8778C14.5657 19.9626 13.966 20.4403 13.7371 21.1246C13.5081 21.8084 13.7039 22.5371 14.2479 23.0254L18.8711 27.1748L17.6439 33.1691C17.4996 33.8748 17.7824 34.5758 18.3822 34.9986C18.7131 35.2318 19.0971 35.35 19.4834 35.35C19.7976 35.35 20.1131 35.272 20.4031 35.1145L25.8979 32.1296L31.3927 35.1145C32.0396 35.466 32.8139 35.4216 33.4137 34.9987C34.0135 34.5758 34.2963 33.8747 34.1518 33.1691L32.9246 27.1749L37.5479 23.0256C38.0922 22.5372 38.2879 21.8087 38.0589 21.1244ZM31.0865 26.0773C30.8212 26.3154 30.7025 26.6703 30.7728 27.0143L32.0286 33.1482L26.4055 30.0936C26.2478 30.0079 26.0729 29.9651 25.8979 29.9651C25.7228 29.9651 25.5481 30.0078 25.3903 30.0936L19.7672 33.1482L21.023 27.0143C21.0936 26.6702 20.9747 26.3154 20.7092 26.0773L15.9782 21.8311L22.3777 21.0947C22.7365 21.0534 23.0476 20.8341 23.199 20.5157L25.898 14.8368L28.597 20.5157C28.7485 20.8341 29.0594 21.0534 29.4183 21.0947L35.8176 21.8311L31.0865 26.0773Z"/></svg>