<svg width="26" height="22" viewBox="0 0 26 22" xmlns="http://www.w3.org/2000/svg">
<path d="M23.8 1H2.2C1.53728 1 1 1.58395 1 2.30435V19.6957C1 20.416 1.53723 21 2.2 21H23.8C24.4627 21 25 20.416 25 19.6957V2.30435C25 1.584 24.4628 1 23.8 1ZM24.2 19.6957C24.2 19.9358 24.0209 20.1305 23.8 20.1305H2.2C1.97908 20.1305 1.80002 19.9358 1.80002 19.6957V2.30435C1.80002 2.06422 1.97908 1.86958 2.2 1.86958H23.8C24.0209 1.86958 24.2 2.06422 24.2 2.30435V19.6957Z M23.0348 2.74075C22.9291 2.73071 22.8241 2.76673 22.7428 2.84091L13.5148 11.267C13.2172 11.5389 12.7828 11.5389 12.4852 11.267L3.25722 2.84086C3.14777 2.741 2.99758 2.71216 2.86328 2.76525C2.72898 2.81834 2.63092 2.94531 2.60608 3.09832C2.58123 3.25133 2.63336 3.40708 2.74281 3.50695L11.9708 11.9326C12.5656 12.4769 13.4344 12.4769 14.0292 11.9326L23.2572 3.507C23.3385 3.43287 23.3893 3.32668 23.3985 3.21179C23.4078 3.09689 23.3746 2.98271 23.3064 2.89441C23.2382 2.80601 23.1405 2.75078 23.0348 2.74075Z M8.69331 11.8728C8.5517 11.8385 8.40414 11.8901 8.30758 12.0078L2.70756 18.5296C2.60622 18.6424 2.569 18.806 2.61034 18.9572C2.65169 19.1083 2.76508 19.2233 2.90664 19.2576C3.04825 19.292 3.19581 19.2403 3.29238 19.1226L8.89239 12.6009C8.99373 12.4881 9.03095 12.3244 8.98961 12.1733C8.94827 12.0222 8.83492 11.9072 8.69331 11.8728Z M17.6924 12.0078C17.5959 11.8901 17.4483 11.8385 17.3067 11.8728C17.1651 11.9072 17.0517 12.0222 17.0104 12.1733C16.969 12.3244 17.0063 12.4881 17.1076 12.6009L22.7076 19.1226C22.8595 19.2917 23.1078 19.298 23.2667 19.1368C23.4257 18.9756 23.4371 18.7059 23.2924 18.5295L17.6924 12.0078Z M22.7428 2.84091L22.9114 3.02553L22.9114 3.02552L22.7428 2.84091ZM13.5148 11.267L13.3462 11.0823L13.3461 11.0824L13.5148 11.267ZM12.4852 11.267L12.6538 11.0824L12.6537 11.0823L12.4852 11.267ZM3.25722 2.84086L3.42579 2.65625L3.42572 2.65618L3.25722 2.84086ZM2.74281 3.50695L2.91138 3.32233L2.91131 3.32227L2.74281 3.50695ZM11.9708 11.9326L12.1396 11.7482L12.1394 11.748L11.9708 11.9326ZM14.0292 11.9326L13.8607 11.748L13.8605 11.7482L14.0292 11.9326ZM23.2572 3.507L23.0887 3.32229L23.0886 3.32238L23.2572 3.507ZM23.3064 2.89441L23.1084 3.04706L23.1086 3.0473L23.3064 2.89441ZM8.30758 12.0078L8.4973 12.1707L8.50085 12.1664L8.30758 12.0078ZM2.70756 18.5296L2.89358 18.6967L2.89723 18.6924L2.70756 18.5296ZM2.61034 18.9572L2.85149 18.8912L2.85148 18.8912L2.61034 18.9572ZM2.90664 19.2576L2.8477 19.5006L2.84772 19.5006L2.90664 19.2576ZM3.29238 19.1226L3.10266 18.9597L3.0991 18.964L3.29238 19.1226ZM8.89239 12.6009L8.70637 12.4337L8.70272 12.438L8.89239 12.6009ZM17.6924 12.0078L17.4991 12.1664L17.5028 12.1707L17.6924 12.0078ZM17.0104 12.1733L16.7693 12.1073L16.7692 12.1073L17.0104 12.1733ZM17.1076 12.6009L17.2973 12.438L17.2936 12.4338L17.1076 12.6009ZM22.7076 19.1226L22.5179 19.2855L22.5217 19.2897L22.7076 19.1226ZM23.2924 18.5295L23.4858 18.371L23.4821 18.3667L23.2924 18.5295ZM23.8 0.75H2.2V1.25H23.8V0.75ZM2.2 0.75C1.38 0.75 0.75 1.46591 0.75 2.30435H1.25C1.25 1.70199 1.69456 1.25 2.2 1.25V0.75ZM0.75 2.30435V19.6957H1.25V2.30435H0.75ZM0.75 19.6957C0.75 20.534 1.37994 21.25 2.2 21.25V20.75C1.69453 20.75 1.25 20.298 1.25 19.6957H0.75ZM2.2 21.25H23.8V20.75H2.2V21.25ZM23.8 21.25C24.62 21.25 25.25 20.5341 25.25 19.6957H24.75C24.75 20.298 24.3054 20.75 23.8 20.75V21.25ZM25.25 19.6957V2.30435H24.75V19.6957H25.25ZM25.25 2.30435C25.25 1.46597 24.6201 0.75 23.8 0.75V1.25C24.3055 1.25 24.75 1.70203 24.75 2.30435H25.25ZM23.95 19.6957C23.95 19.8178 23.8636 19.8805 23.8 19.8805V20.3805C24.1782 20.3805 24.45 20.0539 24.45 19.6957H23.95ZM23.8 19.8805H2.2V20.3805H23.8V19.8805ZM2.2 19.8805C2.13637 19.8805 2.05002 19.8178 2.05002 19.6957H1.55002C1.55002 20.0539 1.82179 20.3805 2.2 20.3805V19.8805ZM2.05002 19.6957V2.30435H1.55002V19.6957H2.05002ZM2.05002 2.30435C2.05002 2.18225 2.13637 2.11958 2.2 2.11958V1.61958C1.82179 1.61958 1.55002 1.94618 1.55002 2.30435H2.05002ZM2.2 2.11958H23.8V1.61958H2.2V2.11958ZM23.8 2.11958C23.8636 2.11958 23.95 2.18226 23.95 2.30435H24.45C24.45 1.94618 24.1782 1.61958 23.8 1.61958V2.11958ZM23.95 2.30435V19.6957H24.45V2.30435H23.95ZM23.0584 2.49186C22.8797 2.47489 22.7055 2.53645 22.5742 2.65631L22.9114 3.02552C22.9426 2.99701 22.9785 2.98653 23.0112 2.98963L23.0584 2.49186ZM22.5743 2.6563L13.3462 11.0823L13.6834 11.4516L22.9114 3.02553L22.5743 2.6563ZM13.3461 11.0824C13.144 11.2671 12.8559 11.2671 12.6538 11.0824L12.3165 11.4515C12.7096 11.8107 13.2903 11.8107 13.6834 11.4515L13.3461 11.0824ZM12.6537 11.0823L3.42579 2.65625L3.08865 3.02548L12.3166 11.4516L12.6537 11.0823ZM3.42572 2.65618C3.24808 2.49411 2.99741 2.4434 2.77137 2.53276L2.95519 2.99774C2.99774 2.98092 3.04745 2.98789 3.08872 3.02555L3.42572 2.65618ZM2.77137 2.53276C2.54814 2.62101 2.39702 2.82603 2.35931 3.05825L2.85285 3.13839C2.86483 3.0646 2.90983 3.01568 2.95519 2.99774L2.77137 2.53276ZM2.35931 3.05825C2.32169 3.28997 2.39912 3.53179 2.57431 3.69163L2.91131 3.32227C2.8676 3.28238 2.84078 3.21268 2.85285 3.13839L2.35931 3.05825ZM2.57424 3.69157L11.8022 12.1172L12.1394 11.748L2.91138 3.32233L2.57424 3.69157ZM11.802 12.117C12.4923 12.7488 13.5077 12.7487 14.198 12.117L13.8605 11.7482C13.3612 12.205 12.6388 12.205 12.1396 11.7482L11.802 12.117ZM14.1978 12.1172L23.4258 3.69162L23.0886 3.32238L13.8607 11.748L14.1978 12.1172ZM23.4257 3.69171C23.5562 3.57267 23.6337 3.40648 23.6477 3.23182L23.1493 3.19176C23.1449 3.24689 23.1208 3.29306 23.0887 3.32229L23.4257 3.69171ZM23.6477 3.23182C23.6617 3.05717 23.6118 2.88084 23.5042 2.74152L23.1086 3.0473C23.1374 3.08459 23.1538 3.13661 23.1493 3.19176L23.6477 3.23182ZM23.5043 2.74177C23.3963 2.6016 23.2369 2.50881 23.0584 2.49186L23.0112 2.98963C23.0442 2.99276 23.0801 3.01043 23.1084 3.04706L23.5043 2.74177ZM8.75223 11.6299C8.5121 11.5716 8.26827 11.6616 8.1143 11.8493L8.50085 12.1664C8.54002 12.1187 8.59131 12.1053 8.63439 12.1158L8.75223 11.6299ZM8.11791 11.845L2.51789 18.3667L2.89723 18.6924L8.49725 12.1707L8.11791 11.845ZM2.52159 18.3625C2.3612 18.541 2.30632 18.7933 2.36921 19.0231L2.85148 18.8912C2.83168 18.8188 2.85124 18.7437 2.89353 18.6967L2.52159 18.3625ZM2.3692 19.0231C2.43232 19.2539 2.60981 19.4429 2.8477 19.5006L2.96558 19.0147C2.92034 19.0037 2.87106 18.9628 2.85149 18.8912L2.3692 19.0231ZM2.84772 19.5006C3.08785 19.5588 3.33169 19.4688 3.48565 19.2812L3.0991 18.964C3.05994 19.0118 3.00865 19.0251 2.96556 19.0147L2.84772 19.5006ZM3.48205 19.2855L9.08206 12.7637L8.70272 12.438L3.1027 18.9597L3.48205 19.2855ZM9.07836 12.7679C9.23876 12.5894 9.29363 12.3372 9.23075 12.1073L8.74847 12.2392C8.76827 12.3116 8.74871 12.3867 8.70642 12.4338L9.07836 12.7679ZM9.23075 12.1073C9.16764 11.8766 8.99024 11.6876 8.75223 11.6299L8.63439 12.1158C8.6796 12.1267 8.72889 12.1677 8.74847 12.2392L9.23075 12.1073ZM17.8857 11.8493C17.7318 11.6616 17.4879 11.5716 17.2478 11.6299L17.3656 12.1158C17.4087 12.1053 17.46 12.1187 17.4991 12.1664L17.8857 11.8493ZM17.2478 11.6299C17.0098 11.6876 16.8324 11.8766 16.7693 12.1073L17.2515 12.2392C17.2711 12.1677 17.3204 12.1267 17.3656 12.1158L17.2478 11.6299ZM16.7692 12.1073C16.7064 12.3372 16.7612 12.5894 16.9216 12.7679L17.2936 12.4338C17.2513 12.3867 17.2317 12.3117 17.2515 12.2392L16.7692 12.1073ZM16.9179 12.7637L22.518 19.2855L22.8973 18.9597L17.2973 12.438L16.9179 12.7637ZM22.5217 19.2897C22.7691 19.5651 23.1839 19.5768 23.4447 19.3123L23.0887 18.9612C23.0316 19.0192 22.9499 19.0182 22.8936 18.9555L22.5217 19.2897ZM23.4447 19.3123C23.6945 19.059 23.7105 18.6451 23.4857 18.371L23.0991 18.6881C23.1637 18.7668 23.1568 18.8922 23.0887 18.9612L23.4447 19.3123ZM23.4821 18.3667L17.8821 11.845L17.5028 12.1707L23.1028 18.6924L23.4821 18.3667Z"/>
</svg>
