<svg width="20" height="24" viewBox="0 0 20 24" xmlns="http://www.w3.org/2000/svg">
<path d="M9.99477 0C4.4851 0 0 4.31698 0 9.62013C0 10.2239 0.0575012 10.8327 0.177731 11.4264C0.182959 11.4616 0.203868 11.5673 0.245687 11.7484C0.397282 12.3975 0.622059 13.0365 0.914793 13.6453C1.99164 16.0855 4.35964 19.834 9.55567 23.8491C9.68636 23.9497 9.84318 24 10 24C10.1568 24 10.3136 23.9497 10.4443 23.8491C15.6351 19.834 18.0084 16.0855 19.0852 13.6453C19.3779 13.0365 19.6027 12.4025 19.7543 11.7484C19.7961 11.5673 19.817 11.4616 19.8223 11.4264C19.9373 10.8327 20 10.2239 20 9.62013C19.9895 4.31698 15.5044 0 9.99477 0ZM18.4213 11.1899C18.4213 11.2 18.4161 11.2101 18.4161 11.2201C18.4109 11.2453 18.3952 11.3208 18.3691 11.4365C18.3691 11.4415 18.3691 11.4415 18.3691 11.4465C18.2384 12.0101 18.045 12.5585 17.7888 13.0868C17.7836 13.0918 17.7836 13.1019 17.7784 13.1069C16.8008 15.3358 14.6576 18.7371 9.99477 22.4453C5.33194 18.7371 3.18871 15.3358 2.21119 13.1069C2.20596 13.1019 2.20596 13.0918 2.20073 13.0868C1.94982 12.5635 1.7564 12.0101 1.62049 11.4465C1.62049 11.4415 1.62049 11.4415 1.62049 11.4365C1.58913 11.3208 1.57867 11.2453 1.57345 11.2201C1.57345 11.2101 1.56822 11.2 1.56822 11.1849C1.46367 10.6667 1.4114 10.1434 1.4114 9.61509C1.4114 5.06164 5.26398 1.35346 9.99477 1.35346C14.7256 1.35346 18.5782 5.06164 18.5782 9.61509C18.5782 10.1484 18.5259 10.6767 18.4213 11.1899Z M9.99477 3.61761C6.49765 3.61761 3.64872 6.35975 3.64872 9.72579C3.64872 13.0918 6.49765 15.834 9.99477 15.834C13.4919 15.834 16.3408 13.0918 16.3408 9.72579C16.3408 6.35975 13.4919 3.61761 9.99477 3.61761ZM9.99477 14.4755C7.2713 14.4755 5.06012 12.3421 5.06012 9.72579C5.06012 7.10943 7.27653 4.9761 9.99477 4.9761C12.713 4.9761 14.9294 7.10943 14.9294 9.72579C14.9294 12.3421 12.7182 14.4755 9.99477 14.4755Z" /></svg>