<svg width="32" height="32" viewBox="0 0 32 32" xmlns="http://www.w3.org/2000/svg"><path d="M12.7207 16.0068L25.4564 4.03512C25.8071 3.70628 26 3.2666 26 2.79779C26 2.32872 25.8071 1.8893 25.4564 1.55993L24.3404 0.51148C23.9903 0.181593 23.5223 0 23.0235 0C22.5248 0 22.0573 0.181593 21.7069 0.51148L6.54305 14.7647C6.19126 15.0952 5.99862 15.5366 6.00001 16.006C5.99862 16.4774 6.19098 16.9184 6.54305 17.249L21.6928 31.4885C22.0432 31.8184 22.5107 32 23.0097 32C23.5084 32 23.9759 31.8184 24.3266 31.4885L25.4423 30.4401C26.1683 29.7577 26.1683 28.6468 25.4423 27.9646L12.7207 16.0068Z"/></svg>