<svg width="32" height="32" viewBox="0 0 32 32" xmlns="http://www.w3.org/2000/svg"><path d="M25.457 14.7514L10.3074 0.511215C9.95699 0.181592 9.48925 0 8.99051 0C8.49177 0 8.02402 0.181592 7.67363 0.511215L6.55797 1.55966C5.832 2.24284 5.832 3.35321 6.55797 4.03535L19.2795 15.9934L6.54385 27.9646C6.19346 28.2943 6 28.7337 6 29.2022C6 29.6713 6.19346 30.1107 6.54385 30.4406L7.65952 31.4888C8.01018 31.8184 8.47765 32 8.97639 32C9.47513 32 9.94287 31.8184 10.2933 31.4888L25.457 17.2356C25.8082 16.905 26.0011 16.4635 26 15.9941C26.0011 15.523 25.8082 15.0818 25.457 14.7514Z"/></svg>