<svg width="29" height="32" viewBox="0 0 29 32" xmlns="http://www.w3.org/2000/svg"><path d="M26.4011 0H2.19481C1.14886 0 0.297974 0.849814 0.297974 1.89432V30.1057C0.297974 31.1503 1.14892 32 2.19481 32H26.4011C27.4471 32 28.298 31.1502 28.298 30.1057V1.89432C28.298 0.849814 27.4471 0 26.4011 0ZM1.81543 1.89432C1.81543 1.68544 1.98559 1.51544 2.19481 1.51544H26.4011C26.6103 1.51544 26.7805 1.68538 26.7805 1.89432V8.46308H1.81543V1.89432ZM9.12547 30.4845H2.19481C1.98566 30.4846 1.81543 30.3146 1.81543 30.1057V20.9873H9.12547V30.4845ZM9.12547 19.4719H1.81543V9.97858H9.12547V19.4719ZM17.953 30.4846H10.6429V20.9873H17.953V30.4846ZM17.953 19.4719H10.6429V9.97858H17.953V19.4719ZM26.7805 30.1057C26.7805 30.3146 26.6102 30.4846 26.4011 30.4846H19.4704V9.97858H26.7805V30.1057Z M7.34629 13.9675H6.22918V12.8519C6.22918 12.4334 5.88948 12.0941 5.47042 12.0941C5.05136 12.0941 4.71166 12.4334 4.71166 12.8519V13.9675H3.59455C3.17549 13.9675 2.83579 14.3068 2.83579 14.7253C2.83579 15.1437 3.17549 15.483 3.59455 15.483H4.71166V16.5987C4.71166 17.0172 5.05136 17.3565 5.47042 17.3565C5.88948 17.3565 6.22918 17.0172 6.22918 16.5987V15.483H7.34629C7.76535 15.483 8.10505 15.1437 8.10505 14.7253C8.10505 14.3068 7.76535 13.9675 7.34629 13.9675Z M16.2113 13.9675H12.3846C11.9655 13.9675 11.6258 14.3068 11.6258 14.7253C11.6258 15.1437 11.9655 15.483 12.3846 15.483H16.2113C16.6303 15.483 16.9701 15.1437 16.9701 14.7253C16.9701 14.3068 16.6303 13.9675 16.2113 13.9675Z M6.54347 25.7379L7.45938 24.8232C7.75564 24.5274 7.75564 24.0475 7.45938 23.7515C7.16311 23.4557 6.68265 23.4557 6.38626 23.7515L5.47035 24.6662L4.55445 23.7515C4.25818 23.4557 3.77773 23.4557 3.48133 23.7515C3.18506 24.0474 3.18506 24.5272 3.48133 24.8232L4.3973 25.7379L3.4814 26.6526C3.18513 26.9485 3.18513 27.4283 3.4814 27.7242C3.62959 27.8721 3.82373 27.9461 4.01792 27.9461C4.21206 27.9461 4.40631 27.8721 4.55445 27.7242L5.47035 26.8095L6.38626 27.7242C6.53446 27.8721 6.72859 27.9461 6.92279 27.9461C7.11698 27.9461 7.31118 27.8721 7.45931 27.7242C7.75558 27.4283 7.75558 26.9485 7.45931 26.6526L6.54347 25.7379Z M16.2866 23.7516C15.9902 23.4558 15.51 23.4558 15.2135 23.7516L12.3086 26.6526C12.0124 26.9485 12.0124 27.4283 12.3087 27.7243C12.4569 27.8722 12.651 27.9462 12.8452 27.9462C13.0394 27.9462 13.2336 27.8722 13.3818 27.7243L16.2866 24.8233C16.5829 24.5274 16.5829 24.0475 16.2866 23.7516Z M12.8452 24.934C13.2027 24.934 13.4925 24.6446 13.4925 24.2876C13.4925 23.9306 13.2027 23.6412 12.8452 23.6412C12.4878 23.6412 12.198 23.9306 12.198 24.2876C12.198 24.6446 12.4878 24.934 12.8452 24.934Z M15.7505 27.8345C16.1079 27.8345 16.3976 27.5452 16.3976 27.1882C16.3976 26.8313 16.1079 26.542 15.7505 26.542C15.3931 26.542 15.1034 26.8313 15.1034 27.1882C15.1034 27.5452 15.3931 27.8345 15.7505 27.8345Z M25.0425 18.1515H21.1642C20.7452 18.1515 20.4054 18.4907 20.4054 18.9092C20.4054 19.3277 20.7452 19.667 21.1642 19.667H25.0425C25.4615 19.667 25.8013 19.3277 25.8013 18.9092C25.8013 18.4907 25.4616 18.1515 25.0425 18.1515Z M25.0425 20.7962H21.1642C20.7452 20.7962 20.4054 21.1355 20.4054 21.554C20.4054 21.9724 20.7452 22.3117 21.1642 22.3117H25.0425C25.4615 22.3117 25.8013 21.9724 25.8013 21.554C25.8013 21.1355 25.4616 20.7962 25.0425 20.7962Z"/></svg>