<svg width="135" height="44" viewBox="0 0 135 44" xmlns="http://www.w3.org/2000/svg">
<path fill-rule="evenodd" clip-rule="evenodd" d="M4.24674 15.8308C4.89877 14.8013 5.51647 12.991 6.3744 11.7556C9.03398 7.91212 13.2292 5.39839 18.4626 5.27828C18.3854 6.20484 18.2567 7.11424 18.1709 8.02365C18.0336 9.54218 18.2138 9.38775 17.6819 10.0998C16.4894 11.7042 16.0604 10.8033 15.3826 13.7803C17.8363 12.9825 19.4578 12.9224 21.9115 13.7975C21.2852 8.64993 18.7972 13.0511 18.9345 5.35549C23.6531 4.80642 28.8521 8.51267 31.1857 12.0731C32.0522 13.4029 32.6184 15.1959 33.2018 16.4485C33.3219 12.502 29.2553 7.10566 24.6054 5.15817C23.4643 4.67773 19.6122 3.69111 18.5827 3.72543C16.0089 3.81122 11.5134 5.35549 9.44578 7.13998C7.29238 9.00168 4.74434 11.6956 4.25532 15.8136L4.24674 15.8308ZM129.504 6.59091C127.883 6.28205 128.895 5.40697 127.565 4.98658C126.999 5.7244 128.329 8.15234 128.732 8.65851C130.645 8.93305 132.129 7.52605 132.224 5.78446C131.126 5.73298 131.109 6.89118 129.513 6.59949L129.504 6.59091ZM110.209 27.0182C112.569 27.979 114.413 32.2429 113.109 35.3658C111.265 35.6832 110.201 34.628 109.626 32.5861C108.991 30.3383 109.635 28.7426 110.209 27.0182ZM109.72 35.2628C110.046 35.5031 109.892 35.4001 110.192 35.6918C110.261 35.7519 110.493 36.0007 110.613 36.1122C111.548 36.9787 112.612 37.2961 113.924 36.8157C118.746 35.0484 114.379 19.314 108.905 27.0182C108.013 28.2793 107.541 29.7635 107.498 31.6081C107.481 32.4059 108.193 42.7182 108.219 42.7955C109.935 42.8641 109.969 41.4657 109.995 39.827C110.021 38.2399 109.926 36.8243 109.712 35.2628H109.72ZM68.3425 13.1626C68.4283 9.71377 69.8096 9.71377 68.0422 9.50786C66.4722 9.3277 65.3398 10.6661 64.8851 11.8328C64.4304 12.9996 64.0529 14.6812 63.7526 15.9681L63.2979 19.4512C62.989 20.2405 63.4952 19.7515 62.7231 20.1118C62.0796 19.5885 62.4486 20.2234 62.2169 18.9365L60.6984 9.81672L57.7986 9.79956C57.3868 11.0607 58.5278 13.5744 58.8453 15.0844C59.3 17.2807 59.3343 18.8335 59.6345 20.9612L63.0748 20.9355C62.766 23.1918 62.3628 25.0364 62.5086 27.3613C65.6658 27.7989 64.9966 26.8895 64.602 24.453C64.2159 22.1022 64.3446 16.4571 65.1939 14.2522C66.2835 11.421 67.8192 12.9739 68.3511 13.1798L68.3425 13.1626ZM101.63 14.4152C101.63 21.5274 101.107 20.9955 104.676 20.8926L104.418 15.7965C106.949 16.6544 107.018 18.3359 107.79 20.944L110.801 20.9784C111.17 18.5418 109.128 16.9547 107.447 15.9852C107.087 15.7793 106.984 15.745 106.563 15.5477C106.323 15.4361 106.229 15.4104 105.997 15.2903C105.182 14.8528 105.782 15.2045 105.448 14.9471C106.048 13.9948 107.344 12.116 108.468 12.1932L109.635 12.828C109.677 12.8538 109.746 12.9224 109.815 12.9567L110.801 9.73092C107.498 8.60704 105.997 13.3685 104.418 14.7927C104.53 13.2656 104.967 10.9835 104.607 9.79956C100.961 9.26764 101.622 11.0521 101.622 14.4238L101.63 14.4152ZM99.511 30.8874C99.674 29.3003 99.674 24.9591 101.802 26.3661C103.698 27.6101 103.003 29.0343 106.615 27.4557C105.825 26.0401 107.104 27.5844 103.869 25.9114C100 23.9125 96.6627 26.3833 96.2595 30.8102C95.8134 35.7176 99.4939 38.2913 103.612 37.3047C105.474 36.8586 106.057 36.4211 106.091 35.3486C104.496 35.4001 103.423 37.2532 101.39 36.0607C100.24 35.3915 99.3566 33.5985 99.6826 32.0714C101.218 30.5442 101.913 31.9684 103.312 32.3716C104.847 32.8178 107.224 30.6644 105.645 30.467C102.145 30.0209 104.307 28.6053 99.511 30.8874ZM83.0903 30.0295C85.441 29.7292 83.3906 29.489 84.2313 27.49C84.6431 26.512 85.87 26.3661 87.1826 26.3061C87.1998 28.0563 87.1654 29.8493 87.1654 31.6081C87.1654 35.5889 86.4705 36.7299 88.6325 36.8329C89.07 36.85 89.6792 36.7728 90.0309 36.7299L90.0223 26.3404C93.7801 26.2632 92.8278 27.7131 93.0423 29.8579C94.6637 30.1496 94.1318 29.4633 94.9125 28.0477C95.1184 27.6702 96.8257 25.6626 94.7753 25.3366C94.5436 25.3023 94.149 25.3624 93.9173 25.3881C91.4894 25.697 90.8717 25.5768 88.3923 25.5768C86.9081 25.5768 82.3353 25.1994 81.5289 25.5082C81.2543 27.0096 82.5498 28.2707 83.0989 30.0295H83.0903ZM53.1486 23.4663C53.895 23.6379 53.6119 23.6551 53.8006 24.5988L56.0484 35.22C55.4993 35.9149 55.1647 35.4344 55.0704 36.7042L60.3724 36.79C61.7965 36.5926 61.0844 36.9787 61.3418 36.1122C60.8957 35.28 60.9472 35.9063 59.6774 35.5202L56.6232 20.9612L58.0903 20.7725C58.1503 19.4598 58.1932 20.4207 57.7042 19.9231L50.2317 19.8802L50.2402 5.14959C52.2821 5.14959 53.1744 5.02948 53.7492 6.7196C54.2296 8.13518 54.0752 9.5336 55.3278 9.87677C55.954 8.89873 55.6709 8.04939 56.1342 6.76249C57.6184 2.67876 56.7262 4.12866 52.6853 4.12866H43.9345C40.58 4.1115 41.3264 3.14204 40.3312 4.21445C39.6277 4.90079 40.3998 5.92172 40.743 7.00271C41.0947 8.10086 40.9489 9.15611 41.5666 9.81672C42.8621 9.50786 42.5275 7.90354 43.1795 6.50512C43.9002 4.96942 44.7495 5.13243 46.6198 5.15817L46.5168 19.863C45.8391 19.8716 43.0251 19.7858 42.5875 19.8974C41.558 20.1547 41.0862 20.9097 43.7028 20.9526C43.7114 22.7972 43.068 23.8781 42.21 25.1307C40.9146 27.0267 38.6411 29.8751 38.0233 32.0799C37.6802 33.3068 36.8823 36.3953 38.4437 36.85L41.7296 36.8157C42.4074 34.9197 41.3006 31.6424 41.8068 29.163C42.2615 26.9066 43.0594 25.3709 44.2862 23.7323L46.7656 35.2714C45.9249 36.2666 47.7351 34.5508 46.2595 35.5889C45.7361 35.9578 45.7704 35.3572 45.616 36.3782C46.208 36.9959 45.9163 36.7556 47.1002 36.79H50.8494C52.059 36.7642 52.059 36.6956 52.3851 36.3782C52.1792 35.2714 52.2821 36.0865 51.2183 35.3229C51.6558 33.3926 53.3974 24.8047 53.1572 23.4749L53.1486 23.4663ZM52.5995 21.8191L50.1802 34.6795L47.2203 20.9355L52.8398 20.9269L52.591 21.8277L52.5995 21.8191ZM115.074 14.338L115.477 9.75666L112.715 9.80814C111.934 11.4296 112.277 16.9804 112.363 19.0137C112.431 20.5923 112.371 21.0298 114.036 20.9869C117.021 20.9097 114.233 17.2378 115.091 15.479C115.82 14.8099 118.034 13.4715 118.892 13.1541C118.883 14.5182 118.737 19.5199 119.2 20.3778C119.638 21.21 119.973 21.0298 122.057 20.884C122.1 19.1767 121.834 17.2464 121.783 15.4876C121.723 13.6259 122.186 11.7042 122.014 9.92825C116.258 9.29338 121.972 11.6527 115.074 14.3552V14.338ZM124.502 9.83387C123.91 14.1321 124.245 16.4485 124.494 20.884L127.342 20.8926L126.956 15.4876C127.814 14.8699 128.166 14.7841 128.938 14.2522C129.719 13.7117 130.045 13.4114 130.971 13.0768C130.885 14.6297 130.448 20.1891 131.683 20.8153C131.924 20.9355 134.334 21.862 134.008 19.1595C133.519 15.1015 134.171 10.5545 133.88 9.79956L131.143 9.80814L130.971 12.0731C129.727 12.5878 128.329 13.7803 127.016 14.3637C127.016 11.9101 128.723 8.67567 124.502 9.84245V9.83387ZM64.988 33.7786C63.9757 31.0247 65.4599 29.6777 66.8583 28.0305C67.8192 31.0247 69.1919 34.1819 64.988 33.7786ZM69.2519 25.5683L66.3006 25.6712C66.3607 29.2316 67.0985 26.0401 64.9194 28.7769C64.6191 29.1458 64.5419 29.3517 64.2674 29.7292C63.4094 30.8617 62.114 32.0542 62.1225 33.9845C62.1311 36.0521 63.4266 37.3991 65.5457 36.8329C67.1157 36.4211 67.6991 34.628 68.4026 33.2639L69.2605 36.7385L72.349 36.7299C71.9201 34.9368 71.0793 33.1009 70.6074 31.1362C70.1956 29.4204 69.7495 27.2241 69.2605 25.5683H69.2519ZM83.3734 15.8737C85.544 16.1396 86.7965 17.6839 86.4276 20.1033L83.4764 20.0604L83.3734 15.8737ZM83.5536 14.7069C83.2619 13.2055 84.0683 10.9921 83.6308 9.7395L80.8082 9.77382C80.4221 12.7508 80.5594 15.3675 80.5165 18.3788L80.9626 20.7982C81.8034 21.1328 88.9328 21.1757 89.8679 20.6609C90.4427 19.9488 90.1167 14.9986 83.545 14.7069H83.5536ZM72.4005 20.9097C72.512 18.4989 69.9812 19.7172 73.5587 11.8843C74.5539 13.4372 74.7083 18.5333 76.3127 20.9183L79.1009 20.944C79.2811 19.6829 77.9084 17.0319 77.4623 15.5477C77.1105 14.3895 76.2269 10.4173 75.9352 9.74808L72.8209 9.71377C73.4214 13.1369 71.0793 13.5573 69.4836 17.7611C69.3034 18.233 69.1146 18.7048 69.046 19.211C68.986 19.6829 68.9774 19.7258 69.0546 20.1719C69.1575 20.7381 69.0975 20.4979 69.312 20.9355L72.3834 20.9183L72.4005 20.9097ZM97.6322 18.7134C96.4311 18.2416 95.4187 17.1005 94.8782 15.8479C94.0718 13.9862 94.1232 13.1712 94.5007 11.1551C96.7056 11.3781 96.6284 12.5278 98.0011 13.2999C98.6445 12.3991 99.288 11.9873 99.511 10.9492C93.7543 5.24396 91.2835 13.9433 92.3216 17.0576C92.8878 18.7477 94.5779 22.0851 96.371 21.5961C96.7657 21.4931 97.6064 20.9269 97.8295 20.6781C98.1727 20.292 98.3099 19.9231 98.6788 19.3912C99.614 18.0442 100.369 17.6067 98.7904 17.0147C98.3271 18.0786 98.43 17.8812 97.6322 18.7134ZM78.8521 34.465C76.6816 33.7872 74.6483 30.3383 75.7722 26.9238C77.7883 27.2584 77.7025 28.2278 79.1009 29.0257L80.6881 26.8294C80.0961 25.9887 79.2725 25.4911 78.0114 24.9935C74.9743 23.7924 72.5635 29.4976 73.3271 32.3287C73.593 33.3325 74.082 34.4135 74.6054 35.2886C77.8484 40.7193 80.6538 33.8215 80.6709 33.6757C80.6795 33.6242 80.6538 33.5127 80.6624 33.4698L80.568 33.0494C80.5165 33.0322 80.4221 33.0408 80.3964 33.0408L79.5213 33.547C79.2897 33.813 79.161 34.0789 78.8607 34.4478L78.8521 34.465ZM16.1548 33.3411C13.6925 32.3373 18.4712 27.2412 21.0021 30.7244C21.4139 31.2906 22.3319 32.8778 21.1822 33.3325C21.1393 33.2896 21.0879 33.1609 21.0793 33.1952L20.8305 32.4574C20.6846 31.7539 20.7275 30.4842 18.7972 30.3898C16.0604 30.2526 17.0728 32.1743 16.1548 33.3497V33.3411ZM33.5192 19.64C32.6012 22.025 32.9616 24.1698 31.057 26.675L29.8216 26.1774C30.0189 27.43 30.2591 28.1935 29.3754 28.8799L29.324 26.2031C27.4108 26.7265 29.2382 26.8037 27.0762 26.2031L27.2649 29.0515C25.9609 29.0343 26.1067 29.0858 26.0896 27.6702C26.081 26.8466 26.1239 25.5254 26.3727 25.0106C24.2794 24.9591 26.7759 25.9286 23.4815 24.8733L23.6702 28.4681C22.9067 27.816 23.1469 27.0439 23.1812 25.5254C22.9753 25.3452 22.6064 25.1393 22.452 25.0707C23.4557 24.6932 23.1555 24.8476 23.1898 23.4749C21.4482 22.9687 16.3778 23.3806 14.1386 23.2604C14.2244 24.6589 14.01 25.3195 15.5028 25.1908C16.6181 25.0964 16.9526 24.5645 17.802 25.86C15.7258 24.5816 16.3864 25.8085 14.1472 25.1221C14.2073 26.2031 14.336 27.653 14.0357 28.5024C13.2636 28.0048 13.5896 26.023 13.8041 24.8991C12.1997 25.2423 12.8689 25.594 11.7021 25.2337C11.522 25.1736 11.7279 25.0707 10.9214 24.9849C11.1273 25.6541 11.3161 28.3737 10.8614 29.0515L10.1235 29.0686C9.83185 28.1678 9.9348 27.1812 10.1235 26.2374C8.27042 26.6578 9.75463 26.8637 7.87577 26.2289L8.01304 28.8713C7.14653 27.9876 7.24949 27.7131 7.48113 26.2203C5.97975 26.6407 6.46019 27.1554 5.7138 25.9458C4.62423 24.1784 4.04084 21.2186 3.82636 19.2196C2.97701 27.8246 9.98628 35.0913 18.2739 35.2371C26.9904 35.383 33.8367 28.3737 33.5192 19.6571V19.64ZM0.240218 20.3006C0.188742 31.1191 8.87955 39.4495 19.3463 39.0206C23.8761 38.8404 26.3727 37.5621 29.7272 35.383C30.731 34.7309 31.3487 33.813 32.1637 33.0408C35.1922 30.1668 37.337 24.9248 36.9252 19.1939C35.3724 25.6626 36.0759 26.6836 31.6232 31.4451C25.7121 37.768 16.5408 38.7289 8.87097 34.1218C3.37165 30.8188 1.99039 26.5377 0.677761 21.4159C0.652023 21.3215 0.583389 21.0556 0.549072 20.9698C0.21448 20.0261 0.480437 20.6867 0.240218 20.3092V20.3006ZM18.7715 19.8459C17.7419 19.2968 18.0165 19.2882 18.0165 17.8383C18.0165 17.049 17.8706 16.011 18.617 15.8394C19.8095 15.5734 19.8095 18.9536 18.7629 19.8459H18.7715ZM15.3912 14.2007C15.4427 15.4705 15.8631 14.6812 15.9317 16.4914C15.966 17.5123 15.906 18.456 15.9746 19.5113C14.825 19.5542 15.0909 19.9231 14.07 19.4255L14.0271 22.9258L23.4386 22.8486L23.3013 19.6915L21.3538 19.5285C21.4139 17.4351 21.0793 16.2598 21.8085 14.7498L21.9973 14.3981C20.3672 13.1369 17.2186 13.3428 15.3912 14.2007ZM35.8957 14.5525C36.4791 14.5525 36.2903 14.6812 36.3161 14.0206C33.4592 2.10395 18.2138 -4.93106 6.61462 4.84931C4.34969 6.75391 1.28689 10.6232 0.797871 15.2989C1.73301 13.8833 2.3593 9.80814 6.89774 6.19626C9.90906 3.79406 12.9976 2.12968 18.0079 1.90662C22.615 1.70072 26.7073 3.47663 29.6157 5.45844L31.5632 7.20004C33.0817 8.70141 35.7498 12.2618 35.9043 14.5525H35.8957Z"/>
<path fill-rule="evenodd" clip-rule="evenodd" d="M4.24674 15.8308C4.89876 14.8013 5.51647 12.9911 6.3744 11.7557C9.03398 7.91217 13.2292 5.39844 18.4626 5.27833C18.3854 6.20489 18.2567 7.1143 18.1709 8.0237C18.0336 9.54223 18.2138 9.38781 17.6819 10.0999C16.4894 11.7042 16.0604 10.8034 15.3826 13.7804C17.8363 12.9825 19.4578 12.9225 21.9115 13.7976C21.2852 8.64999 18.7972 13.0512 18.9345 5.35555C23.6531 4.80647 28.8521 8.51272 31.1857 12.0731C32.0522 13.4029 32.6184 15.196 33.2018 16.4486C33.3219 12.5021 29.2553 7.10572 24.6054 5.15822C23.4643 4.67778 19.6122 3.69117 18.5827 3.72548C16.0089 3.81128 11.5134 5.35555 9.44578 7.14003C7.29238 9.00174 4.74434 11.6956 4.25532 15.8137L4.24674 15.8308ZM129.504 6.59096C127.883 6.28211 128.895 5.40702 127.565 4.98664C126.999 5.72445 128.329 8.15239 128.732 8.65857C130.645 8.9331 132.129 7.5261 132.224 5.78451C131.126 5.73303 131.109 6.89124 129.513 6.59954L129.504 6.59096ZM110.209 27.0182C112.569 27.9791 114.413 32.243 113.109 35.3659C111.265 35.6833 110.201 34.628 109.626 32.5862C108.991 30.3384 109.635 28.7427 110.209 27.0182ZM109.72 35.2629C110.046 35.5031 109.892 35.4002 110.192 35.6919C110.261 35.7519 110.492 36.0007 110.613 36.1123C111.548 36.9788 112.612 37.2962 113.924 36.8158C118.746 35.0484 114.379 19.314 108.905 27.0182C108.013 28.2794 107.541 29.7636 107.498 31.6081C107.481 32.406 108.193 42.7183 108.219 42.7955C109.935 42.8641 109.969 41.4657 109.995 39.8271C110.021 38.2399 109.926 36.8243 109.712 35.2629H109.72ZM68.3425 13.1627C68.4283 9.71382 69.8096 9.71382 68.0422 9.50792C66.4722 9.32775 65.3398 10.6661 64.8851 11.8329C64.4304 12.9997 64.0529 14.6812 63.7526 15.9681L63.2979 19.4513C62.989 20.2406 63.4952 19.7516 62.7231 20.1119C62.0796 19.5886 62.4486 20.2234 62.2169 18.9365L60.6984 9.81677L57.7986 9.79961C57.3868 11.0608 58.5278 13.5745 58.8453 15.0844C59.3 17.2807 59.3343 18.8336 59.6345 20.9612L63.0748 20.9355C62.766 23.1919 62.3628 25.0364 62.5086 27.3614C65.6658 27.7989 64.9966 26.8895 64.602 24.453C64.2159 22.1023 64.3446 16.4571 65.1939 14.2523C66.2835 11.4211 67.8192 12.9739 68.3511 13.1798L68.3425 13.1627ZM101.63 14.4153C101.63 21.5275 101.107 20.9956 104.676 20.8926L104.418 15.7965C106.949 16.6545 107.018 18.336 107.79 20.9441L110.801 20.9784C111.17 18.5419 109.128 16.9547 107.447 15.9853C107.087 15.7794 106.984 15.745 106.563 15.5477C106.323 15.4362 106.229 15.4105 105.997 15.2903C105.182 14.8528 105.782 15.2046 105.448 14.9472C106.048 13.9949 107.344 12.116 108.468 12.1932L109.635 12.8281C109.677 12.8538 109.746 12.9225 109.815 12.9568L110.801 9.73098C107.498 8.60709 105.997 13.3686 104.418 14.7928C104.53 13.2656 104.967 10.9836 104.607 9.79961C100.961 9.2677 101.622 11.0522 101.622 14.4238L101.63 14.4153ZM99.511 30.8875C99.674 29.3003 99.674 24.9592 101.802 26.3662C103.698 27.6102 103.003 29.0343 106.615 27.4558C105.825 26.0402 107.104 27.5845 103.869 25.9115C100 23.9125 96.6627 26.3834 96.2595 30.8103C95.8134 35.7176 99.4939 38.2914 103.612 37.3048C105.474 36.8586 106.057 36.4211 106.091 35.3487C104.496 35.4002 103.423 37.2533 101.39 36.0608C100.24 35.3916 99.3566 33.5985 99.6826 32.0714C101.218 30.5443 101.913 31.9685 103.312 32.3717C104.847 32.8178 107.224 30.6644 105.645 30.4671C102.145 30.021 104.307 28.6054 99.511 30.8875ZM83.0903 30.0295C85.441 29.7293 83.3906 29.489 84.2313 27.4901C84.6431 26.512 85.87 26.3662 87.1826 26.3061C87.1998 28.0563 87.1654 29.8494 87.1654 31.6081C87.1654 35.5889 86.4705 36.73 88.6325 36.8329C89.07 36.8501 89.6792 36.7729 90.0309 36.73L90.0223 26.3405C93.7801 26.2632 92.8278 27.7131 93.0423 29.858C94.6637 30.1497 94.1318 29.4633 94.9125 28.0477C95.1184 27.6702 96.8257 25.6627 94.7753 25.3367C94.5436 25.3024 94.149 25.3624 93.9173 25.3882C91.4894 25.697 90.8717 25.5769 88.3923 25.5769C86.9081 25.5769 82.3353 25.1994 81.5289 25.5083C81.2543 27.0096 82.5498 28.2708 83.0989 30.0295H83.0903ZM53.1486 23.4664C53.895 23.638 53.6119 23.6551 53.8006 24.5989L56.0484 35.22C55.4993 35.9149 55.1647 35.4345 55.0704 36.7042L60.3724 36.79C61.7965 36.5927 61.0844 36.9788 61.3418 36.1123C60.8957 35.2801 60.9472 35.9064 59.6774 35.5203L56.6232 20.9612L58.0903 20.7725C58.1503 19.4599 58.1932 20.4208 57.7042 19.9232L50.2317 19.8803L50.2402 5.14964C52.2821 5.14964 53.1744 5.02953 53.7492 6.71965C54.2296 8.13523 54.0752 9.53365 55.3278 9.87682C55.954 8.89879 55.6709 8.04944 56.1342 6.76255C57.6184 2.67881 56.7262 4.12871 52.6853 4.12871H43.9345C40.58 4.11155 41.3264 3.14209 40.3312 4.2145C39.6277 4.90084 40.3998 5.92178 40.743 7.00277C41.0947 8.10091 40.9489 9.15617 41.5666 9.81677C42.8621 9.50792 42.5275 7.90359 43.1795 6.50517C43.9002 4.96948 44.7495 5.13248 46.6198 5.15822L46.5168 19.8631C45.8391 19.8717 43.0251 19.7859 42.5875 19.8974C41.558 20.1548 41.0862 20.9098 43.7028 20.9527C43.7114 22.7972 43.068 23.8782 42.21 25.1308C40.9146 27.0268 38.6411 29.8751 38.0233 32.08C37.6802 33.3068 36.8823 36.3954 38.4437 36.8501L41.7296 36.8158C42.4074 34.9197 41.3006 31.6424 41.8068 29.163C42.2615 26.9067 43.0594 25.371 44.2862 23.7324L46.7656 35.2715C45.9249 36.2667 47.7351 34.5508 46.2595 35.5889C45.7361 35.9578 45.7704 35.3573 45.616 36.3782C46.208 36.9959 45.9163 36.7557 47.1002 36.79H50.8494C52.059 36.7643 52.059 36.6956 52.3851 36.3782C52.1792 35.2715 52.2821 36.0865 51.2183 35.323C51.6558 33.3926 53.3974 24.8048 53.1572 23.475L53.1486 23.4664ZM52.6081 21.8278L50.1888 34.6881L47.2289 20.9441L52.8483 20.9355L52.5995 21.8363L52.6081 21.8278ZM115.074 14.3552L115.477 9.77387L112.715 9.82535C111.934 11.4468 112.277 16.9976 112.363 19.0309C112.431 20.6095 112.371 21.047 114.036 21.0041C117.021 20.9269 114.233 17.255 115.091 15.4963C115.82 14.8271 118.034 13.4887 118.892 13.1713C118.883 14.5354 118.737 19.5371 119.2 20.395C119.638 21.2272 119.973 21.047 122.057 20.9012C122.1 19.1939 121.834 17.2636 121.783 15.5048C121.723 13.6431 122.186 11.7214 122.014 9.94546C116.258 9.31059 121.972 11.6699 115.074 14.3724V14.3552ZM124.502 9.85109C123.91 14.1493 124.245 16.4657 124.494 20.9012L127.342 20.9098L126.956 15.5048C127.814 14.8871 128.166 14.8013 128.938 14.2694C129.719 13.7289 130.045 13.4286 130.971 13.0941C130.885 14.6469 130.448 20.2063 131.683 20.8326C131.924 20.9527 134.334 21.8792 134.008 19.1768C133.519 15.1188 134.171 10.5717 133.88 9.81677L131.143 9.82535L130.971 12.0903C129.727 12.605 128.329 13.7976 127.016 14.3809C127.016 11.9273 128.723 8.69288 124.502 9.85967V9.85109ZM64.988 33.7958C63.9757 31.0419 65.4599 29.695 66.8583 28.0477C67.8192 31.0419 69.1919 34.1991 64.988 33.7958ZM69.2519 25.5855L66.3006 25.6884C66.3607 29.2488 67.0985 26.0573 64.9194 28.7941C64.6191 29.163 64.5419 29.3689 64.2674 29.7464C63.4094 30.8789 62.114 32.0714 62.1225 34.0017C62.1311 36.0694 63.4266 37.4163 65.5457 36.8501C67.1157 36.4383 67.6991 34.6452 68.4026 33.2811L69.2605 36.7557L72.349 36.7471C71.9201 34.9541 71.0793 33.1181 70.6074 31.1534C70.1956 29.4376 69.7495 27.2413 69.2605 25.5855H69.2519ZM83.3734 15.8909C85.544 16.1569 86.7965 17.7011 86.4276 20.1205L83.4764 20.0776L83.3734 15.8909ZM83.5536 14.7241C83.2619 13.2227 84.0683 11.0093 83.6308 9.75671L80.8082 9.79103C80.4221 12.768 80.5594 15.3847 80.5165 18.396L80.9626 20.8154C81.8034 21.15 88.9328 21.1929 89.8679 20.6781C90.4427 19.9661 90.1167 15.0158 83.545 14.7241H83.5536ZM72.4005 20.9269C72.512 18.5162 69.9812 19.7344 73.5587 11.9015C74.5539 13.4544 74.7083 18.5505 76.3127 20.9355L79.1009 20.9612C79.2811 19.7001 77.9084 17.0491 77.4623 15.5649C77.1105 14.4067 76.2269 10.4345 75.9352 9.76529L72.8209 9.73098C73.4214 13.1541 71.0793 13.5745 69.4836 17.7783C69.3034 18.2502 69.1146 18.7221 69.046 19.2282C68.986 19.7001 68.9774 19.743 69.0546 20.1891C69.1575 20.7553 69.0975 20.5151 69.312 20.9527L72.3834 20.9355L72.4005 20.9269ZM97.6322 18.7306C96.4311 18.2588 95.4187 17.1177 94.8782 15.8652C94.0718 14.0035 94.1232 13.1884 94.5007 11.1723C96.7056 11.3954 96.6284 12.545 98.0011 13.3171C98.6445 12.4163 99.288 12.0045 99.511 10.9664C93.7543 5.26117 91.2835 13.9606 92.3216 17.0748C92.8878 18.765 94.5779 22.1023 96.371 21.6133C96.7657 21.5103 97.6064 20.9441 97.8295 20.6953C98.1727 20.3092 98.3099 19.9403 98.6788 19.4084C99.614 18.0615 100.369 17.6239 98.7904 17.0319C98.3271 18.0958 98.43 17.8984 97.6322 18.7306ZM78.8521 34.4822C76.6816 33.8044 74.6483 30.3556 75.7722 26.941C77.7883 27.2756 77.7025 28.2451 79.1009 29.0429L80.6881 26.8466C80.0961 26.0059 79.2725 25.5083 78.0114 25.0107C74.9743 23.8096 72.5635 29.5148 73.3271 32.3459C73.593 33.3497 74.082 34.4307 74.6054 35.3058C77.8484 40.7365 80.6538 33.8387 80.6709 33.6929C80.6795 33.6414 80.6538 33.5299 80.6624 33.487L80.568 33.0666C80.5165 33.0494 80.4221 33.058 80.3964 33.058L79.5213 33.5642C79.2897 33.8302 79.161 34.0961 78.8607 34.465L78.8521 34.4822ZM16.1548 33.3583C13.6925 32.3545 18.4712 27.2584 21.0021 30.7416C21.4139 31.3079 22.3319 32.895 21.1822 33.3497C21.1393 33.3068 21.0879 33.1781 21.0793 33.2125L20.8305 32.4746C20.6846 31.7711 20.7275 30.5014 18.7972 30.407C16.0604 30.2698 17.0728 32.1915 16.1548 33.3669V33.3583ZM33.5192 19.6572C32.6013 22.0422 32.9616 24.1871 31.057 26.6922L29.8216 26.1946C30.0189 27.4472 30.2591 28.2107 29.3754 28.8971L29.324 26.2203C27.4108 26.7437 29.2382 26.8209 27.0762 26.2203L27.2649 29.0687C25.9609 29.0515 26.1067 29.103 26.0896 27.6874C26.081 26.8638 26.1239 25.5426 26.3727 25.0278C24.2794 24.9764 26.7759 25.9458 23.4815 24.8906L23.6702 28.4853C22.9067 27.8332 23.1469 27.0611 23.1812 25.5426C22.9753 25.3624 22.6064 25.1565 22.452 25.0879C23.4557 24.7104 23.1555 24.8648 23.1898 23.4921C21.4482 22.986 16.3778 23.3978 14.1386 23.2777C14.2244 24.6761 14.01 25.3367 15.5028 25.208C16.6181 25.1136 16.9526 24.5817 17.802 25.8772C15.7258 24.5989 16.3864 25.8257 14.1472 25.1394C14.2073 26.2203 14.336 27.6702 14.0357 28.5196C13.2636 28.022 13.5896 26.0402 13.8041 24.9163C12.1997 25.2595 12.8689 25.6112 11.7021 25.2509C11.522 25.1908 11.7279 25.0879 10.9214 25.0021C11.1273 25.6713 11.3161 28.3909 10.8614 29.0687L10.1235 29.0858C9.83185 28.185 9.9348 27.1984 10.1235 26.2547C8.27042 26.675 9.75463 26.8809 7.87577 26.2461L8.01304 28.8885C7.14654 28.0048 7.24949 27.7303 7.48113 26.2375C5.97975 26.6579 6.46019 27.1726 5.7138 25.963C4.62423 24.1956 4.04084 21.2358 3.82636 19.2368C2.97701 27.8418 9.98628 35.1085 18.2739 35.2543C26.9904 35.4002 33.8367 28.3909 33.5192 19.6744V19.6572ZM0.240218 20.3178C0.188742 31.1363 8.87955 39.4667 19.3463 39.0378C23.8761 38.8576 26.3727 37.5793 29.7272 35.4002C30.731 34.7481 31.3487 33.8302 32.1637 33.058C35.1922 30.184 37.337 24.942 36.9252 19.2111C35.3724 25.6799 36.0759 26.7008 31.6232 31.4623C25.7121 37.7852 16.5408 38.7461 8.87097 34.139C3.37165 30.836 1.99039 26.5549 0.677761 21.4331C0.652023 21.3387 0.583389 21.0728 0.549072 20.987C0.21448 20.0433 0.480437 20.7039 0.240218 20.3264V20.3178ZM18.7715 19.8631C17.7419 19.314 18.0165 19.3054 18.0165 17.8556C18.0165 17.0663 17.8706 16.0282 18.617 15.8566C19.8095 15.5906 19.8095 18.9709 18.7629 19.8631H18.7715ZM15.3912 14.2179C15.4427 15.4877 15.8631 14.6984 15.9317 16.5086C15.966 17.5295 15.906 18.4733 15.9746 19.5285C14.825 19.5714 15.0909 19.9403 14.07 19.4427L14.0271 22.9431L23.4386 22.8658L23.3013 19.7087L21.3538 19.5457C21.4139 17.4523 21.0793 16.277 21.8085 14.767L21.9973 14.4153C20.3672 13.1541 17.2186 13.36 15.3912 14.2179ZM35.8957 14.5697C36.4791 14.5697 36.2903 14.6984 36.3161 14.0378C33.4592 2.12116 18.2138 -4.91385 6.61462 4.86653C4.34969 6.77113 1.28689 10.6404 0.797871 15.3161C1.73301 13.9005 2.3593 9.82535 6.89774 6.21347C9.90906 3.81128 12.9976 2.1469 18.0079 1.92383C22.615 1.71793 26.7073 3.49384 29.6157 5.47566L31.5632 7.21725C33.0817 8.71862 35.7498 12.279 35.9043 14.5697H35.8957Z" stroke="white" stroke-width="0.499993"/>
</svg>
